<?xml version="1.0" encoding="utf-8"?>
<!-- Generator: Adobe Illustrator 21.1.0, SVG Export Plug-In . SVG Version: 6.00 Build 0)  -->
<svg version="1.1" id="Layer_1" xmlns="http://www.w3.org/2000/svg" xmlns:xlink="http://www.w3.org/1999/xlink" x="0px" y="0px"
	 viewBox="0 0 516 230" style="enable-background:new 0 0 516 230;" xml:space="preserve">
<style type="text/css">
	.st0{fill:none;stroke:#000000;stroke-width:1.439;stroke-linecap:round;stroke-miterlimit:10;}
	.st1{fill:#B0AFB2;}
	.st2{fill:none;stroke:#000000;stroke-width:2.158;stroke-miterlimit:10;}
	.st3{fill:none;stroke:#000000;stroke-width:2.158;stroke-linecap:square;stroke-miterlimit:10;}
	.st4{fill:none;stroke:#000000;stroke-width:2.156;stroke-miterlimit:10;}
	.st5{fill:none;stroke:#000000;stroke-width:2.156;stroke-linecap:square;stroke-miterlimit:10;}
	.st6{fill:none;stroke:#000000;stroke-width:2.156;stroke-linecap:round;stroke-miterlimit:1.427;stroke-dasharray:0,4.312;}
	.st7{fill:none;stroke:#000000;stroke-width:2.156;stroke-linecap:round;stroke-miterlimit:1.427;}
	.st8{fill:none;stroke:#000000;stroke-width:1.437;stroke-linecap:round;stroke-miterlimit:10;}
	.st9{fill:none;stroke:#000000;stroke-width:2.156;stroke-linecap:round;stroke-miterlimit:10;}
	.st10{fill:none;stroke:#000000;stroke-width:2.156;stroke-linecap:round;stroke-miterlimit:10;stroke-dasharray:0,4.312;}
	.st11{enable-background:new    ;}
</style>
<g>
	<path d="M12.8,26.9l1.4-3.9h5.4l1.5,3.9H23L17.8,14H16l-5,12.9H12.8L12.8,26.9z M16.1,17.8c0.3-0.8,0.5-1.6,0.7-2.5
		c0.2,0.7,0.5,1.6,0.9,2.7l1.3,3.6h-4.4L16.1,17.8L16.1,17.8z M271.7,26.9c0.8,0,1.5-0.1,2.1-0.2s1-0.4,1.4-0.6
		c0.4-0.3,0.7-0.7,0.9-1.2s0.4-1.1,0.4-1.7c0-0.7-0.2-1.4-0.6-2s-1-0.9-1.8-1.2c0.6-0.3,1.1-0.7,1.4-1.2s0.4-1,0.4-1.6
		s-0.2-1.2-0.5-1.7s-0.8-0.9-1.4-1.2c-0.6-0.3-1.4-0.4-2.4-0.4h-4.8v12.9L271.7,26.9L271.7,26.9z M268.5,15.5h2.6
		c0.9,0,1.6,0.1,2,0.2s0.7,0.3,0.9,0.7c0.2,0.3,0.3,0.7,0.3,1.1c0,0.5-0.1,0.8-0.3,1.1s-0.5,0.5-1,0.6c-0.3,0.1-0.9,0.1-1.6,0.1
		h-2.8v-3.8L268.5,15.5L268.5,15.5z M268.5,20.9h3c0.8,0,1.4,0.1,1.9,0.2c0.4,0.1,0.8,0.4,1,0.7c0.2,0.4,0.4,0.8,0.4,1.3
		c0,0.4-0.1,0.8-0.3,1.1c-0.2,0.3-0.4,0.6-0.7,0.7c-0.3,0.2-0.6,0.3-1,0.4c-0.2,0-0.6,0.1-1.2,0.1h-3.2v-4.5
		C268.4,20.9,268.5,20.9,268.5,20.9z"/>
	<rect x="78.1" y="128" width="7.9" height="38.2"/>
	<path class="st0" d="M82,126.8v1.2 M80.1,126.8H84"/>
	<rect x="109.6" y="122.6" width="7.9" height="43.6"/>
	<path class="st0" d="M113.6,120.7v1.9 M111.7,120.7h3.9"/>
	<rect x="141.2" y="111.3" width="7.9" height="54.9"/>
	<path class="st0" d="M145.1,109v2.3 M143.2,109h3.9"/>
	<rect x="172.7" y="125.6" width="7.9" height="40.6"/>
	<path class="st0" d="M176.7,122.8v2.8 M174.7,122.8h3.9"/>
	<rect x="204.3" y="135.5" width="7.9" height="30.7"/>
	<path class="st0" d="M208.2,134.2v1.3 M206.3,134.2h3.9"/>
	<rect x="89.9" y="133.5" class="st1" width="7.9" height="32.6"/>
	<path class="st0" d="M93.9,133v0.5 M91.9,133h3.9"/>
	<rect x="121.5" y="129.8" class="st1" width="7.9" height="36.4"/>
	<path class="st0" d="M125.4,129v0.8 M123.5,129h3.9"/>
	<rect x="153" y="127.1" class="st1" width="7.9" height="39.1"/>
	<path class="st0" d="M157,125.8v1.3 M155,125.8h3.9"/>
	<rect x="184.5" y="129.8" class="st1" width="7.9" height="36.4"/>
	<path class="st0" d="M188.5,128.7v1.1 M186.6,128.7h3.9"/>
	<rect x="216.1" y="134" class="st1" width="7.9" height="32.2"/>
	<path class="st0" d="M220,133.4v0.6 M218.1,133.4h3.9"/>
	<line class="st2" x1="72.2" y1="166.2" x2="229.9" y2="166.2"/>
	<path class="st3" d="M88,166.2v3.3 M119.5,166.2v3.3 M151,166.2v3.3 M182.6,166.2v3.3 M214.1,166.2v3.3"/>
	<path d="M80.2,185.1l-2.9-2.8l0.6-0.6l-0.4-0.4l-0.6,0.6l-0.3-0.3c-0.2-0.2-0.3-0.4-0.3-0.5s0.1-0.3,0.3-0.5
		c0.1-0.1,0.2-0.2,0.4-0.3l-0.4-0.6c-0.2,0.2-0.4,0.3-0.6,0.5s-0.4,0.5-0.4,0.7s0,0.4,0.1,0.6c0.1,0.1,0.2,0.3,0.4,0.5l0.4,0.3
		l-0.5,0.5l0.4,0.4l0.5-0.5l2.9,2.8L80.2,185.1L80.2,185.1z M77.9,179.6l-0.6-0.6l-0.6,0.6l0.6,0.6L77.9,179.6L77.9,179.6z
		 M81.9,183.4l-3.3-3.3l-0.6,0.6l3.3,3.3L81.9,183.4L81.9,183.4z M83.3,182l-1.7-1.7c-0.2-0.2-0.4-0.5-0.6-0.7
		c-0.1-0.2-0.1-0.3-0.1-0.5s0.1-0.3,0.2-0.4c0.1-0.1,0.3-0.2,0.5-0.3l-0.3-0.7c-0.3,0.1-0.6,0.2-0.8,0.4c-0.1,0.1-0.2,0.3-0.2,0.5
		s0,0.5,0.1,0.8l-0.5-0.5l-0.5,0.5l3.3,3.3L83.3,182L83.3,182z M84.9,180.1c0.4,0,0.8-0.3,1.3-0.7c0.3-0.3,0.4-0.5,0.6-0.8
		c0.1-0.3,0.1-0.6,0.1-0.8s-0.2-0.5-0.4-0.7s-0.4-0.3-0.6-0.3c-0.2,0-0.4,0-0.7,0.1c-0.2,0.1-0.6,0.3-1.1,0.6
		c-0.4,0.2-0.6,0.3-0.6,0.3c-0.1,0.1-0.3,0.1-0.4,0.1c-0.1,0-0.2-0.1-0.3-0.1c-0.1-0.1-0.2-0.3-0.1-0.5c0-0.2,0.2-0.4,0.4-0.7
		c0.2-0.2,0.4-0.3,0.7-0.4c0.2,0,0.4,0,0.6,0.2l0.5-0.6c-0.3-0.2-0.5-0.3-0.7-0.3s-0.5,0-0.7,0.1s-0.5,0.3-0.8,0.6
		c-0.2,0.2-0.3,0.4-0.4,0.5c-0.1,0.2-0.2,0.4-0.2,0.5c0,0.2,0,0.4,0,0.6c0.1,0.2,0.2,0.4,0.3,0.5c0.2,0.2,0.4,0.3,0.6,0.3
		c0.2,0.1,0.4,0,0.7,0c0.2-0.1,0.6-0.3,1.1-0.6c0.4-0.2,0.6-0.4,0.8-0.4s0.3,0,0.5,0.1c0.1,0.1,0.2,0.3,0.2,0.6
		c0,0.2-0.2,0.5-0.4,0.7c-0.3,0.3-0.5,0.4-0.8,0.4s-0.5-0.1-0.8-0.2l-0.5,0.6C84,180,84.5,180.1,84.9,180.1L84.9,180.1z M88.5,175.9
		c-0.1,0.1-0.2,0.1-0.2,0.1c-0.1,0-0.1,0-0.2,0c-0.1,0-0.2-0.1-0.3-0.3l-1.9-1.9l0.6-0.6l-0.4-0.4l-0.6,0.6l-1.2-1.1l-0.2,0.9
		l0.8,0.8l-0.4,0.4l0.4,0.4l0.4-0.4l1.9,1.9c0.3,0.3,0.6,0.5,0.7,0.6c0.2,0.1,0.3,0.1,0.5,0c0.2,0,0.4-0.2,0.6-0.4
		c0.1-0.1,0.2-0.3,0.4-0.5l-0.6-0.4C88.7,175.7,88.6,175.8,88.5,175.9L88.5,175.9L88.5,175.9z"/>
	<path d="M101.8,194.5c0.4,0,0.8-0.3,1.3-0.7c0.3-0.3,0.4-0.5,0.6-0.8c0.1-0.3,0.1-0.6,0.1-0.8s-0.2-0.5-0.4-0.7s-0.4-0.3-0.6-0.3
		c-0.2,0-0.4,0-0.7,0.1c-0.2,0.1-0.6,0.3-1.1,0.6c-0.4,0.2-0.6,0.3-0.6,0.3c-0.1,0.1-0.3,0.1-0.4,0.1c-0.1,0-0.2-0.1-0.3-0.1
		c-0.1-0.1-0.2-0.3-0.1-0.5c0-0.2,0.2-0.4,0.4-0.7c0.2-0.2,0.4-0.3,0.7-0.4c0.2,0,0.4,0,0.6,0.2l0.5-0.6c-0.3-0.2-0.5-0.3-0.7-0.3
		s-0.5,0-0.7,0.1s-0.5,0.3-0.8,0.6c-0.2,0.2-0.3,0.4-0.4,0.5c-0.1,0.2-0.2,0.4-0.2,0.5c0,0.2,0,0.4,0,0.6c0.1,0.2,0.2,0.4,0.3,0.5
		c0.2,0.2,0.4,0.3,0.6,0.3c0.2,0.1,0.4,0,0.7,0c0.2-0.1,0.6-0.3,1.1-0.6c0.4-0.2,0.6-0.4,0.8-0.4s0.3,0,0.5,0.1
		c0.1,0.1,0.2,0.3,0.2,0.6c0,0.2-0.2,0.5-0.4,0.7c-0.3,0.3-0.5,0.4-0.8,0.4s-0.5-0.1-0.8-0.2l-0.5,0.6
		C101,194.5,101.4,194.6,101.8,194.5L101.8,194.5z M106.3,189.3c0,0.3-0.2,0.5-0.4,0.7c-0.3,0.3-0.6,0.4-1,0.4s-0.8-0.2-1.1-0.5
		l2.5-2.4c-0.1-0.1-0.1-0.1-0.1-0.2c-0.5-0.5-1.1-0.8-1.7-0.8c-0.6,0-1.1,0.2-1.5,0.6c-0.5,0.5-0.7,1-0.7,1.6s0.3,1.2,0.9,1.7
		c0.5,0.5,1.1,0.8,1.7,0.8c0.6,0,1.1-0.2,1.6-0.7c0.4-0.4,0.6-0.8,0.7-1.2c0.1-0.4,0-0.9-0.3-1.3l-0.7,0.5
		C106.3,188.8,106.4,189.1,106.3,189.3L106.3,189.3z M103,188.4c0-0.3,0.1-0.6,0.4-0.9c0.3-0.3,0.6-0.4,1-0.4c0.3,0,0.5,0.2,0.8,0.4
		l-1.9,1.8C103.1,189.1,103,188.8,103,188.4L103,188.4z M109.8,185.8c0,0.3-0.1,0.5-0.4,0.7c-0.3,0.3-0.6,0.4-1,0.4
		s-0.8-0.3-1.2-0.7s-0.7-0.8-0.7-1.2s0.1-0.7,0.4-1c0.2-0.2,0.4-0.3,0.6-0.3c0.2,0,0.5,0.1,0.8,0.2l0.5-0.6
		c-0.4-0.3-0.8-0.4-1.2-0.3c-0.4,0-0.8,0.2-1.2,0.6c-0.3,0.3-0.5,0.6-0.6,1s-0.1,0.8,0.1,1.1s0.4,0.8,0.8,1.1
		c0.6,0.5,1.1,0.8,1.7,0.9c0.6,0,1.1-0.2,1.5-0.6c0.4-0.4,0.6-0.8,0.6-1.2c0-0.5-0.1-0.9-0.4-1.3l-0.6,0.5
		C109.7,185.2,109.8,185.5,109.8,185.8L109.8,185.8z M111.6,184.5c0.6,0,1.1-0.2,1.6-0.7c0.3-0.3,0.5-0.6,0.6-1s0.1-0.7,0-1.1
		c-0.1-0.4-0.4-0.8-0.8-1.2c-0.5-0.5-1.1-0.8-1.7-0.8c-0.6,0-1.1,0.2-1.6,0.7c-0.4,0.4-0.6,0.9-0.7,1.4c0,0.6,0.2,1.2,0.9,1.9
		C110.4,184.2,111,184.5,111.6,184.5L111.6,184.5z M109.8,181.9c0-0.4,0.1-0.7,0.4-1c0.3-0.3,0.6-0.4,1-0.4s0.8,0.2,1.2,0.6
		c0.4,0.4,0.7,0.8,0.7,1.2s-0.1,0.7-0.4,1c-0.3,0.3-0.6,0.4-1,0.4s-0.8-0.2-1.2-0.7C110,182.7,109.8,182.3,109.8,181.9L109.8,181.9z
		 M115.8,181l-1.8-1.8c-0.4-0.4-0.6-0.8-0.6-1.1s0.2-0.6,0.4-0.8c0.2-0.1,0.3-0.2,0.5-0.3c0.2,0,0.3,0,0.5,0
		c0.2,0.1,0.4,0.2,0.6,0.4l2,2l0.6-0.6l-2-2c-0.3-0.3-0.5-0.4-0.6-0.5c-0.2-0.1-0.4-0.2-0.6-0.2c-0.2,0-0.4,0-0.7,0.1
		c-0.2,0.1-0.5,0.2-0.7,0.4c-0.5,0.5-0.6,1-0.5,1.6l-0.5-0.5l-0.5,0.5l3.3,3.3L115.8,181L115.8,181z M121.5,175.4l-4.6-4.5l-0.6,0.6
		l1.6,1.6c-0.2,0-0.5,0-0.7,0.1s-0.5,0.2-0.7,0.4c-0.3,0.3-0.4,0.6-0.5,0.9c-0.1,0.4,0,0.7,0.1,1.1c0.2,0.4,0.4,0.7,0.7,1.1
		c0.3,0.3,0.7,0.6,1.1,0.7c0.4,0.1,0.8,0.2,1.1,0.1c0.4-0.1,0.7-0.2,0.9-0.5c0.4-0.4,0.6-0.9,0.4-1.4l0.4,0.4L121.5,175.4
		L121.5,175.4z M116.8,174.9c0-0.4,0.1-0.7,0.3-0.9c0.3-0.3,0.6-0.4,1-0.3c0.4,0,0.8,0.3,1.3,0.7c0.4,0.4,0.6,0.8,0.7,1.2
		c0,0.4-0.1,0.7-0.3,0.9s-0.6,0.3-1,0.3s-0.8-0.3-1.2-0.7C117.1,175.6,116.9,175.2,116.8,174.9L116.8,174.9z"/>
	<path d="M138.8,188.7c0.6,0,1.1-0.2,1.6-0.7c0.3-0.3,0.5-0.6,0.6-1s0.1-0.7,0-1.1c-0.1-0.4-0.4-0.8-0.8-1.2
		c-0.5-0.5-1.1-0.8-1.7-0.8c-0.6,0-1.1,0.2-1.6,0.7c-0.4,0.4-0.6,0.9-0.7,1.4c0,0.6,0.2,1.2,0.9,1.9
		C137.7,188.4,138.2,188.7,138.8,188.7L138.8,188.7z M137,186.1c0-0.4,0.1-0.7,0.4-1c0.3-0.3,0.6-0.4,1-0.4s0.8,0.2,1.2,0.6
		c0.4,0.4,0.7,0.8,0.7,1.2s-0.1,0.7-0.4,1c-0.3,0.3-0.6,0.4-1,0.4s-0.8-0.2-1.2-0.7C137.3,186.9,137,186.5,137,186.1L137,186.1z
		 M143,184.4c-0.1,0.1-0.2,0.1-0.2,0.1s-0.1,0-0.2,0c-0.1,0-0.2-0.1-0.3-0.3l-1.9-1.9l0.6-0.6l-0.4-0.4l-0.6,0.6l-1.2-1.1l-0.2,0.9
		l0.8,0.8l-0.4,0.4l0.4,0.4l0.4-0.4l1.9,1.9c0.3,0.3,0.6,0.5,0.7,0.6c0.2,0.1,0.3,0.1,0.5,0c0.2,0,0.4-0.2,0.6-0.4
		c0.1-0.1,0.2-0.3,0.4-0.5l-0.6-0.4C143.2,184.2,143.1,184.3,143,184.4L143,184.4L143,184.4z M144.9,183.5l-1.8-1.8
		c-0.3-0.3-0.4-0.5-0.5-0.7s-0.1-0.4,0-0.7c0.1-0.2,0.2-0.4,0.3-0.6c0.2-0.2,0.5-0.3,0.7-0.3s0.5,0.1,0.8,0.4l2.1,2.1l0.6-0.6
		l-2.1-2.1c-0.3-0.3-0.6-0.5-0.9-0.6c-0.2-0.1-0.5-0.1-0.8,0s-0.5,0.2-0.8,0.5c-0.4,0.4-0.6,0.9-0.5,1.4l-1.6-1.6l-0.6,0.6l4.6,4.5
		L144.9,183.5L144.9,183.5z M149.2,178.1c0,0.3-0.2,0.5-0.4,0.7c-0.3,0.3-0.6,0.4-1,0.4s-0.8-0.2-1.1-0.5l2.5-2.4
		c-0.1-0.1-0.1-0.1-0.1-0.2c-0.5-0.5-1.1-0.8-1.7-0.8c-0.6,0-1.1,0.2-1.5,0.6c-0.5,0.5-0.7,1-0.7,1.6s0.3,1.2,0.9,1.7
		c0.5,0.5,1.1,0.8,1.7,0.8c0.6,0,1.1-0.2,1.6-0.7c0.4-0.4,0.6-0.8,0.7-1.2c0.1-0.4,0-0.9-0.3-1.3l-0.7,0.5
		C149.2,177.5,149.3,177.8,149.2,178.1L149.2,178.1z M145.9,177.2c0-0.3,0.1-0.6,0.4-0.9c0.3-0.3,0.6-0.4,1-0.4
		c0.3,0,0.5,0.2,0.8,0.4l-1.9,1.8C146,177.9,145.9,177.5,145.9,177.2L145.9,177.2z M152,176.5l-1.7-1.7c-0.2-0.2-0.4-0.5-0.6-0.7
		c-0.1-0.2-0.1-0.3-0.1-0.5s0.1-0.3,0.2-0.4c0.1-0.1,0.3-0.2,0.5-0.3l-0.3-0.7c-0.3,0.1-0.6,0.2-0.8,0.4c-0.1,0.1-0.2,0.3-0.2,0.5
		s0,0.5,0.1,0.8l-0.5-0.5l-0.5,0.5l3.3,3.3L152,176.5L152,176.5z"/>
	<path d="M154.3,207.9l-1.6-1.6c0.2,0,0.4,0,0.7-0.1c0.2-0.1,0.4-0.2,0.6-0.4c0.3-0.3,0.4-0.6,0.5-0.9c0.1-0.4,0.1-0.8-0.1-1.1
		c-0.2-0.4-0.4-0.8-0.7-1.1c-0.3-0.3-0.7-0.5-1-0.7c-0.4-0.2-0.7-0.2-1.1-0.1c-0.4,0.1-0.7,0.2-1,0.5c-0.2,0.2-0.4,0.4-0.4,0.7
		c-0.1,0.2-0.1,0.5,0,0.8l-0.4-0.4l-0.5,0.5l4.6,4.5L154.3,207.9L154.3,207.9z M150.6,203.8c0-0.4,0.1-0.7,0.3-1
		c0.2-0.2,0.6-0.3,0.9-0.3c0.4,0,0.8,0.3,1.2,0.7c0.4,0.4,0.7,0.9,0.7,1.2c0,0.4-0.1,0.7-0.3,0.9c-0.2,0.2-0.6,0.3-0.9,0.3
		s-0.8-0.3-1.2-0.7C150.9,204.6,150.7,204.2,150.6,203.8L150.6,203.8z M157.4,201.2c0,0.3-0.2,0.5-0.4,0.7c-0.3,0.3-0.6,0.4-1,0.4
		s-0.8-0.2-1.1-0.5l2.5-2.4c-0.1-0.1-0.1-0.1-0.1-0.2c-0.5-0.5-1.1-0.8-1.7-0.8c-0.6,0-1.1,0.2-1.5,0.6c-0.5,0.5-0.7,1-0.7,1.6
		s0.3,1.2,0.9,1.7c0.5,0.5,1.1,0.8,1.7,0.8c0.6,0,1.1-0.2,1.6-0.7c0.4-0.4,0.6-0.8,0.7-1.2c0.1-0.4,0-0.9-0.3-1.3l-0.7,0.5
		C157.4,200.7,157.4,201,157.4,201.2L157.4,201.2z M154.1,200.3c0-0.3,0.1-0.6,0.4-0.9c0.3-0.3,0.6-0.4,1-0.4c0.3,0,0.5,0.2,0.8,0.4
		l-1.9,1.8C154.2,201,154.1,200.7,154.1,200.3L154.1,200.3z M160.1,199.6l-1.8-1.8c-0.4-0.4-0.6-0.8-0.6-1.1c0-0.3,0.2-0.6,0.4-0.8
		c0.2-0.1,0.3-0.2,0.5-0.3c0.2,0,0.3,0,0.5,0c0.2,0.1,0.4,0.2,0.6,0.4l2,2l0.6-0.6l-2-2c-0.3-0.3-0.5-0.4-0.6-0.5
		c-0.2-0.1-0.4-0.2-0.6-0.2c-0.2,0-0.4,0-0.7,0.1c-0.2,0.1-0.5,0.2-0.7,0.4c-0.5,0.5-0.6,1-0.5,1.6l-0.5-0.5l-0.5,0.5l3.3,3.3
		L160.1,199.6L160.1,199.6z M165.8,194l-3.3-3.3l-0.6,0.6l1.8,1.8c0.3,0.3,0.5,0.5,0.6,0.7s0.1,0.4,0,0.7c-0.1,0.2-0.2,0.4-0.3,0.6
		s-0.4,0.3-0.6,0.3c-0.2,0-0.4,0-0.6-0.1c-0.1-0.1-0.3-0.3-0.6-0.6l-1.8-1.8l-0.6,0.6l2.1,2c0.2,0.2,0.4,0.4,0.6,0.5
		c0.2,0.1,0.4,0.2,0.6,0.2c0.2,0,0.4,0,0.7-0.1c0.2-0.1,0.5-0.2,0.7-0.4c0.4-0.4,0.6-1,0.5-1.6l0.5,0.5L165.8,194L165.8,194z
		 M167.2,192.6l-4.6-4.5l-0.6,0.6l4.6,4.5L167.2,192.6L167.2,192.6z M168.6,190.3c-0.1,0.1-0.2,0.1-0.2,0.1c-0.1,0-0.1,0-0.2,0
		c-0.1,0-0.2-0.1-0.3-0.3l-1.9-1.9l0.6-0.6l-0.4-0.4l-0.6,0.6l-1.2-1.1l-0.2,0.9l0.8,0.8l-0.4,0.4l0.4,0.4l0.4-0.4l1.9,1.9
		c0.3,0.3,0.6,0.5,0.7,0.6c0.2,0.1,0.3,0.1,0.5,0c0.2,0,0.4-0.2,0.6-0.4c0.1-0.1,0.2-0.3,0.4-0.5l-0.6-0.4
		C168.7,190.1,168.7,190.2,168.6,190.3L168.6,190.3L168.6,190.3z M166.5,185.5l-0.6-0.6l-0.6,0.6l0.6,0.6L166.5,185.5L166.5,185.5z
		 M170.5,189.4l-3.3-3.3l-0.6,0.6l3.3,3.3L170.5,189.4L170.5,189.4z M171.9,188l-1.7-1.7c-0.3-0.3-0.5-0.6-0.6-0.8s-0.1-0.4-0.1-0.7
		c0.1-0.2,0.2-0.4,0.3-0.6c0.2-0.2,0.4-0.3,0.6-0.3c0.2,0,0.5,0.2,0.7,0.4l2.2,2.1l0.6-0.6l-1.9-1.9c-0.3-0.3-0.5-0.7-0.5-1
		s0.1-0.6,0.3-0.8c0.1-0.1,0.3-0.2,0.4-0.2c0.2,0,0.3,0,0.4,0c0.1,0.1,0.3,0.2,0.5,0.4l2.1,2.1l0.6-0.6l-2.3-2.3
		c-0.4-0.4-0.7-0.6-1.1-0.6c-0.4,0-0.7,0.2-1,0.5c-0.4,0.4-0.6,0.9-0.4,1.6c-0.2-0.1-0.5-0.1-0.8-0.1c-0.3,0.1-0.5,0.2-0.8,0.4
		c-0.2,0.2-0.4,0.5-0.4,0.7c-0.1,0.3-0.1,0.5,0,0.8l-0.5-0.5l-0.5,0.5l3.3,3.3L171.9,188L171.9,188z M178.9,181l0.6-0.6
		c-0.2-0.1-0.4-0.1-0.5-0.3s-0.5-0.4-1-0.9l-0.8-0.7c-0.3-0.2-0.4-0.4-0.5-0.5c-0.2-0.1-0.4-0.2-0.6-0.2c-0.2,0-0.4,0-0.6,0.1
		c-0.2,0.1-0.5,0.3-0.8,0.6s-0.5,0.6-0.6,0.9c-0.1,0.3-0.2,0.6-0.2,0.8c0,0.3,0.1,0.5,0.3,0.8l0.6-0.5c-0.2-0.3-0.2-0.5-0.2-0.8
		c0-0.2,0.2-0.5,0.4-0.7c0.3-0.3,0.6-0.4,0.8-0.4s0.4,0.1,0.6,0.3l0.1,0.1c-0.1,0.3-0.4,0.7-0.8,1.2c-0.2,0.2-0.3,0.4-0.4,0.6
		c-0.1,0.2-0.2,0.4-0.2,0.6c0,0.2,0,0.4,0,0.6c0.1,0.2,0.2,0.4,0.3,0.5c0.3,0.3,0.6,0.4,1,0.4s0.7-0.2,1.1-0.6
		c0.2-0.2,0.4-0.5,0.5-0.7c0.1-0.3,0.2-0.6,0.2-1C178.6,180.9,178.7,181,178.9,181L178.9,181L178.9,181z M177.3,179.7
		c0.2,0.2,0.4,0.5,0.5,0.6c0.1,0.2,0.1,0.5,0,0.8s-0.2,0.5-0.4,0.7s-0.4,0.3-0.6,0.3c-0.2,0-0.4-0.1-0.5-0.2
		c-0.1-0.1-0.2-0.2-0.2-0.3s0-0.3,0-0.4c0.1-0.1,0.2-0.3,0.4-0.6c0.4-0.5,0.6-0.8,0.7-1.1L177.3,179.7L177.3,179.7z M180.7,178.3
		c-0.1,0.1-0.2,0.1-0.2,0.1c-0.1,0-0.1,0-0.2,0c-0.1,0-0.2-0.1-0.3-0.3l-1.9-1.9l0.6-0.6l-0.4-0.4l-0.6,0.6l-1.2-1.1l-0.2,0.9
		l0.8,0.8l-0.4,0.4l0.4,0.4l0.4-0.4l1.9,1.9c0.3,0.3,0.6,0.5,0.7,0.6c0.2,0.1,0.3,0.1,0.5,0c0.2,0,0.4-0.2,0.6-0.4
		c0.1-0.1,0.2-0.3,0.4-0.5L181,178C180.8,178.2,180.8,178.2,180.7,178.3L180.7,178.3L180.7,178.3z"/>
	<path d="M183.4,175.6c0,0.3-0.2,0.5-0.4,0.7c-0.3,0.3-0.6,0.4-1,0.4s-0.8-0.2-1.1-0.5l2.5-2.4c-0.1-0.1-0.1-0.1-0.1-0.2
		c-0.5-0.5-1.1-0.8-1.7-0.8c-0.6,0-1.1,0.2-1.5,0.6c-0.5,0.5-0.7,1-0.7,1.6s0.3,1.2,0.9,1.7c0.5,0.5,1.1,0.8,1.7,0.8
		c0.6,0,1.1-0.2,1.6-0.7c0.4-0.4,0.6-0.8,0.7-1.2c0.1-0.4,0-0.9-0.3-1.3l-0.7,0.5C183.3,175,183.4,175.3,183.4,175.6L183.4,175.6z
		 M180,174.7c0-0.3,0.1-0.6,0.4-0.9c0.3-0.3,0.6-0.4,1-0.4c0.3,0,0.5,0.2,0.8,0.4l-1.9,1.8C180.2,175.3,180,175,180,174.7L180,174.7
		z"/>
	<path d="M207.3,184.2l-4.6-4.5l-0.6,0.6l4.6,4.5L207.3,184.2L207.3,184.2z M210.4,181.1l0.6-0.6c-0.2-0.1-0.4-0.1-0.5-0.3
		s-0.5-0.4-1-0.9l-0.8-0.7c-0.3-0.2-0.4-0.4-0.5-0.5c-0.2-0.1-0.4-0.2-0.6-0.2s-0.4,0-0.6,0.1c-0.2,0.1-0.5,0.3-0.8,0.6
		s-0.5,0.6-0.6,0.9c-0.1,0.3-0.2,0.6-0.2,0.8c0,0.3,0.1,0.5,0.3,0.8l0.6-0.5c-0.2-0.3-0.2-0.5-0.2-0.8c0-0.2,0.2-0.5,0.4-0.7
		c0.3-0.3,0.6-0.4,0.8-0.4c0.2,0,0.4,0.1,0.6,0.3l0.1,0.1c-0.1,0.3-0.4,0.7-0.8,1.2c-0.2,0.2-0.3,0.4-0.4,0.6
		c-0.1,0.2-0.2,0.4-0.2,0.6c0,0.2,0,0.4,0,0.6c0.1,0.2,0.2,0.4,0.3,0.5c0.3,0.3,0.6,0.4,1,0.4s0.7-0.2,1.1-0.6
		c0.2-0.2,0.4-0.5,0.5-0.7c0.1-0.3,0.2-0.6,0.2-1C210.1,180.9,210.2,181,210.4,181.1L210.4,181.1L210.4,181.1z M208.8,179.8
		c0.2,0.2,0.4,0.5,0.5,0.6c0.1,0.2,0.1,0.5,0,0.8s-0.2,0.5-0.4,0.7c-0.2,0.2-0.4,0.3-0.6,0.3s-0.4-0.1-0.5-0.2
		c-0.1-0.1-0.2-0.2-0.2-0.3s0-0.3,0-0.4c0.1-0.1,0.2-0.3,0.4-0.6c0.4-0.5,0.6-0.8,0.7-1.1L208.8,179.8L208.8,179.8z M211.7,179.4
		c0.4,0,0.8-0.3,1.3-0.7c0.3-0.3,0.4-0.5,0.6-0.8c0.1-0.3,0.1-0.6,0.1-0.8c-0.1-0.3-0.2-0.5-0.4-0.7c-0.2-0.2-0.4-0.3-0.6-0.3
		s-0.4,0-0.7,0.1c-0.2,0.1-0.6,0.3-1.1,0.6c-0.4,0.2-0.6,0.3-0.6,0.3c-0.1,0.1-0.3,0.1-0.4,0.1s-0.2-0.1-0.3-0.1
		c-0.1-0.1-0.2-0.3-0.1-0.5c0-0.2,0.2-0.4,0.4-0.7c0.2-0.2,0.4-0.3,0.7-0.4c0.2,0,0.4,0,0.6,0.2l0.5-0.6c-0.3-0.2-0.5-0.3-0.7-0.3
		s-0.5,0-0.7,0.1s-0.5,0.3-0.8,0.6c-0.2,0.2-0.3,0.4-0.4,0.5c-0.1,0.2-0.2,0.4-0.2,0.5c0,0.2,0,0.4,0,0.6c0.1,0.2,0.2,0.4,0.3,0.5
		c0.2,0.2,0.4,0.3,0.6,0.3c0.2,0.1,0.4,0,0.7,0c0.2-0.1,0.6-0.3,1.1-0.6c0.4-0.2,0.6-0.4,0.8-0.4c0.2,0,0.3,0,0.5,0.1
		c0.1,0.1,0.2,0.3,0.2,0.6c0,0.2-0.2,0.5-0.4,0.7c-0.3,0.3-0.5,0.4-0.8,0.4s-0.5-0.1-0.8-0.2l-0.5,0.6
		C210.9,179.3,211.3,179.5,211.7,179.4L211.7,179.4z"/>
	<path d="M215.4,175.2c-0.1,0.1-0.2,0.1-0.2,0.1c-0.1,0-0.1,0-0.2,0s-0.2-0.1-0.3-0.3l-1.9-1.9l0.6-0.6l-0.4-0.4l-0.6,0.6l-1.2-1.1
		l-0.2,0.9l0.8,0.8l-0.4,0.4l0.4,0.4l0.4-0.4l1.9,1.9c0.3,0.3,0.6,0.5,0.7,0.6c0.2,0.1,0.3,0.1,0.5,0c0.2,0,0.4-0.2,0.6-0.4
		c0.1-0.1,0.2-0.3,0.4-0.5l-0.6-0.4C215.5,175.1,215.4,175.1,215.4,175.2L215.4,175.2L215.4,175.2z"/>
	<line class="st2" x1="72.2" y1="166.2" x2="72.2" y2="62.3"/>
	<path class="st3" d="M68.9,166.2h3.4 M68.9,145.4h3.4 M68.9,124.6h3.4 M68.9,103.8h3.4 M68.9,83.1h3.4 M68.9,62.3h3.4"/>
	<path d="M56.1,168.4c0.4,0.4,0.8,0.7,1.5,0.7c0.5,0,0.9-0.1,1.2-0.4c0.3-0.3,0.5-0.6,0.7-1.1s0.2-1.1,0.2-1.8c0-0.6,0-1.1-0.1-1.5
		s-0.2-0.7-0.4-1c-0.2-0.3-0.4-0.5-0.6-0.6c-0.3-0.1-0.6-0.2-0.9-0.2c-0.5,0-0.9,0.1-1.2,0.4c-0.3,0.3-0.5,0.6-0.7,1.1
		s-0.2,1.1-0.2,1.8C55.5,167,55.7,167.9,56.1,168.4L56.1,168.4L56.1,168.4z M56.7,163.6c0.2-0.3,0.5-0.5,0.9-0.5s0.7,0.2,0.9,0.5
		c0.2,0.3,0.4,1.1,0.4,2.1c0,1.1-0.1,1.8-0.4,2.1c-0.2,0.4-0.6,0.5-0.9,0.5c-0.4,0-0.7-0.2-0.9-0.5c-0.2-0.4-0.4-1.1-0.4-2.1
		C56.3,164.7,56.4,164,56.7,163.6L56.7,163.6L56.7,163.6z M61.8,169v-0.9h-0.9v0.9H61.8L61.8,169z"/>
	<path d="M63.6,168.4c0.4,0.4,0.8,0.7,1.5,0.7c0.5,0,0.9-0.1,1.2-0.4c0.3-0.3,0.5-0.6,0.7-1.1s0.2-1.1,0.2-1.8c0-0.6,0-1.1-0.1-1.5
		s-0.2-0.7-0.4-1c-0.2-0.3-0.4-0.5-0.6-0.6c-0.3-0.1-0.6-0.2-0.9-0.2c-0.5,0-0.9,0.1-1.2,0.4c-0.3,0.3-0.5,0.6-0.7,1.1
		s-0.2,1.1-0.2,1.8C63,167,63.2,167.9,63.6,168.4L63.6,168.4L63.6,168.4z M64.2,163.6c0.2-0.3,0.5-0.5,0.9-0.5s0.7,0.2,0.9,0.5
		c0.2,0.3,0.4,1.1,0.4,2.1c0,1.1-0.1,1.8-0.4,2.1c-0.2,0.4-0.6,0.5-0.9,0.5c-0.4,0-0.7-0.2-0.9-0.5c-0.2-0.4-0.4-1.1-0.4-2.1
		C63.8,164.7,63.9,164,64.2,163.6L64.2,163.6L64.2,163.6z"/>
	<path d="M56.1,147.6c0.4,0.4,0.8,0.7,1.5,0.7c0.5,0,0.9-0.1,1.2-0.4c0.3-0.3,0.5-0.6,0.7-1.1s0.2-1.1,0.2-1.8c0-0.6,0-1.1-0.1-1.5
		s-0.2-0.7-0.4-1c-0.2-0.3-0.4-0.5-0.6-0.6c-0.3-0.1-0.6-0.2-0.9-0.2c-0.5,0-0.9,0.1-1.2,0.4c-0.3,0.3-0.5,0.6-0.7,1.1
		s-0.2,1.1-0.2,1.8C55.5,146.2,55.7,147.1,56.1,147.6L56.1,147.6L56.1,147.6z M56.7,142.8c0.2-0.3,0.5-0.5,0.9-0.5s0.7,0.2,0.9,0.5
		c0.2,0.3,0.4,1.1,0.4,2.1c0,1.1-0.1,1.8-0.4,2.1c-0.2,0.4-0.6,0.5-0.9,0.5c-0.4,0-0.7-0.2-0.9-0.5c-0.2-0.4-0.4-1.1-0.4-2.1
		C56.3,143.9,56.4,143.2,56.7,142.8L56.7,142.8L56.7,142.8z M61.8,148.2v-0.9h-0.9v0.9H61.8L61.8,148.2z"/>
	<path d="M65.9,141.7h-0.5c-0.1,0.3-0.4,0.6-0.7,0.9c-0.3,0.3-0.7,0.5-1.2,0.8v0.8c0.2-0.1,0.5-0.2,0.8-0.4s0.6-0.4,0.7-0.5v5h0.8
		L65.9,141.7L65.9,141.7z"/>
	<path d="M56.1,126.8c0.4,0.4,0.8,0.7,1.5,0.7c0.5,0,0.9-0.1,1.2-0.4c0.3-0.3,0.5-0.6,0.7-1.1s0.2-1.1,0.2-1.8c0-0.6,0-1.1-0.1-1.5
		s-0.2-0.7-0.4-1c-0.2-0.3-0.4-0.5-0.6-0.6c-0.3-0.1-0.6-0.2-0.9-0.2c-0.5,0-0.9,0.1-1.2,0.4c-0.3,0.3-0.5,0.6-0.7,1.1
		s-0.2,1.1-0.2,1.8C55.5,125.4,55.7,126.3,56.1,126.8L56.1,126.8L56.1,126.8z M56.7,122c0.2-0.3,0.5-0.5,0.9-0.5s0.7,0.2,0.9,0.5
		c0.2,0.3,0.4,1.1,0.4,2.1c0,1.1-0.1,1.8-0.4,2.1c-0.2,0.4-0.6,0.5-0.9,0.5c-0.4,0-0.7-0.2-0.9-0.5c-0.2-0.4-0.4-1.1-0.4-2.1
		C56.3,123.2,56.4,122.4,56.7,122L56.7,122L56.7,122z M61.8,127.4v-0.9h-0.9v0.9H61.8L61.8,127.4z"/>
	<path d="M64,126.6c0.1-0.1,0.2-0.3,0.3-0.4c0.1-0.1,0.4-0.4,0.9-0.8c0.6-0.5,1-0.9,1.2-1.1c0.2-0.3,0.4-0.5,0.5-0.8
		c0.1-0.2,0.2-0.5,0.2-0.8c0-0.5-0.2-0.9-0.5-1.3s-0.8-0.5-1.5-0.5c-0.6,0-1.1,0.2-1.5,0.5s-0.6,0.8-0.6,1.4l0.8,0.1
		c0-0.4,0.1-0.7,0.3-0.9s0.5-0.3,0.9-0.3s0.7,0.1,0.9,0.3s0.3,0.5,0.3,0.8s-0.1,0.6-0.4,1c-0.2,0.3-0.7,0.8-1.4,1.4
		c-0.5,0.4-0.8,0.7-1,1s-0.4,0.6-0.5,0.9c-0.1,0.2-0.1,0.4-0.1,0.5h4.3v-0.8H64V126.6z"/>
	<path d="M56.1,106c0.4,0.4,0.8,0.7,1.5,0.7c0.5,0,0.9-0.1,1.2-0.4c0.3-0.3,0.5-0.6,0.7-1.1s0.2-1.1,0.2-1.8c0-0.6,0-1.1-0.1-1.5
		s-0.2-0.7-0.4-1c-0.2-0.3-0.4-0.5-0.6-0.6c-0.3-0.1-0.6-0.2-0.9-0.2c-0.5,0-0.9,0.1-1.2,0.4c-0.3,0.3-0.5,0.6-0.7,1.1
		s-0.2,1.1-0.2,1.8C55.5,104.6,55.7,105.5,56.1,106L56.1,106L56.1,106z M56.7,101.3c0.2-0.3,0.5-0.5,0.9-0.5s0.7,0.2,0.9,0.5
		c0.2,0.3,0.4,1.1,0.4,2.1c0,1.1-0.1,1.8-0.4,2.1c-0.2,0.4-0.6,0.5-0.9,0.5c-0.4,0-0.7-0.2-0.9-0.5c-0.2-0.4-0.4-1.1-0.4-2.1
		C56.3,102.4,56.4,101.6,56.7,101.3L56.7,101.3L56.7,101.3z M61.8,106.6v-0.9h-0.9v0.9H61.8L61.8,106.6z"/>
	<path d="M63.6,106.2c0.4,0.3,0.8,0.5,1.4,0.5s1.1-0.2,1.6-0.6c0.4-0.4,0.6-0.9,0.6-1.4c0-0.4-0.1-0.8-0.3-1s-0.5-0.5-0.9-0.5
		c0.3-0.1,0.5-0.3,0.7-0.5s0.2-0.5,0.2-0.8s-0.1-0.6-0.2-0.8c-0.2-0.3-0.4-0.5-0.7-0.6c-0.3-0.2-0.6-0.2-1-0.2
		c-0.5,0-0.9,0.1-1.3,0.4c-0.3,0.3-0.6,0.7-0.7,1.2l0.8,0.1c0.1-0.4,0.2-0.7,0.4-0.9c0.2-0.2,0.5-0.3,0.8-0.3s0.6,0.1,0.8,0.3
		c0.2,0.2,0.3,0.4,0.3,0.7c0,0.4-0.1,0.6-0.4,0.8s-0.6,0.3-0.9,0.3h-0.1l-0.1,0.7c0.2-0.1,0.4-0.1,0.6-0.1c0.4,0,0.7,0.1,0.9,0.4
		c0.2,0.2,0.4,0.5,0.4,0.9s-0.1,0.7-0.4,1s-0.6,0.4-0.9,0.4s-0.6-0.1-0.8-0.3c-0.2-0.2-0.4-0.5-0.5-1l-0.8,0.1
		C63,105.4,63.2,105.9,63.6,106.2L63.6,106.2z"/>
	<path d="M56.1,85.3c0.4,0.4,0.8,0.7,1.5,0.7c0.5,0,0.9-0.1,1.2-0.4c0.3-0.3,0.5-0.6,0.7-1.1s0.2-1.1,0.2-1.8c0-0.6,0-1.1-0.1-1.5
		s-0.2-0.7-0.4-1c-0.2-0.3-0.4-0.5-0.6-0.6c-0.3-0.1-0.6-0.2-0.9-0.2c-0.5,0-0.9,0.1-1.2,0.4c-0.3,0.3-0.5,0.6-0.7,1.1
		s-0.2,1.1-0.2,1.8C55.5,83.9,55.7,84.7,56.1,85.3L56.1,85.3L56.1,85.3z M56.7,80.5c0.2-0.3,0.5-0.5,0.9-0.5s0.7,0.2,0.9,0.5
		c0.2,0.3,0.4,1.1,0.4,2.1c0,1.1-0.1,1.8-0.4,2.1c-0.2,0.4-0.6,0.5-0.9,0.5c-0.4,0-0.7-0.2-0.9-0.5c-0.2-0.4-0.4-1.1-0.4-2.1
		C56.3,81.6,56.4,80.9,56.7,80.5L56.7,80.5L56.7,80.5z M61.8,85.8v-0.9h-0.9v0.9H61.8L61.8,85.8z"/>
	<path d="M66.3,85.8v-1.5h0.9v-0.7h-0.9v-4.2h-0.6l-2.9,4.2v0.7h2.8v1.5H66.3L66.3,85.8z M63.5,83.6l2-2.9v2.9H63.5L63.5,83.6z"/>
	<path d="M56.1,64.5c0.4,0.4,0.8,0.7,1.5,0.7c0.5,0,0.9-0.1,1.2-0.4c0.3-0.3,0.5-0.6,0.7-1.1s0.2-1.1,0.2-1.8c0-0.6,0-1.1-0.1-1.5
		s-0.2-0.7-0.4-1c-0.2-0.3-0.4-0.5-0.6-0.6c-0.3-0.1-0.6-0.2-0.9-0.2c-0.5,0-0.9,0.1-1.2,0.4c-0.3,0.3-0.5,0.6-0.7,1.1
		s-0.2,1.1-0.2,1.8C55.5,63.1,55.7,64,56.1,64.5L56.1,64.5L56.1,64.5z M56.7,59.7c0.2-0.3,0.5-0.5,0.9-0.5s0.7,0.2,0.9,0.5
		c0.2,0.3,0.4,1.1,0.4,2.1c0,1.1-0.1,1.8-0.4,2.1c-0.2,0.4-0.6,0.5-0.9,0.5c-0.4,0-0.7-0.2-0.9-0.5c-0.2-0.4-0.4-1.1-0.4-2.1
		C56.3,60.8,56.4,60.1,56.7,59.7L56.7,59.7L56.7,59.7z M61.8,65v-0.9h-0.9V65H61.8L61.8,65z"/>
	<path d="M63.6,64.7c0.4,0.3,0.8,0.5,1.4,0.5c0.7,0,1.3-0.3,1.7-0.8c0.3-0.4,0.5-0.9,0.5-1.5s-0.2-1.1-0.6-1.5s-0.9-0.6-1.4-0.6
		c-0.4,0-0.8,0.1-1.2,0.4l0.3-1.7h2.6v-0.8h-3.2L63.1,62l0.7,0.1c0.1-0.2,0.3-0.3,0.5-0.5c0.2-0.1,0.4-0.2,0.7-0.2
		c0.4,0,0.7,0.1,1,0.4s0.4,0.6,0.4,1.1S66.3,63.8,66,64c-0.3,0.3-0.6,0.4-1,0.4c-0.3,0-0.6-0.1-0.8-0.3c-0.2-0.2-0.4-0.5-0.4-0.9
		L63,63.3C63,63.9,63.2,64.3,63.6,64.7L63.6,64.7z"/>
	<path d="M125.3,211.3h-1.8l-3.3,8.6h1.8l0.7-2h3.4l0.8,2h1.9L125.3,211.3L125.3,211.3z M123.2,216.5l1.2-3.2l1.2,3.2H123.2
		L123.2,216.5z M135.3,219.9v-6.2h-1.6v2.6c0,0.9,0,1.5-0.1,1.7s-0.2,0.4-0.5,0.6c-0.2,0.2-0.5,0.2-0.8,0.2c-0.2,0-0.4-0.1-0.6-0.2
		c-0.2-0.1-0.3-0.3-0.3-0.5c-0.1-0.2-0.1-0.7-0.1-1.6v-2.9h-1.6v3.9c0,0.6,0.1,1,0.2,1.4c0.1,0.3,0.4,0.6,0.7,0.8
		c0.3,0.2,0.7,0.3,1.1,0.3c0.4,0,0.8-0.1,1.2-0.3s0.7-0.5,0.9-0.8v0.9h1.5L135.3,219.9L135.3,219.9z M138.7,213.6v-2.2l-1.7,1v1.2
		h-0.8v1.3h0.8v2.7c0,0.6,0,1,0.1,1.2c0,0.3,0.1,0.5,0.2,0.6s0.3,0.3,0.5,0.4s0.5,0.1,0.8,0.1c0.5,0,0.9-0.1,1.3-0.2l-0.1-1.3
		c-0.3,0.1-0.5,0.2-0.7,0.2c-0.1,0-0.2,0-0.3-0.1s-0.1-0.1-0.1-0.2s0-0.4,0-0.9v-2.5h1.1v-1.3L138.7,213.6L138.7,213.6z
		 M140.9,211.3v8.6h1.6v-3.1c0-0.5,0-0.9,0.1-1.2c0.1-0.3,0.3-0.5,0.5-0.6s0.5-0.2,0.7-0.2s0.4,0.1,0.6,0.2c0.2,0.1,0.3,0.2,0.3,0.4
		c0.1,0.2,0.1,0.6,0.1,1.2v3.3h1.6v-3.7c0-0.6,0-1-0.1-1.2c-0.1-0.3-0.2-0.5-0.3-0.7c-0.2-0.2-0.4-0.4-0.7-0.5s-0.6-0.2-1-0.2
		c-0.7,0-1.4,0.3-1.9,0.9v-3.2L140.9,211.3L140.9,211.3z M148.3,218.5c0.3,0.5,0.7,0.9,1.2,1.1c0.5,0.3,1.1,0.4,1.6,0.4
		c0.9,0,1.7-0.3,2.3-0.9s0.9-1.4,0.9-2.3s-0.3-1.7-0.9-2.3c-0.6-0.6-1.4-0.9-2.3-0.9c-0.6,0-1.2,0.1-1.7,0.4s-0.9,0.7-1.1,1.2
		c-0.3,0.5-0.4,1-0.4,1.6C147.9,217.4,148,218,148.3,218.5L148.3,218.5z M150,215.3c0.3-0.3,0.7-0.5,1.1-0.5c0.4,0,0.8,0.2,1.1,0.5
		s0.4,0.8,0.4,1.4s-0.1,1.1-0.4,1.4c-0.3,0.3-0.7,0.5-1.1,0.5c-0.4,0-0.8-0.2-1.1-0.5s-0.4-0.8-0.4-1.4
		C149.6,216.1,149.7,215.7,150,215.3L150,215.3z M157.2,217.9c0-1.1,0-1.8,0.1-2.1c0.1-0.3,0.2-0.6,0.4-0.7s0.4-0.2,0.6-0.2
		c0.2,0,0.5,0.1,0.8,0.3l0.5-1.4c-0.3-0.2-0.7-0.3-1.1-0.3c-0.3,0-0.5,0.1-0.7,0.2s-0.4,0.4-0.7,0.8v-0.9h-1.5v6.2h1.6L157.2,217.9
		L157.2,217.9z M165.4,219.9v-3.2h1.1c0.8,0,1.4,0,1.8-0.1c0.3-0.1,0.6-0.2,0.9-0.4c0.3-0.2,0.5-0.5,0.7-0.8
		c0.2-0.4,0.3-0.8,0.3-1.3c0-0.7-0.2-1.2-0.5-1.7c-0.3-0.4-0.7-0.7-1.2-0.8c-0.3-0.1-1-0.1-2.1-0.1h-2.8v8.6h1.8V219.9z
		 M166.2,212.7c0.6,0,1,0,1.2,0.1c0.3,0.1,0.5,0.2,0.7,0.4c0.2,0.2,0.3,0.5,0.3,0.8s-0.1,0.5-0.2,0.7c-0.1,0.2-0.3,0.3-0.5,0.4
		s-0.7,0.1-1.4,0.1h-0.9v-2.4h0.8L166.2,212.7L166.2,212.7z M171.6,218.5c0.3,0.5,0.7,0.9,1.2,1.1c0.5,0.3,1.1,0.4,1.6,0.4
		c0.9,0,1.7-0.3,2.3-0.9s0.9-1.4,0.9-2.3s-0.3-1.7-0.9-2.3c-0.6-0.6-1.4-0.9-2.3-0.9c-0.6,0-1.2,0.1-1.7,0.4s-0.9,0.7-1.1,1.2
		c-0.3,0.5-0.4,1-0.4,1.6C171.2,217.4,171.4,218,171.6,218.5L171.6,218.5z M173.4,215.3c0.3-0.3,0.7-0.5,1.1-0.5
		c0.4,0,0.8,0.2,1.1,0.5s0.4,0.8,0.4,1.4s-0.1,1.1-0.4,1.4c-0.3,0.3-0.7,0.5-1.1,0.5c-0.4,0-0.8-0.2-1.1-0.5s-0.4-0.8-0.4-1.4
		C172.9,216.1,173.1,215.7,173.4,215.3L173.4,215.3z M179.3,219.5c0.5,0.3,1.2,0.5,2,0.5c0.9,0,1.6-0.2,2.1-0.6s0.7-0.9,0.7-1.5
		c0-0.5-0.2-0.9-0.5-1.2c-0.3-0.3-1-0.5-1.8-0.7c-0.9-0.2-1.4-0.4-1.5-0.5s-0.2-0.2-0.2-0.3c0-0.1,0.1-0.2,0.2-0.3
		c0.2-0.1,0.5-0.2,0.9-0.2c0.3,0,0.6,0.1,0.8,0.2s0.3,0.3,0.4,0.6l1.6-0.3c-0.2-0.5-0.4-1-0.9-1.2c-0.4-0.3-1-0.4-1.9-0.4
		s-1.6,0.2-2,0.6s-0.6,0.8-0.6,1.4s0.2,1.1,0.7,1.4c0.4,0.2,1.2,0.5,2.5,0.8c0.3,0.1,0.5,0.1,0.6,0.2s0.1,0.2,0.1,0.3
		c0,0.2-0.1,0.3-0.2,0.4c-0.2,0.2-0.5,0.2-1,0.2c-0.4,0-0.7-0.1-0.9-0.2c-0.2-0.2-0.4-0.4-0.4-0.7l-1.7,0.3
		C178.5,218.7,178.8,219.1,179.3,219.5L179.3,219.5z M187.3,212.8v-1.5h-1.6v1.5H187.3L187.3,212.8z M187.3,219.9v-6.2h-1.6v6.2
		H187.3L187.3,219.9z M190.7,213.6v-2.2l-1.7,1v1.2h-0.8v1.3h0.8v2.7c0,0.6,0,1,0.1,1.2c0,0.3,0.1,0.5,0.2,0.6s0.3,0.3,0.5,0.4
		s0.5,0.1,0.8,0.1c0.5,0,0.9-0.1,1.3-0.2l-0.1-1.3c-0.3,0.1-0.5,0.2-0.7,0.2c-0.1,0-0.2,0-0.3-0.1s-0.1-0.1-0.1-0.2s0-0.4,0-0.9
		v-2.5h1.1v-1.3L190.7,213.6L190.7,213.6z M194.6,212.8v-1.5H193v1.5H194.6L194.6,212.8z M194.6,219.9v-6.2H193v6.2H194.6
		L194.6,219.9z M196.3,218.5c0.3,0.5,0.7,0.9,1.2,1.1c0.5,0.3,1.1,0.4,1.6,0.4c0.9,0,1.7-0.3,2.3-0.9s0.9-1.4,0.9-2.3
		s-0.3-1.7-0.9-2.3c-0.6-0.6-1.4-0.9-2.3-0.9c-0.6,0-1.2,0.1-1.7,0.4s-0.9,0.7-1.1,1.2c-0.3,0.5-0.4,1-0.4,1.6
		C195.9,217.4,196,218,196.3,218.5L196.3,218.5z M198,215.3c0.3-0.3,0.7-0.5,1.1-0.5c0.4,0,0.8,0.2,1.1,0.5s0.4,0.8,0.4,1.4
		s-0.1,1.1-0.4,1.4c-0.3,0.3-0.7,0.5-1.1,0.5c-0.4,0-0.8-0.2-1.1-0.5s-0.4-0.8-0.4-1.4C197.6,216.1,197.7,215.7,198,215.3L198,215.3
		z M209.3,216c0-0.5,0-0.8-0.1-1.1c-0.1-0.3-0.2-0.5-0.3-0.7c-0.2-0.2-0.4-0.4-0.7-0.5c-0.3-0.1-0.6-0.2-1-0.2
		c-0.8,0-1.5,0.4-2.1,1.1v-0.9h-1.5v6.2h1.6V217c0-0.7,0-1.2,0.1-1.4c0.1-0.3,0.2-0.5,0.5-0.6c0.2-0.2,0.5-0.2,0.8-0.2
		c0.2,0,0.4,0.1,0.6,0.2c0.2,0.1,0.3,0.3,0.3,0.5c0.1,0.2,0.1,0.6,0.1,1.3v3.2h1.6v-4H209.3z"/>
	<path d="M50.1,130.9h-3.2v-1.1c0-0.8,0-1.4-0.1-1.8c-0.1-0.3-0.2-0.6-0.4-0.9c-0.2-0.3-0.5-0.5-0.8-0.7c-0.4-0.2-0.8-0.3-1.3-0.3
		c-0.7,0-1.2,0.2-1.7,0.5c-0.4,0.3-0.7,0.7-0.8,1.2c-0.1,0.3-0.1,1-0.1,2.1v2.8h8.6v-1.8H50.1z M43,130.1c0-0.6,0-1,0.1-1.2
		c0.1-0.3,0.2-0.5,0.4-0.7c0.2-0.2,0.5-0.3,0.8-0.3s0.5,0.1,0.7,0.2c0.2,0.1,0.3,0.3,0.4,0.5s0.1,0.7,0.1,1.4v0.9H43V130.1L43,130.1
		z M51,122.6c-0.6,0.2-1.2,0.4-1.9,0.5c-0.7,0.1-1.3,0.2-2,0.2c-0.9,0-1.8-0.1-2.6-0.3c-0.8-0.2-1.8-0.6-3-1.1v1.1
		c0.7,0.5,1.5,0.9,2.4,1.3c1,0.4,2.1,0.6,3.2,0.6c0.9,0,1.9-0.2,2.8-0.5c1-0.3,1.9-0.8,2.8-1.4v-1.1C51.9,122.3,51.4,122.5,51,122.6
		L51,122.6L51,122.6z M45.2,121.4v-0.9h4.9v-1.6h-4.9v-1.2h-1.3v1.2h-0.4c-0.3,0-0.5-0.1-0.6-0.2c-0.1-0.1-0.2-0.3-0.2-0.5
		s0-0.5,0.1-0.8l-1.1-0.2c-0.1,0.4-0.2,0.9-0.2,1.4s0.1,0.8,0.2,1.1c0.2,0.3,0.4,0.5,0.6,0.6s0.6,0.2,1.2,0.2H44v0.9H45.2
		L45.2,121.4z M48.8,113.5c0.1,0.2,0.2,0.4,0.2,0.7c0,0.4-0.1,0.7-0.4,0.9c-0.3,0.3-0.7,0.4-1.1,0.4v-4.1c-1.3,0-2.2,0.2-2.8,0.8
		c-0.6,0.5-0.9,1.3-0.9,2.2c0,0.8,0.3,1.5,0.9,2s1.4,0.8,2.4,0.8c0.9,0,1.6-0.2,2.1-0.6c0.7-0.5,1.1-1.3,1.1-2.4
		c0-0.7-0.2-1.3-0.5-1.7c-0.3-0.5-0.8-0.8-1.4-1l-0.3,1.6C48.5,113.1,48.7,113.3,48.8,113.5L48.8,113.5z M46.5,115.4
		c-0.4,0-0.8-0.1-1.1-0.3c-0.3-0.2-0.4-0.5-0.4-0.9c0-0.3,0.1-0.6,0.4-0.9c0.2-0.2,0.6-0.4,1.1-0.4V115.4L46.5,115.4z M50.1,110.1
		v-1.6h-3c-0.6,0-1,0-1.3-0.1s-0.5-0.2-0.6-0.4s-0.2-0.4-0.2-0.7c0-0.2,0-0.4,0.1-0.5s0.2-0.2,0.4-0.3s0.6-0.1,1.2-0.1h3.4v-1.6h-3
		c-0.6,0-1,0-1.3-0.1s-0.5-0.2-0.6-0.4s-0.2-0.4-0.2-0.7s0.1-0.6,0.4-0.7c0.2-0.1,0.6-0.2,1.2-0.2h3.6V101h-4c-0.6,0-1,0.1-1.3,0.2
		c-0.4,0.2-0.6,0.4-0.8,0.7c-0.2,0.3-0.3,0.7-0.3,1.2c0,0.4,0.1,0.7,0.2,1s0.4,0.6,0.7,0.9c-0.3,0.2-0.6,0.4-0.7,0.7s-0.2,0.6-0.2,1
		c0,0.8,0.3,1.4,1,1.9H44v1.5L50.1,110.1L50.1,110.1z M45.2,97.7C45.1,97.5,45,97.3,45,97c0-0.4,0.1-0.7,0.2-0.9s0.4-0.2,0.7-0.2
		h0.2c0.1,0.3,0.3,0.8,0.4,1.6c0.1,0.6,0.2,1,0.4,1.3c0.1,0.3,0.4,0.5,0.6,0.7c0.3,0.2,0.6,0.3,0.9,0.3c0.5,0,1-0.2,1.3-0.6
		c0.3-0.4,0.5-0.9,0.5-1.5c0-0.4-0.1-0.7-0.2-1s-0.3-0.6-0.6-0.9c0,0,0.1,0,0.2-0.1c0.2-0.1,0.4-0.1,0.5-0.2v-1.6
		c-0.3,0.1-0.6,0.2-0.8,0.3c-0.3,0.1-0.7,0.1-1.2,0.1h-1.9c-0.7,0-1.2,0.1-1.5,0.2c-0.3,0.1-0.5,0.4-0.7,0.8
		c-0.2,0.4-0.3,0.9-0.3,1.6c0,0.8,0.1,1.4,0.4,1.8c0.3,0.4,0.7,0.7,1.3,0.9l0.3-1.5C45.5,98,45.3,97.9,45.2,97.7L45.2,97.7z
		 M47.5,95.9c0.4,0,0.7,0,0.8,0.1c0.2,0.1,0.4,0.2,0.5,0.4c0.2,0.3,0.3,0.6,0.3,0.8c0,0.3-0.1,0.5-0.3,0.7c-0.2,0.2-0.4,0.3-0.6,0.3
		s-0.4-0.1-0.6-0.3c-0.1-0.1-0.2-0.4-0.3-0.9c-0.1-0.5-0.2-0.8-0.3-1h0.5V95.9z M50.1,91h-8.6v1.6h8.6V91L50.1,91z M48.8,86.1
		c0.1,0.2,0.2,0.4,0.2,0.7c0,0.4-0.1,0.7-0.4,0.9c-0.3,0.3-0.7,0.4-1.1,0.4V84c-1.3,0-2.2,0.2-2.8,0.8c-0.6,0.5-0.9,1.3-0.9,2.2
		c0,0.8,0.3,1.5,0.9,2s1.4,0.8,2.4,0.8c0.9,0,1.6-0.2,2.1-0.6c0.7-0.5,1.1-1.3,1.1-2.4c0-0.7-0.2-1.3-0.5-1.7
		c-0.3-0.5-0.8-0.8-1.4-1l-0.3,1.6C48.5,85.8,48.7,85.9,48.8,86.1L48.8,86.1z M46.5,88.1c-0.4,0-0.8-0.1-1.1-0.3
		c-0.3-0.2-0.4-0.5-0.4-0.9c0-0.3,0.1-0.6,0.4-0.9c0.2-0.2,0.6-0.4,1.1-0.4V88.1L46.5,88.1z M52.7,82c-1-0.7-2.1-1.2-3.1-1.4
		c-0.9-0.3-1.8-0.4-2.6-0.4c-1,0-1.9,0.2-2.9,0.5c-0.9,0.3-1.8,0.8-2.7,1.4v1.1c1.2-0.5,2.2-0.9,3-1.1c0.8-0.2,1.7-0.3,2.6-0.3
		c0.5,0,0.9,0,1.3,0.1s0.9,0.1,1.4,0.3c0.5,0.1,0.9,0.2,1.3,0.4c0.4,0.1,0.9,0.4,1.6,0.7L52.7,82L52.7,82z"/>
	<path d="M228.4,70.3c0.2-0.5,0.3-1,0.3-1.6c0-0.7-0.1-1.3-0.4-1.9c-0.3-0.6-0.7-1-1.2-1.3S226,65,225.3,65c-0.7,0-1.2,0.2-1.8,0.5
		c-0.5,0.3-0.9,0.7-1.2,1.3c-0.3,0.6-0.4,1.2-0.4,1.9s0.1,1.3,0.4,1.9c0.3,0.6,0.7,1,1.2,1.3s1.1,0.5,1.8,0.5c0.6,0,1.2-0.1,1.8-0.4
		c0.5,0.4,1,0.7,1.5,0.9l0.3-0.7c-0.4-0.1-0.8-0.4-1.2-0.7C228,71.2,228.3,70.8,228.4,70.3L228.4,70.3z M225.3,71
		c0.3,0.1,0.6,0.2,0.9,0.4c-0.3,0.1-0.6,0.2-1,0.2c-0.7,0-1.3-0.2-1.8-0.7s-0.7-1.2-0.7-2.1c0-1,0.2-1.7,0.7-2.2s1.1-0.7,1.8-0.7
		c0.5,0,0.9,0.1,1.3,0.4c0.4,0.2,0.7,0.6,0.9,1c0.2,0.4,0.3,0.9,0.3,1.5c0,1-0.3,1.8-0.8,2.3c-0.4-0.3-0.8-0.5-1.4-0.7L225.3,71
		L225.3,71z M234.1,72.3v-5.2h-0.9v2.8c0,0.4,0,0.8-0.1,1s-0.3,0.4-0.5,0.6c-0.2,0.1-0.5,0.2-0.7,0.2s-0.5-0.1-0.7-0.2
		c-0.2-0.1-0.3-0.3-0.4-0.5c0-0.2-0.1-0.5-0.1-0.9v-2.9h-0.9v3.2c0,0.4,0,0.6,0.1,0.8c0.1,0.3,0.1,0.5,0.3,0.7
		c0.1,0.2,0.3,0.3,0.6,0.4c0.3,0.1,0.6,0.2,0.9,0.2c0.7,0,1.2-0.3,1.6-0.9v0.8h0.8L234.1,72.3L234.1,72.3z M239,72.3h0.9
		c-0.1-0.2-0.2-0.4-0.2-0.6c0-0.2-0.1-0.7-0.1-1.6V69c0-0.4,0-0.7,0-0.8c-0.1-0.2-0.1-0.4-0.3-0.6c-0.1-0.2-0.3-0.3-0.6-0.4
		c-0.3-0.1-0.6-0.2-1.1-0.2c-0.4,0-0.8,0.1-1.2,0.2c-0.3,0.1-0.6,0.3-0.8,0.5c-0.2,0.2-0.3,0.5-0.4,0.9l0.9,0.1
		c0.1-0.4,0.2-0.6,0.4-0.8c0.2-0.1,0.5-0.2,0.9-0.2s0.8,0.1,1,0.3c0.2,0.1,0.2,0.4,0.2,0.8c0,0,0,0.1,0,0.2
		c-0.3,0.1-0.9,0.2-1.6,0.3c-0.3,0-0.6,0.1-0.8,0.1c-0.2,0.1-0.4,0.2-0.6,0.3s-0.3,0.3-0.5,0.5c-0.1,0.2-0.2,0.4-0.2,0.7
		c0,0.4,0.2,0.8,0.5,1.1s0.7,0.4,1.3,0.4c0.3,0,0.7-0.1,1-0.2c0.3-0.1,0.6-0.3,0.9-0.6C238.8,71.9,238.9,72.1,239,72.3L239,72.3
		L239,72.3z M238.7,70c0,0.4,0,0.7-0.1,0.9c-0.1,0.3-0.3,0.5-0.6,0.6c-0.3,0.1-0.6,0.2-0.9,0.2s-0.6-0.1-0.8-0.2
		c-0.2-0.2-0.3-0.4-0.3-0.6c0-0.2,0-0.3,0.1-0.4c0.1-0.1,0.2-0.2,0.3-0.3c0.1-0.1,0.4-0.1,0.8-0.2c0.6-0.1,1.1-0.2,1.4-0.3V70H238.7
		z M241.9,72.3v-2.8c0-0.7,0.1-1.1,0.4-1.4c0.3-0.2,0.6-0.4,1-0.4c0.2,0,0.4,0.1,0.6,0.2c0.2,0.1,0.3,0.2,0.4,0.4s0.1,0.4,0.1,0.8
		v3.2h0.9v-3.2c0-0.4,0-0.7,0-0.9c-0.1-0.3-0.1-0.5-0.3-0.6c-0.1-0.2-0.3-0.3-0.6-0.4c-0.3-0.1-0.5-0.2-0.9-0.2
		c-0.7,0-1.3,0.3-1.7,0.9v-0.7H241v5.2h0.9V72.3z M248.1,71.6c-0.1,0-0.2,0-0.3-0.1c-0.1,0-0.1-0.1-0.2-0.2c0-0.1,0-0.2,0-0.5v-3
		h0.9v-0.7h-0.9v-1.8l-0.9,0.5v1.3h-0.6v0.7h0.6v3c0,0.5,0,0.9,0.1,1c0.1,0.2,0.2,0.3,0.4,0.4s0.4,0.2,0.7,0.2c0.2,0,0.4,0,0.7-0.1
		l-0.1-0.8C248.3,71.5,248.2,71.6,248.1,71.6L248.1,71.6L248.1,71.6z M250.6,72.3v-1h-1v1H250.6L250.6,72.3z M257.7,72.3
		c0.5,0,0.8,0,1.2-0.1c0.3-0.1,0.6-0.2,0.8-0.4c0.2-0.2,0.4-0.4,0.5-0.7s0.2-0.6,0.2-0.9c0-0.4-0.1-0.8-0.3-1.1
		c-0.2-0.3-0.6-0.5-1-0.6c0.3-0.2,0.6-0.4,0.8-0.7c0.2-0.3,0.2-0.6,0.2-0.9c0-0.3-0.1-0.6-0.3-0.9c-0.2-0.3-0.4-0.5-0.8-0.7
		c-0.3-0.1-0.8-0.2-1.3-0.2H255v7.2L257.7,72.3L257.7,72.3z M255.9,66h1.4c0.5,0,0.9,0,1.1,0.1s0.4,0.2,0.5,0.4s0.2,0.4,0.2,0.6
		c0,0.3-0.1,0.5-0.2,0.6s-0.3,0.3-0.5,0.4c-0.2,0.1-0.5,0.1-0.9,0.1H256V66H255.9z M255.9,69h1.7c0.5,0,0.8,0,1,0.1s0.4,0.2,0.6,0.4
		c0.1,0.2,0.2,0.4,0.2,0.7c0,0.2,0,0.4-0.1,0.6c-0.1,0.2-0.2,0.3-0.4,0.4c-0.1,0.1-0.3,0.2-0.5,0.2c-0.1,0-0.3,0-0.6,0H256V69H255.9
		z M262.4,66.2v-1h-0.9v1H262.4L262.4,66.2z M262.4,72.3v-5.2h-0.9v5.2H262.4L262.4,72.3z M264.1,71.7c0.4,0.5,1,0.7,1.8,0.7
		c0.5,0,0.9-0.1,1.3-0.3s0.7-0.5,0.9-0.9c0.2-0.4,0.3-0.9,0.3-1.6c0-0.8-0.2-1.5-0.7-1.9c-0.5-0.5-1-0.7-1.7-0.7
		c-0.6,0-1.2,0.2-1.6,0.6c-0.5,0.5-0.8,1.2-0.8,2.1C263.5,70.6,263.7,71.3,264.1,71.7L264.1,71.7z M264.8,68.2
		c0.3-0.3,0.7-0.5,1.1-0.5s0.8,0.2,1.1,0.5c0.3,0.3,0.4,0.8,0.4,1.5s-0.1,1.2-0.4,1.5s-0.7,0.5-1.1,0.5s-0.8-0.2-1.1-0.5
		c-0.3-0.3-0.4-0.8-0.4-1.5S264.5,68.5,264.8,68.2L264.8,68.2z"/>
	<rect x="203.9" y="66.4" width="11.2" height="6.2"/>
	<path d="M226.6,83.6c-0.4,0.3-0.8,0.5-1.3,0.5c-0.4,0-0.8-0.1-1.2-0.3c-0.4-0.2-0.7-0.6-0.8-1c-0.2-0.5-0.3-1-0.3-1.6
		c0-0.5,0.1-0.9,0.2-1.4c0.1-0.4,0.4-0.8,0.8-1.1s0.8-0.4,1.4-0.4c0.5,0,0.9,0.1,1.2,0.4c0.3,0.2,0.6,0.6,0.7,1.1l0.9-0.2
		c-0.2-0.7-0.5-1.2-1-1.5c-0.5-0.4-1.1-0.5-1.8-0.5c-0.6,0-1.2,0.1-1.7,0.4c-0.5,0.3-0.9,0.7-1.2,1.3c-0.3,0.6-0.4,1.2-0.4,2
		c0,0.7,0.1,1.3,0.4,1.9c0.3,0.6,0.6,1.1,1.1,1.4c0.5,0.3,1.1,0.5,1.9,0.5c0.7,0,1.4-0.2,1.9-0.6c0.5-0.4,0.9-1,1.1-1.8l-0.9-0.2
		C227.2,82.9,226.9,83.3,226.6,83.6L226.6,83.6z M229.5,83.8c0.2,0.4,0.6,0.7,1,0.9s1,0.3,1.6,0.3c0.5,0,1-0.1,1.4-0.3
		s0.7-0.4,0.9-0.8c0.2-0.3,0.3-0.7,0.3-1.1c0-0.4-0.1-0.7-0.3-1c-0.2-0.3-0.5-0.5-0.9-0.7c-0.3-0.1-0.8-0.3-1.6-0.5
		c-0.8-0.2-1.2-0.3-1.4-0.5c-0.2-0.2-0.3-0.4-0.3-0.6c0-0.3,0.1-0.5,0.4-0.8c0.3-0.2,0.7-0.3,1.3-0.3c0.6,0,1,0.1,1.2,0.3
		c0.3,0.2,0.4,0.6,0.5,1l0.9-0.1c0-0.4-0.1-0.8-0.4-1.1c-0.2-0.3-0.5-0.6-0.9-0.8s-0.9-0.3-1.4-0.3s-0.9,0.1-1.3,0.2
		c-0.4,0.2-0.7,0.4-0.9,0.7c-0.2,0.3-0.3,0.7-0.3,1s0.1,0.6,0.3,0.9c0.2,0.3,0.4,0.5,0.8,0.7c0.3,0.1,0.7,0.3,1.4,0.4
		c0.7,0.2,1.1,0.3,1.3,0.3c0.3,0.1,0.5,0.3,0.6,0.4c0.1,0.2,0.2,0.4,0.2,0.6c0,0.2-0.1,0.4-0.2,0.6c-0.1,0.2-0.3,0.3-0.6,0.4
		c-0.3,0.1-0.6,0.2-1,0.2s-0.8-0.1-1.1-0.2c-0.3-0.1-0.6-0.3-0.7-0.6c-0.2-0.2-0.3-0.5-0.3-0.9l-0.9,0.1
		C229.1,83,229.2,83.4,229.5,83.8L229.5,83.8z"/>
	<rect x="203.9" y="78.9" class="st1" width="11.2" height="6.2"/>
	<line class="st4" x1="313.7" y1="165.1" x2="467.7" y2="165.1"/>
	<path class="st5" d="M313.7,165.1v3.3 M348,165.1v3.3 M382.2,165.1v3.3 M416.4,165.1v3.3 M450.6,165.1v3.3"/>
	<path d="M304.6,179.6c0.1-0.1,0.2-0.3,0.3-0.4c0.1-0.1,0.4-0.4,0.9-0.8c0.6-0.5,1-0.9,1.2-1.1c0.2-0.3,0.4-0.5,0.5-0.8
		c0.1-0.2,0.2-0.5,0.2-0.8c0-0.5-0.2-0.9-0.5-1.3s-0.8-0.5-1.5-0.5c-0.6,0-1.1,0.2-1.5,0.5s-0.6,0.8-0.6,1.4l0.8,0.1
		c0-0.4,0.1-0.7,0.3-0.9s0.5-0.3,0.9-0.3s0.7,0.1,0.9,0.3s0.3,0.5,0.3,0.8s-0.1,0.6-0.4,1c-0.2,0.3-0.7,0.8-1.4,1.4
		c-0.5,0.4-0.8,0.7-1,1s-0.4,0.6-0.5,0.9c-0.1,0.2-0.1,0.4-0.1,0.5h4.3v-0.8h-3.1L304.6,179.6L304.6,179.6z M309.2,179.8
		c0.4,0.4,0.8,0.7,1.5,0.7c0.5,0,0.9-0.1,1.2-0.4c0.3-0.3,0.5-0.6,0.7-1.1s0.2-1.1,0.2-1.8c0-0.6,0-1.1-0.1-1.5s-0.2-0.7-0.4-1
		c-0.2-0.3-0.4-0.5-0.6-0.6c-0.3-0.1-0.6-0.2-0.9-0.2c-0.5,0-0.9,0.1-1.2,0.4c-0.3,0.3-0.5,0.6-0.7,1.1s-0.2,1.1-0.2,1.8
		C308.6,178.3,308.8,179.2,309.2,179.8L309.2,179.8L309.2,179.8z M309.8,175c0.2-0.3,0.5-0.5,0.9-0.5s0.7,0.2,0.9,0.5
		c0.2,0.3,0.4,1.1,0.4,2.1c0,1.1-0.1,1.8-0.4,2.1c-0.2,0.4-0.6,0.5-0.9,0.5c-0.4,0-0.7-0.2-0.9-0.5c-0.2-0.4-0.4-1.1-0.4-2.1
		S309.5,175.4,309.8,175L309.8,175L309.8,175z M314.2,179.8c0.4,0.4,0.8,0.7,1.5,0.7c0.5,0,0.9-0.1,1.2-0.4c0.3-0.3,0.5-0.6,0.7-1.1
		s0.2-1.1,0.2-1.8c0-0.6,0-1.1-0.1-1.5s-0.2-0.7-0.4-1c-0.2-0.3-0.4-0.5-0.6-0.6c-0.3-0.1-0.6-0.2-0.9-0.2c-0.5,0-0.9,0.1-1.2,0.4
		c-0.3,0.3-0.5,0.6-0.7,1.1s-0.2,1.1-0.2,1.8C313.6,178.3,313.8,179.2,314.2,179.8L314.2,179.8L314.2,179.8z M314.8,175
		c0.2-0.3,0.5-0.5,0.9-0.5s0.7,0.2,0.9,0.5c0.2,0.3,0.4,1.1,0.4,2.1c0,1.1-0.1,1.8-0.4,2.1c-0.2,0.4-0.6,0.5-0.9,0.5
		c-0.4,0-0.7-0.2-0.9-0.5c-0.2-0.4-0.4-1.1-0.4-2.1S314.5,175.4,314.8,175L314.8,175L314.8,175z M322.1,174.3
		c-0.3-0.3-0.7-0.4-1.2-0.4c-0.7,0-1.2,0.2-1.6,0.7c-0.5,0.6-0.7,1.5-0.7,2.7c0,1.1,0.2,1.9,0.6,2.4s1,0.7,1.6,0.7
		c0.4,0,0.7-0.1,1-0.3s0.5-0.5,0.7-0.8s0.3-0.7,0.3-1.1c0-0.6-0.2-1.1-0.6-1.5s-0.8-0.6-1.3-0.6c-0.3,0-0.6,0.1-0.9,0.2
		c-0.3,0.1-0.5,0.4-0.7,0.6c0-0.6,0.1-1.1,0.2-1.5c0.1-0.3,0.3-0.6,0.6-0.8c0.2-0.1,0.4-0.2,0.7-0.2c0.3,0,0.6,0.1,0.8,0.3
		c0.1,0.1,0.2,0.4,0.3,0.7l0.8-0.1C322.6,174.9,322.4,174.6,322.1,174.3L322.1,174.3z M319.8,177.2c0.2-0.3,0.6-0.4,0.9-0.4
		c0.4,0,0.7,0.1,0.9,0.4c0.2,0.3,0.4,0.6,0.4,1.1s-0.1,0.8-0.4,1.1c-0.2,0.3-0.5,0.4-0.9,0.4c-0.2,0-0.4-0.1-0.7-0.2
		c-0.2-0.1-0.4-0.3-0.5-0.6c-0.1-0.2-0.2-0.5-0.2-0.8C319.5,177.8,319.6,177.5,319.8,177.2L319.8,177.2z"/>
	<path d="M338.8,179.6c0.1-0.1,0.2-0.3,0.3-0.4c0.1-0.1,0.4-0.4,0.9-0.8c0.6-0.5,1-0.9,1.2-1.1c0.2-0.3,0.4-0.5,0.5-0.8
		c0.1-0.2,0.2-0.5,0.2-0.8c0-0.5-0.2-0.9-0.5-1.3s-0.8-0.5-1.5-0.5c-0.6,0-1.1,0.2-1.5,0.5s-0.6,0.8-0.6,1.4l0.8,0.1
		c0-0.4,0.1-0.7,0.3-0.9s0.5-0.3,0.9-0.3s0.7,0.1,0.9,0.3s0.3,0.5,0.3,0.8s-0.1,0.6-0.4,1c-0.2,0.3-0.7,0.8-1.4,1.4
		c-0.5,0.4-0.8,0.7-1,1s-0.4,0.6-0.5,0.9c-0.1,0.2-0.1,0.4-0.1,0.5h4.3v-0.8h-3.1L338.8,179.6L338.8,179.6z M343.4,179.8
		c0.4,0.4,0.8,0.7,1.5,0.7c0.5,0,0.9-0.1,1.2-0.4c0.3-0.3,0.5-0.6,0.7-1.1s0.2-1.1,0.2-1.8c0-0.6,0-1.1-0.1-1.5s-0.2-0.7-0.4-1
		c-0.2-0.3-0.4-0.5-0.6-0.6c-0.3-0.1-0.6-0.2-0.9-0.2c-0.5,0-0.9,0.1-1.2,0.4c-0.3,0.3-0.5,0.6-0.7,1.1s-0.2,1.1-0.2,1.8
		C342.8,178.3,343,179.2,343.4,179.8L343.4,179.8L343.4,179.8z M344,175c0.2-0.3,0.5-0.5,0.9-0.5s0.7,0.2,0.9,0.5
		c0.2,0.3,0.4,1.1,0.4,2.1c0,1.1-0.1,1.8-0.4,2.1c-0.2,0.4-0.6,0.5-0.9,0.5c-0.4,0-0.7-0.2-0.9-0.5c-0.2-0.4-0.4-1.1-0.4-2.1
		S343.7,175.4,344,175L344,175L344,175z M348.4,179.8c0.4,0.4,0.8,0.7,1.5,0.7c0.5,0,0.9-0.1,1.2-0.4c0.3-0.3,0.5-0.6,0.7-1.1
		s0.2-1.1,0.2-1.8c0-0.6,0-1.1-0.1-1.5s-0.2-0.7-0.4-1c-0.2-0.3-0.4-0.5-0.6-0.6c-0.3-0.1-0.6-0.2-0.9-0.2c-0.5,0-0.9,0.1-1.2,0.4
		c-0.3,0.3-0.5,0.6-0.7,1.1s-0.2,1.1-0.2,1.8C347.8,178.3,348,179.2,348.4,179.8L348.4,179.8L348.4,179.8z M349,175
		c0.2-0.3,0.5-0.5,0.9-0.5s0.7,0.2,0.9,0.5c0.2,0.3,0.4,1.1,0.4,2.1c0,1.1-0.1,1.8-0.4,2.1c-0.2,0.4-0.6,0.5-0.9,0.5
		c-0.4,0-0.7-0.2-0.9-0.5c-0.2-0.4-0.4-1.1-0.4-2.1S348.7,175.4,349,175L349,175L349,175z M353.1,177.4c-0.2,0.3-0.3,0.6-0.3,1.1
		c0,0.6,0.2,1,0.6,1.4s0.9,0.6,1.5,0.6s1.1-0.2,1.5-0.6c0.4-0.4,0.6-0.8,0.6-1.4c0-0.4-0.1-0.7-0.3-1c-0.2-0.3-0.5-0.5-0.9-0.6
		c0.3-0.1,0.6-0.3,0.7-0.5c0.2-0.2,0.2-0.5,0.2-0.8c0-0.5-0.2-0.9-0.5-1.2s-0.8-0.5-1.4-0.5s-1,0.2-1.3,0.5s-0.5,0.7-0.5,1.2
		c0,0.3,0.1,0.6,0.2,0.8c0.2,0.2,0.4,0.4,0.7,0.5C353.6,176.9,353.3,177.1,353.1,177.4L353.1,177.4z M354.1,174.8
		c0.2-0.2,0.4-0.3,0.8-0.3c0.3,0,0.5,0.1,0.7,0.3s0.3,0.4,0.3,0.7s-0.1,0.5-0.3,0.7c-0.2,0.2-0.4,0.3-0.7,0.3
		c-0.3,0-0.6-0.1-0.8-0.3c-0.2-0.2-0.3-0.4-0.3-0.7C353.8,175.2,353.9,175,354.1,174.8L354.1,174.8z M354,177.5
		c0.2-0.2,0.6-0.4,0.9-0.4c0.4,0,0.7,0.1,1,0.4c0.3,0.2,0.4,0.6,0.4,0.9c0,0.4-0.1,0.7-0.4,0.9c-0.2,0.2-0.6,0.4-0.9,0.4
		c-0.2,0-0.5-0.1-0.7-0.2c-0.2-0.1-0.4-0.3-0.5-0.5s-0.2-0.4-0.2-0.7C353.6,178.1,353.7,177.8,354,177.5L354,177.5z"/>
	<path d="M373,179.6c0.1-0.1,0.2-0.3,0.3-0.4c0.1-0.1,0.4-0.4,0.9-0.8c0.6-0.5,1-0.9,1.2-1.1c0.2-0.3,0.4-0.5,0.5-0.8
		c0.1-0.2,0.2-0.5,0.2-0.8c0-0.5-0.2-0.9-0.5-1.3s-0.8-0.5-1.5-0.5c-0.6,0-1.1,0.2-1.5,0.5s-0.6,0.8-0.6,1.4l0.8,0.1
		c0-0.4,0.1-0.7,0.3-0.9s0.5-0.3,0.9-0.3s0.7,0.1,0.9,0.3s0.3,0.5,0.3,0.8s-0.1,0.6-0.4,1c-0.2,0.3-0.7,0.8-1.4,1.4
		c-0.5,0.4-0.8,0.7-1,1s-0.4,0.6-0.5,0.9c-0.1,0.2-0.1,0.4-0.1,0.5h4.3v-0.8H373V179.6z M377.6,179.8c0.4,0.4,0.8,0.7,1.5,0.7
		c0.5,0,0.9-0.1,1.2-0.4c0.3-0.3,0.5-0.6,0.7-1.1s0.2-1.1,0.2-1.8c0-0.6,0-1.1-0.1-1.5s-0.2-0.7-0.4-1c-0.2-0.3-0.4-0.5-0.6-0.6
		c-0.3-0.1-0.6-0.2-0.9-0.2c-0.5,0-0.9,0.1-1.2,0.4c-0.3,0.3-0.5,0.6-0.7,1.1s-0.2,1.1-0.2,1.8C377,178.3,377.2,179.2,377.6,179.8
		L377.6,179.8L377.6,179.8z M378.2,175c0.2-0.3,0.5-0.5,0.9-0.5s0.7,0.2,0.9,0.5c0.2,0.3,0.4,1.1,0.4,2.1c0,1.1-0.1,1.8-0.4,2.1
		c-0.2,0.4-0.6,0.5-0.9,0.5c-0.4,0-0.7-0.2-0.9-0.5c-0.2-0.4-0.4-1.1-0.4-2.1C377.8,176.1,377.9,175.4,378.2,175L378.2,175
		L378.2,175z M385,173.8h-0.5c-0.1,0.3-0.4,0.6-0.7,0.9c-0.3,0.3-0.7,0.5-1.2,0.8v0.8c0.2-0.1,0.5-0.2,0.8-0.4s0.6-0.4,0.7-0.5v5
		h0.8v-6.6H385z M387.6,179.8c0.4,0.4,0.8,0.7,1.5,0.7c0.5,0,0.9-0.1,1.2-0.4c0.3-0.3,0.5-0.6,0.7-1.1s0.2-1.1,0.2-1.8
		c0-0.6,0-1.1-0.1-1.5s-0.2-0.7-0.4-1c-0.2-0.3-0.4-0.5-0.6-0.6c-0.3-0.1-0.6-0.2-0.9-0.2c-0.5,0-0.9,0.1-1.2,0.4
		c-0.3,0.3-0.5,0.6-0.7,1.1s-0.2,1.1-0.2,1.8C387,178.3,387.2,179.2,387.6,179.8L387.6,179.8L387.6,179.8z M388.2,175
		c0.2-0.3,0.5-0.5,0.9-0.5s0.7,0.2,0.9,0.5c0.2,0.3,0.4,1.1,0.4,2.1c0,1.1-0.1,1.8-0.4,2.1c-0.2,0.4-0.6,0.5-0.9,0.5
		c-0.4,0-0.7-0.2-0.9-0.5c-0.2-0.4-0.4-1.1-0.4-2.1C387.8,176.1,387.9,175.4,388.2,175L388.2,175L388.2,175z"/>
	<path d="M407.2,179.6c0.1-0.1,0.2-0.3,0.3-0.4c0.1-0.1,0.4-0.4,0.9-0.8c0.6-0.5,1-0.9,1.2-1.1c0.2-0.3,0.4-0.5,0.5-0.8
		c0.1-0.2,0.2-0.5,0.2-0.8c0-0.5-0.2-0.9-0.5-1.3s-0.8-0.5-1.5-0.5c-0.6,0-1.1,0.2-1.5,0.5s-0.6,0.8-0.6,1.4l0.8,0.1
		c0-0.4,0.1-0.7,0.3-0.9s0.5-0.3,0.9-0.3s0.7,0.1,0.9,0.3s0.3,0.5,0.3,0.8s-0.1,0.6-0.4,1c-0.2,0.3-0.7,0.8-1.4,1.4
		c-0.5,0.4-0.8,0.7-1,1s-0.4,0.6-0.5,0.9c-0.1,0.2-0.1,0.4-0.1,0.5h4.3v-0.8h-3.1L407.2,179.6L407.2,179.6z M411.8,179.8
		c0.4,0.4,0.8,0.7,1.5,0.7c0.5,0,0.9-0.1,1.2-0.4c0.3-0.3,0.5-0.6,0.7-1.1s0.2-1.1,0.2-1.8c0-0.6,0-1.1-0.1-1.5s-0.2-0.7-0.4-1
		c-0.2-0.3-0.4-0.5-0.6-0.6c-0.3-0.1-0.6-0.2-0.9-0.2c-0.5,0-0.9,0.1-1.2,0.4c-0.3,0.3-0.5,0.6-0.7,1.1s-0.2,1.1-0.2,1.8
		C411.2,178.3,411.4,179.2,411.8,179.8L411.8,179.8L411.8,179.8z M412.4,175c0.2-0.3,0.5-0.5,0.9-0.5s0.7,0.2,0.9,0.5
		c0.2,0.3,0.4,1.1,0.4,2.1c0,1.1-0.1,1.8-0.4,2.1c-0.2,0.4-0.6,0.5-0.9,0.5c-0.4,0-0.7-0.2-0.9-0.5c-0.2-0.4-0.4-1.1-0.4-2.1
		S412.1,175.4,412.4,175L412.4,175L412.4,175z M419.2,173.8h-0.5c-0.1,0.3-0.4,0.6-0.7,0.9c-0.3,0.3-0.7,0.5-1.2,0.8v0.8
		c0.2-0.1,0.5-0.2,0.8-0.4s0.6-0.4,0.7-0.5v5h0.8v-6.6H419.2z M422.2,179.6c0.1-0.1,0.2-0.3,0.3-0.4c0.1-0.1,0.4-0.4,0.9-0.8
		c0.6-0.5,1-0.9,1.2-1.1c0.2-0.3,0.4-0.5,0.5-0.8c0.1-0.2,0.2-0.5,0.2-0.8c0-0.5-0.2-0.9-0.5-1.3s-0.8-0.5-1.5-0.5
		c-0.6,0-1.1,0.2-1.5,0.5s-0.6,0.8-0.6,1.4l0.8,0.1c0-0.4,0.1-0.7,0.3-0.9s0.5-0.3,0.9-0.3s0.7,0.1,0.9,0.3s0.3,0.5,0.3,0.8
		s-0.1,0.6-0.4,1c-0.2,0.3-0.7,0.8-1.4,1.4c-0.5,0.4-0.8,0.7-1,1s-0.4,0.6-0.5,0.9c-0.1,0.2-0.1,0.4-0.1,0.5h4.3v-0.8h-3.1
		L422.2,179.6L422.2,179.6z"/>
	<path d="M441.4,179.6c0.1-0.1,0.2-0.3,0.3-0.4c0.1-0.1,0.4-0.4,0.9-0.8c0.6-0.5,1-0.9,1.2-1.1c0.2-0.3,0.4-0.5,0.5-0.8
		c0.1-0.2,0.2-0.5,0.2-0.8c0-0.5-0.2-0.9-0.5-1.3s-0.8-0.5-1.5-0.5c-0.6,0-1.1,0.2-1.5,0.5s-0.6,0.8-0.6,1.4l0.8,0.1
		c0-0.4,0.1-0.7,0.3-0.9s0.5-0.3,0.9-0.3s0.7,0.1,0.9,0.3s0.3,0.5,0.3,0.8s-0.1,0.6-0.4,1c-0.2,0.3-0.7,0.8-1.4,1.4
		c-0.5,0.4-0.8,0.7-1,1s-0.4,0.6-0.5,0.9c-0.1,0.2-0.1,0.4-0.1,0.5h4.3v-0.8h-3.1L441.4,179.6L441.4,179.6z M446,179.8
		c0.4,0.4,0.8,0.7,1.5,0.7c0.5,0,0.9-0.1,1.2-0.4c0.3-0.3,0.5-0.6,0.7-1.1s0.2-1.1,0.2-1.8c0-0.6,0-1.1-0.1-1.5s-0.2-0.7-0.4-1
		c-0.2-0.3-0.4-0.5-0.6-0.6c-0.3-0.1-0.6-0.2-0.9-0.2c-0.5,0-0.9,0.1-1.2,0.4c-0.3,0.3-0.5,0.6-0.7,1.1s-0.2,1.1-0.2,1.8
		C445.4,178.3,445.6,179.2,446,179.8L446,179.8L446,179.8z M446.6,175c0.2-0.3,0.5-0.5,0.9-0.5s0.7,0.2,0.9,0.5
		c0.2,0.3,0.4,1.1,0.4,2.1c0,1.1-0.1,1.8-0.4,2.1c-0.2,0.4-0.6,0.5-0.9,0.5c-0.4,0-0.7-0.2-0.9-0.5c-0.2-0.4-0.4-1.1-0.4-2.1
		S446.4,175.4,446.6,175L446.6,175L446.6,175z M453.4,173.8h-0.5c-0.1,0.3-0.4,0.6-0.7,0.9c-0.3,0.3-0.7,0.5-1.2,0.8v0.8
		c0.2-0.1,0.5-0.2,0.8-0.4s0.6-0.4,0.7-0.5v5h0.8v-6.6H453.4z M458.7,180.3v-1.5h0.9V178h-0.9v-4.2h-0.6l-2.9,4.2v0.7h2.8v1.5h0.7
		V180.3z M455.9,178l2-2.9v2.9H455.9L455.9,178z"/>
	<line class="st4" x1="313.7" y1="165.1" x2="313.7" y2="62.4"/>
	<path class="st5" d="M310.5,165.1h3.3 M310.5,144.6h3.3 M310.5,124h3.3 M310.5,103.5h3.3 M310.5,83h3.3 M310.5,62.4h3.3"/>
	<path d="M297,167.2c0.4,0.4,0.8,0.7,1.5,0.7c0.5,0,0.9-0.1,1.2-0.4c0.3-0.3,0.5-0.6,0.7-1.1s0.2-1.1,0.2-1.8c0-0.6,0-1.1-0.1-1.5
		s-0.2-0.7-0.4-1c-0.2-0.3-0.4-0.5-0.6-0.6c-0.3-0.1-0.6-0.2-0.9-0.2c-0.5,0-0.9,0.1-1.2,0.4c-0.3,0.3-0.5,0.6-0.7,1.1
		s-0.2,1.1-0.2,1.8C296.3,165.8,296.5,166.7,297,167.2L297,167.2L297,167.2z M297.5,162.4c0.2-0.3,0.5-0.5,0.9-0.5s0.7,0.2,0.9,0.5
		c0.2,0.3,0.4,1.1,0.4,2.1c0,1.1-0.1,1.8-0.4,2.1c-0.2,0.4-0.6,0.5-0.9,0.5c-0.4,0-0.7-0.2-0.9-0.5c-0.2-0.4-0.4-1.1-0.4-2.1
		C297.1,163.6,297.3,162.8,297.5,162.4L297.5,162.4L297.5,162.4z M302.7,167.8v-0.9h-0.9v0.9H302.7L302.7,167.8z"/>
	<path d="M304.5,167.2c0.4,0.4,0.8,0.7,1.5,0.7c0.5,0,0.9-0.1,1.2-0.4c0.3-0.3,0.5-0.6,0.7-1.1s0.2-1.1,0.2-1.8c0-0.6,0-1.1-0.1-1.5
		s-0.2-0.7-0.4-1c-0.2-0.3-0.4-0.5-0.6-0.6c-0.3-0.1-0.6-0.2-0.9-0.2c-0.5,0-0.9,0.1-1.2,0.4c-0.3,0.3-0.5,0.6-0.7,1.1
		s-0.2,1.1-0.2,1.8C303.8,165.8,304,166.7,304.5,167.2L304.5,167.2L304.5,167.2z M305,162.4c0.2-0.3,0.5-0.5,0.9-0.5
		s0.7,0.2,0.9,0.5c0.2,0.3,0.4,1.1,0.4,2.1c0,1.1-0.1,1.8-0.4,2.1c-0.2,0.4-0.6,0.5-0.9,0.5c-0.4,0-0.7-0.2-0.9-0.5
		c-0.2-0.4-0.4-1.1-0.4-2.1C304.6,163.6,304.8,162.8,305,162.4L305,162.4L305,162.4z"/>
	<path d="M297,146.7c0.4,0.4,0.8,0.7,1.5,0.7c0.5,0,0.9-0.1,1.2-0.4c0.3-0.3,0.5-0.6,0.7-1.1s0.2-1.1,0.2-1.8c0-0.6,0-1.1-0.1-1.5
		s-0.2-0.7-0.4-1c-0.2-0.3-0.4-0.5-0.6-0.6c-0.3-0.1-0.6-0.2-0.9-0.2c-0.5,0-0.9,0.1-1.2,0.4c-0.3,0.3-0.5,0.6-0.7,1.1
		s-0.2,1.1-0.2,1.8C296.3,145.3,296.5,146.2,297,146.7L297,146.7L297,146.7z M297.5,141.9c0.2-0.3,0.5-0.5,0.9-0.5s0.7,0.2,0.9,0.5
		c0.2,0.3,0.4,1.1,0.4,2.1c0,1.1-0.1,1.8-0.4,2.1c-0.2,0.4-0.6,0.5-0.9,0.5c-0.4,0-0.7-0.2-0.9-0.5c-0.2-0.4-0.4-1.1-0.4-2.1
		S297.3,142.3,297.5,141.9L297.5,141.9L297.5,141.9z M302.7,147.3v-0.9h-0.9v0.9H302.7L302.7,147.3z"/>
	<path d="M306.8,140.8h-0.5c-0.1,0.3-0.4,0.6-0.7,0.9c-0.3,0.3-0.7,0.5-1.2,0.8v0.8c0.2-0.1,0.5-0.2,0.8-0.4s0.6-0.4,0.7-0.5v5h0.8
		v-6.6H306.8z"/>
	<path d="M297,126.2c0.4,0.4,0.8,0.7,1.5,0.7c0.5,0,0.9-0.1,1.2-0.4c0.3-0.3,0.5-0.6,0.7-1.1s0.2-1.1,0.2-1.8c0-0.6,0-1.1-0.1-1.5
		s-0.2-0.7-0.4-1c-0.2-0.3-0.4-0.5-0.6-0.6c-0.3-0.1-0.6-0.2-0.9-0.2c-0.5,0-0.9,0.1-1.2,0.4c-0.3,0.3-0.5,0.6-0.7,1.1
		s-0.2,1.1-0.2,1.8C296.3,124.8,296.5,125.6,297,126.2L297,126.2L297,126.2z M297.5,121.4c0.2-0.3,0.5-0.5,0.9-0.5s0.7,0.2,0.9,0.5
		c0.2,0.3,0.4,1.1,0.4,2.1c0,1.1-0.1,1.8-0.4,2.1c-0.2,0.4-0.6,0.5-0.9,0.5c-0.4,0-0.7-0.2-0.9-0.5c-0.2-0.4-0.4-1.1-0.4-2.1
		S297.3,121.8,297.5,121.4L297.5,121.4L297.5,121.4z M302.7,126.7v-0.9h-0.9v0.9H302.7L302.7,126.7z"/>
	<path d="M304.8,126c0.1-0.1,0.2-0.3,0.3-0.4c0.1-0.1,0.4-0.4,0.9-0.8c0.6-0.5,1-0.9,1.2-1.1c0.2-0.3,0.4-0.5,0.5-0.8
		c0.1-0.2,0.2-0.5,0.2-0.8c0-0.5-0.2-0.9-0.5-1.3s-0.8-0.5-1.5-0.5c-0.6,0-1.1,0.2-1.5,0.5s-0.6,0.8-0.6,1.4l0.8,0.1
		c0-0.4,0.1-0.7,0.3-0.9s0.5-0.3,0.9-0.3s0.7,0.1,0.9,0.3s0.3,0.5,0.3,0.8s-0.1,0.6-0.4,1c-0.2,0.3-0.7,0.8-1.4,1.4
		c-0.5,0.4-0.8,0.7-1,1s-0.4,0.6-0.5,0.9c-0.1,0.2-0.1,0.4-0.1,0.5h4.3v-1L304.8,126L304.8,126z"/>
	<path d="M297,105.7c0.4,0.4,0.8,0.7,1.5,0.7c0.5,0,0.9-0.1,1.2-0.4c0.3-0.3,0.5-0.6,0.7-1.1s0.2-1.1,0.2-1.8c0-0.6,0-1.1-0.1-1.5
		s-0.2-0.7-0.4-1c-0.2-0.3-0.4-0.5-0.6-0.6c-0.3-0.1-0.6-0.2-0.9-0.2c-0.5,0-0.9,0.1-1.2,0.4c-0.3,0.3-0.5,0.6-0.7,1.1
		s-0.2,1.1-0.2,1.8C296.3,104.2,296.5,105.1,297,105.7L297,105.7L297,105.7z M297.5,100.9c0.2-0.3,0.5-0.5,0.9-0.5s0.7,0.2,0.9,0.5
		c0.2,0.3,0.4,1.1,0.4,2.1c0,1.1-0.1,1.8-0.4,2.1c-0.2,0.4-0.6,0.5-0.9,0.5c-0.4,0-0.7-0.2-0.9-0.5c-0.2-0.4-0.4-1.1-0.4-2.1
		S297.3,101.3,297.5,100.9L297.5,100.9L297.5,100.9z M302.7,106.2v-0.9h-0.9v0.9H302.7L302.7,106.2z"/>
	<path d="M304.5,105.8c0.4,0.3,0.8,0.5,1.4,0.5s1.1-0.2,1.6-0.6c0.4-0.4,0.6-0.9,0.6-1.4c0-0.4-0.1-0.8-0.3-1s-0.5-0.5-0.9-0.5
		c0.3-0.1,0.5-0.3,0.7-0.5s0.2-0.5,0.2-0.8s-0.1-0.6-0.2-0.8c-0.2-0.3-0.4-0.5-0.7-0.6c-0.3-0.2-0.6-0.2-1-0.2
		c-0.5,0-0.9,0.1-1.3,0.4c-0.3,0.3-0.6,0.7-0.7,1.2l0.8,0.1c0.1-0.4,0.2-0.7,0.4-0.9c0.2-0.2,0.5-0.3,0.8-0.3s0.6,0.1,0.8,0.3
		c0.2,0.2,0.3,0.4,0.3,0.7c0,0.4-0.1,0.6-0.4,0.8s-0.6,0.3-0.9,0.3h-0.1l-0.1,0.7c0.2-0.1,0.4-0.1,0.6-0.1c0.4,0,0.7,0.1,0.9,0.4
		c0.2,0.2,0.4,0.5,0.4,0.9s-0.1,0.7-0.4,1s-0.6,0.4-0.9,0.4s-0.6-0.1-0.8-0.3c-0.2-0.2-0.4-0.5-0.5-1l-0.8,0.1
		C303.9,105,304.1,105.5,304.5,105.8L304.5,105.8z"/>
	<path d="M297,85.1c0.4,0.4,0.8,0.7,1.5,0.7c0.5,0,0.9-0.1,1.2-0.4c0.3-0.3,0.5-0.6,0.7-1.1s0.2-1.1,0.2-1.8c0-0.6,0-1.1-0.1-1.5
		s-0.2-0.7-0.4-1c-0.2-0.3-0.4-0.5-0.6-0.6c-0.3-0.1-0.6-0.2-0.9-0.2c-0.5,0-0.9,0.1-1.2,0.4c-0.3,0.3-0.5,0.6-0.7,1.1
		s-0.2,1.1-0.2,1.8C296.3,83.7,296.5,84.6,297,85.1L297,85.1L297,85.1z M297.5,80.3c0.2-0.3,0.5-0.5,0.9-0.5s0.7,0.2,0.9,0.5
		c0.2,0.3,0.4,1.1,0.4,2.1c0,1.1-0.1,1.8-0.4,2.1c-0.2,0.4-0.6,0.5-0.9,0.5c-0.4,0-0.7-0.2-0.9-0.5c-0.2-0.4-0.4-1.1-0.4-2.1
		C297.1,81.5,297.3,80.7,297.5,80.3L297.5,80.3L297.5,80.3z M302.7,85.7v-0.9h-0.9v0.9H302.7L302.7,85.7z"/>
	<path d="M307.2,85.7v-1.5h0.9v-0.7h-0.9v-4.2h-0.6l-2.9,4.2v0.7h2.8v1.5H307.2L307.2,85.7z M304.3,83.4l2-2.9v2.9H304.3L304.3,83.4
		z"/>
	<path d="M297,64.6c0.4,0.4,0.8,0.7,1.5,0.7c0.5,0,0.9-0.1,1.2-0.4c0.3-0.3,0.5-0.6,0.7-1.1s0.2-1.1,0.2-1.8c0-0.6,0-1.1-0.1-1.5
		s-0.2-0.7-0.4-1c-0.2-0.3-0.4-0.5-0.6-0.6c-0.3-0.1-0.6-0.2-0.9-0.2c-0.5,0-0.9,0.1-1.2,0.4c-0.3,0.3-0.5,0.6-0.7,1.1
		s-0.2,1.1-0.2,1.8C296.3,63.2,296.5,64.1,297,64.6L297,64.6L297,64.6z M297.5,59.8c0.2-0.3,0.5-0.5,0.9-0.5s0.7,0.2,0.9,0.5
		c0.2,0.3,0.4,1.1,0.4,2.1c0,1.1-0.1,1.8-0.4,2.1c-0.2,0.4-0.6,0.5-0.9,0.5c-0.4,0-0.7-0.2-0.9-0.5c-0.2-0.4-0.4-1.1-0.4-2.1
		S297.3,60.2,297.5,59.8L297.5,59.8L297.5,59.8z M302.7,65.2v-0.9h-0.9v0.9H302.7L302.7,65.2z"/>
	<path d="M304.5,64.8c0.4,0.3,0.8,0.5,1.4,0.5c0.7,0,1.3-0.3,1.7-0.8c0.3-0.4,0.5-0.9,0.5-1.5s-0.2-1.1-0.6-1.5s-0.9-0.6-1.4-0.6
		c-0.4,0-0.8,0.1-1.2,0.4l0.3-1.7h2.6v-0.8h-3.2l-0.6,3.3l0.7,0.1c0.1-0.2,0.3-0.3,0.5-0.5c0.2-0.1,0.4-0.2,0.7-0.2
		c0.4,0,0.7,0.1,1,0.4s0.4,0.6,0.4,1.1s-0.1,0.9-0.4,1.1c-0.3,0.3-0.6,0.4-1,0.4c-0.3,0-0.6-0.1-0.8-0.3c-0.2-0.2-0.4-0.5-0.4-0.9
		l-0.8,0.1C303.9,64,304.1,64.4,304.5,64.8L304.5,64.8z"/>
	<polyline class="st6" points="330.8,134.5 330.8,134.5 348,131.5 365.1,132.4 382.2,129 399.3,132.6 416.4,131.2 433.5,131.6 
		450.6,131 	"/>
	<rect x="329.3" y="133" width="3.1" height="3.1"/>
	<rect x="346.4" y="129.9" width="3.1" height="3.1"/>
	<rect x="363.5" y="130.9" width="3.1" height="3.1"/>
	<rect x="380.6" y="127.4" width="3.1" height="3.1"/>
	<rect x="397.7" y="131" width="3.1" height="3.1"/>
	<rect x="414.8" y="129.7" width="3.1" height="3.1"/>
	<rect x="431.9" y="130.1" width="3.1" height="3.1"/>
	<rect x="449" y="129.4" width="3.1" height="3.1"/>
	<polyline class="st7" points="330.8,130.4 330.8,130.4 348,126.6 365.1,131.8 382.2,123.9 399.3,124.5 416.4,125.8 433.5,123.9 
		450.6,122 	"/>
	<path class="st8" d="M329.3,128.6h3.1 M330.8,128.6v3.4 M329.3,132.1h3.1 M346.4,123.3h3.1 M348,123.3v6.7 M346.4,129.9h3.1
		 M363.5,130.1h3.1 M365.1,130.1v3.4 M363.5,133.5h3.1 M380.6,120.9h3.1 M382.2,120.9v6 M380.6,126.9h3.1 M397.7,121.8h3.1
		 M399.3,121.8v5.3 M397.7,127.1h3.1 M414.8,123.5h3.1 M416.4,123.5v4.6 M414.8,128.1h3.1 M431.9,122.1h3.1 M433.5,122.1v3.4
		 M431.9,125.6h3.1 M449,120.2h3.1 M450.6,120.2v3.6 M449,123.8h3.1"/>
	<path d="M331.9,129.3c0.6,0.6,0.6,1.6,0,2.2c-0.6,0.6-1.6,0.6-2.2,0s-0.6-1.6,0-2.2C330.4,128.7,331.3,128.7,331.9,129.3"/>
	<path d="M349,125.5c0.6,0.6,0.6,1.6,0,2.2c-0.6,0.6-1.6,0.6-2.2,0s-0.6-1.6,0-2.2C347.5,124.9,348.4,124.9,349,125.5"/>
	<path d="M366.1,130.7c0.6,0.6,0.6,1.6,0,2.2c-0.6,0.6-1.6,0.6-2.2,0s-0.6-1.6,0-2.2C364.6,130.1,365.5,130.1,366.1,130.7"/>
	<path d="M383.3,122.9c0.6,0.6,0.6,1.6,0,2.2c-0.6,0.6-1.6,0.6-2.2,0s-0.6-1.6,0-2.2C381.7,122.2,382.6,122.2,383.3,122.9"/>
	<path d="M400.4,123.4c0.6,0.6,0.6,1.6,0,2.2c-0.6,0.6-1.6,0.6-2.2,0s-0.6-1.6,0-2.2S399.8,122.8,400.4,123.4"/>
	<path d="M417.5,124.7c0.6,0.6,0.6,1.6,0,2.2c-0.6,0.6-1.6,0.6-2.2,0s-0.6-1.6,0-2.2S416.9,124.1,417.5,124.7"/>
	<path d="M434.6,122.8c0.6,0.6,0.6,1.6,0,2.2c-0.6,0.6-1.6,0.6-2.2,0s-0.6-1.6,0-2.2C433,122.2,434,122.2,434.6,122.8"/>
	<path d="M451.7,120.9c0.6,0.6,0.6,1.6,0,2.2c-0.6,0.6-1.6,0.6-2.2,0s-0.6-1.6,0-2.2S451.1,120.3,451.7,120.9"/>
	<path d="M384.3,198.3v-3.6l3.2-5h-2l-2,3.4l-2-3.4h-2l3.1,5v3.6H384.3L384.3,198.3z M390.8,197c-0.2,0.1-0.4,0.2-0.7,0.2
		c-0.4,0-0.7-0.1-0.9-0.4c-0.3-0.3-0.4-0.7-0.4-1.1h4.1c0-1.3-0.2-2.2-0.8-2.8c-0.5-0.6-1.3-0.9-2.2-0.9c-0.8,0-1.5,0.3-2,0.9
		s-0.8,1.4-0.8,2.4c0,0.9,0.2,1.6,0.6,2.1c0.5,0.7,1.3,1.1,2.4,1.1c0.7,0,1.3-0.2,1.7-0.5c0.5-0.3,0.8-0.8,1-1.4l-1.6-0.3
		C391.1,196.7,391,196.9,390.8,197L390.8,197z M388.9,194.7c0-0.4,0.1-0.8,0.3-1.1c0.2-0.3,0.5-0.4,0.9-0.4c0.3,0,0.6,0.1,0.9,0.4
		c0.2,0.2,0.4,0.6,0.4,1.1H388.9L388.9,194.7z"/>
	<path d="M395.9,193.4c0.2-0.1,0.4-0.2,0.7-0.2c0.4,0,0.7,0.1,0.9,0.2c0.2,0.1,0.2,0.4,0.2,0.7v0.2c-0.3,0.1-0.8,0.3-1.6,0.4
		c-0.6,0.1-1,0.2-1.3,0.4c-0.3,0.1-0.5,0.4-0.7,0.6c-0.2,0.3-0.3,0.6-0.3,0.9c0,0.5,0.2,1,0.6,1.3s0.9,0.5,1.5,0.5
		c0.4,0,0.7-0.1,1-0.2s0.6-0.3,0.9-0.6c0,0,0,0.1,0.1,0.2c0.1,0.2,0.1,0.4,0.2,0.5h1.6c-0.1-0.3-0.2-0.6-0.3-0.8
		c-0.1-0.3-0.1-0.7-0.1-1.2v-1.9c0-0.7-0.1-1.2-0.2-1.5c-0.1-0.3-0.4-0.5-0.8-0.7s-0.9-0.3-1.6-0.3c-0.8,0-1.4,0.1-1.8,0.4
		c-0.4,0.3-0.7,0.7-0.9,1.3l1.5,0.3C395.6,193.7,395.8,193.5,395.9,193.4L395.9,193.4z M397.7,195.7c0,0.4,0,0.7-0.1,0.8
		c-0.1,0.2-0.2,0.4-0.4,0.5c-0.3,0.2-0.6,0.3-0.8,0.3c-0.3,0-0.5-0.1-0.7-0.3c-0.2-0.2-0.3-0.4-0.3-0.6s0.1-0.4,0.3-0.6
		c0.1-0.1,0.4-0.2,0.9-0.3c0.5-0.1,0.8-0.2,1-0.3v0.5H397.7z M402.5,196.4c0-1.1,0-1.8,0.1-2.1c0.1-0.3,0.2-0.6,0.4-0.7
		c0.2-0.1,0.4-0.2,0.6-0.2s0.5,0.1,0.8,0.3l0.5-1.4c-0.3-0.2-0.7-0.3-1.1-0.3c-0.3,0-0.5,0.1-0.7,0.2c-0.2,0.1-0.4,0.4-0.7,0.8v-0.9
		h-1.5v6.2h1.6L402.5,196.4L402.5,196.4z"/>
	<path d="M292,131.2h-3.2v-1.1c0-0.8,0-1.4-0.1-1.8c-0.1-0.3-0.2-0.6-0.4-0.9c-0.2-0.3-0.5-0.5-0.8-0.7c-0.4-0.2-0.8-0.3-1.3-0.3
		c-0.7,0-1.2,0.2-1.7,0.5c-0.4,0.3-0.7,0.7-0.8,1.2c-0.1,0.3-0.1,1-0.1,2.1v2.8h8.6v-1.8H292z M284.8,130.4c0-0.6,0-1,0.1-1.2
		c0.1-0.3,0.2-0.5,0.4-0.7c0.2-0.2,0.5-0.3,0.8-0.3s0.5,0.1,0.7,0.2c0.2,0.1,0.3,0.3,0.4,0.5s0.1,0.7,0.1,1.4v0.9h-2.4v-0.8
		L284.8,130.4L284.8,130.4z M292.8,122.9c-0.6,0.2-1.2,0.4-1.9,0.5c-0.7,0.1-1.3,0.2-2,0.2c-0.9,0-1.8-0.1-2.6-0.3
		c-0.8-0.2-1.8-0.6-3-1.1v1.1c0.7,0.5,1.5,0.9,2.4,1.3c1,0.4,2.1,0.6,3.2,0.6c0.9,0,1.9-0.2,2.8-0.5c1-0.3,1.9-0.8,2.8-1.4v-1.1
		C293.7,122.6,293.2,122.8,292.8,122.9L292.8,122.9L292.8,122.9z M287,121.7v-0.9h4.9v-1.6H287V118h-1.3v1.2h-0.4
		c-0.3,0-0.5-0.1-0.6-0.2c-0.1-0.1-0.2-0.3-0.2-0.5s0-0.5,0.1-0.8l-1.1-0.2c-0.1,0.4-0.2,0.9-0.2,1.4s0.1,0.8,0.2,1.1
		c0.2,0.3,0.4,0.5,0.6,0.6s0.6,0.2,1.2,0.2h0.5v0.9H287L287,121.7z M290.7,113.7c0.1,0.2,0.2,0.4,0.2,0.7c0,0.4-0.1,0.7-0.4,0.9
		c-0.3,0.3-0.7,0.4-1.1,0.4v-4.1c-1.3,0-2.2,0.2-2.8,0.8c-0.6,0.5-0.9,1.3-0.9,2.2c0,0.8,0.3,1.5,0.9,2s1.4,0.8,2.4,0.8
		c0.9,0,1.6-0.2,2.1-0.6c0.7-0.5,1.1-1.3,1.1-2.4c0-0.7-0.2-1.3-0.5-1.7c-0.3-0.5-0.8-0.8-1.4-1l-0.3,1.6
		C290.3,113.4,290.5,113.6,290.7,113.7L290.7,113.7z M288.3,115.7c-0.4,0-0.8-0.1-1.1-0.3c-0.3-0.2-0.4-0.5-0.4-0.9
		c0-0.3,0.1-0.6,0.4-0.9c0.2-0.2,0.6-0.4,1.1-0.4V115.7L288.3,115.7z M292,110.4v-1.6h-3c-0.6,0-1,0-1.3-0.1s-0.5-0.2-0.6-0.4
		s-0.2-0.4-0.2-0.7c0-0.2,0-0.4,0.1-0.5s0.2-0.2,0.4-0.3s0.6-0.1,1.2-0.1h3.4V105h-3c-0.6,0-1,0-1.3-0.1s-0.5-0.2-0.6-0.4
		s-0.2-0.4-0.2-0.7s0.1-0.6,0.4-0.7c0.2-0.1,0.6-0.2,1.2-0.2h3.6v-1.6h-4c-0.6,0-1,0.1-1.3,0.2c-0.4,0.2-0.6,0.4-0.8,0.7
		c-0.2,0.3-0.3,0.7-0.3,1.2c0,0.4,0.1,0.7,0.2,1s0.4,0.6,0.7,0.9c-0.3,0.2-0.6,0.4-0.7,0.7s-0.2,0.6-0.2,1c0,0.8,0.3,1.4,1,1.9h-0.8
		v1.5L292,110.4L292,110.4z M287,98c-0.1-0.2-0.2-0.4-0.2-0.7c0-0.4,0.1-0.7,0.2-0.9s0.4-0.2,0.7-0.2h0.2c0.1,0.3,0.3,0.8,0.4,1.6
		c0.1,0.6,0.2,1,0.4,1.3c0.1,0.3,0.4,0.5,0.6,0.7c0.3,0.2,0.6,0.3,0.9,0.3c0.5,0,1-0.2,1.3-0.6c0.3-0.4,0.5-0.9,0.5-1.5
		c0-0.4-0.1-0.7-0.2-1s-0.3-0.6-0.6-0.9c0,0,0.1,0,0.2-0.1c0.2-0.1,0.4-0.1,0.5-0.2v-1.6c-0.3,0.1-0.6,0.2-0.8,0.3
		c-0.3,0.1-0.7,0.1-1.2,0.1H288c-0.7,0-1.2,0.1-1.5,0.2c-0.3,0.1-0.5,0.4-0.7,0.8c-0.2,0.4-0.3,0.9-0.3,1.6c0,0.8,0.1,1.4,0.4,1.8
		c0.3,0.4,0.7,0.7,1.3,0.9l0.3-1.5C287.3,98.3,287.1,98.1,287,98L287,98z M289.3,96.2c0.4,0,0.7,0,0.8,0.1c0.2,0.1,0.4,0.2,0.5,0.4
		c0.2,0.3,0.3,0.6,0.3,0.8c0,0.3-0.1,0.5-0.3,0.7c-0.2,0.2-0.4,0.3-0.6,0.3s-0.4-0.1-0.6-0.3c-0.1-0.1-0.2-0.4-0.3-0.9
		c-0.1-0.5-0.2-0.8-0.3-1h0.5V96.2z M292,91.3h-8.6v1.6h8.6V91.3L292,91.3z M290.7,86.4c0.1,0.2,0.2,0.4,0.2,0.7
		c0,0.4-0.1,0.7-0.4,0.9c-0.3,0.3-0.7,0.4-1.1,0.4v-4.1c-1.3,0-2.2,0.2-2.8,0.8c-0.6,0.5-0.9,1.3-0.9,2.2c0,0.8,0.3,1.5,0.9,2
		s1.4,0.8,2.4,0.8c0.9,0,1.6-0.2,2.1-0.6c0.7-0.5,1.1-1.3,1.1-2.4c0-0.7-0.2-1.3-0.5-1.7c-0.3-0.5-0.8-0.8-1.4-1L290,86
		C290.3,86.1,290.5,86.2,290.7,86.4L290.7,86.4z M288.3,88.4c-0.4,0-0.8-0.1-1.1-0.3c-0.3-0.2-0.4-0.5-0.4-0.9
		c0-0.3,0.1-0.6,0.4-0.9c0.2-0.2,0.6-0.4,1.1-0.4V88.4L288.3,88.4z"/>
	<path d="M294.5,82.2c-1-0.7-2.1-1.2-3.1-1.4c-0.9-0.3-1.8-0.4-2.6-0.4c-1,0-1.9,0.2-2.9,0.5c-0.9,0.3-1.8,0.8-2.7,1.4v1.1
		c1.2-0.5,2.2-0.9,3-1.1c0.8-0.2,1.7-0.3,2.6-0.3c0.5,0,0.9,0,1.3,0.1s0.9,0.1,1.4,0.3c0.5,0.1,0.9,0.2,1.3,0.4
		c0.4,0.1,0.9,0.4,1.6,0.7v-1.3H294.5z"/>
	<path d="M383.8,33.6H382l-3.3,8.6h1.8l0.7-2h3.4l0.8,2h1.9L383.8,33.6L383.8,33.6z M381.7,38.8l1.2-3.2l1.2,3.2H381.7L381.7,38.8z
		 M389.7,40.3c0-1.1,0-1.8,0.1-2.1c0.1-0.3,0.2-0.6,0.4-0.7c0.2-0.1,0.4-0.2,0.6-0.2s0.5,0.1,0.8,0.3l0.5-1.4
		c-0.3-0.2-0.7-0.3-1.1-0.3c-0.3,0-0.5,0.1-0.7,0.2s-0.4,0.4-0.7,0.8V36h-1.5v6.2h1.6L389.7,40.3L389.7,40.3z M393.9,42.2l1.3-1.9
		l1.3,1.9h2l-2.3-3.3l2.1-2.9h-1.9l-1.2,1.7l-1.1-1.7h-2l2.2,3l-2.2,3.2L393.9,42.2L393.9,42.2z M401.1,35.1v-1.5h-1.6v1.5H401.1
		L401.1,35.1z M401.1,42.2V36h-1.6v6.2H401.1L401.1,42.2z"/>
	<path d="M406,42.2l2.5-6.2h-1.7l-1.2,3.2c-0.1,0.2-0.1,0.4-0.2,0.5c0,0.1-0.1,0.3-0.2,0.5l-0.3-1.1l-1.2-3.2H402l2.5,6.2L406,42.2
		L406,42.2z"/>
	<path d="M465.2,70.4c0.2-0.5,0.3-1,0.3-1.6c0-0.7-0.1-1.3-0.4-1.9c-0.3-0.6-0.7-1-1.2-1.3s-1.1-0.5-1.8-0.5c-0.7,0-1.2,0.2-1.8,0.5
		c-0.5,0.3-0.9,0.7-1.2,1.3c-0.3,0.6-0.4,1.2-0.4,1.9s0.1,1.3,0.4,1.9c0.3,0.6,0.7,1,1.2,1.3s1.1,0.5,1.8,0.5c0.6,0,1.2-0.1,1.8-0.4
		c0.5,0.4,1,0.7,1.5,0.9l0.3-0.7c-0.4-0.1-0.8-0.4-1.2-0.7C464.8,71.3,465,70.9,465.2,70.4L465.2,70.4z M462.1,71.1
		c0.3,0.1,0.6,0.2,0.9,0.4c-0.3,0.1-0.6,0.2-1,0.2c-0.7,0-1.3-0.2-1.8-0.7s-0.7-1.2-0.7-2.1c0-1,0.2-1.7,0.7-2.2s1.1-0.7,1.8-0.7
		c0.5,0,0.9,0.1,1.3,0.4c0.4,0.2,0.7,0.6,0.9,1s0.3,0.9,0.3,1.5c0,1-0.3,1.8-0.8,2.3c-0.4-0.3-0.8-0.5-1.4-0.7L462.1,71.1
		L462.1,71.1z M470.8,72.4v-5.2H470V70c0,0.4,0,0.8-0.1,1s-0.3,0.4-0.5,0.6c-0.2,0.1-0.5,0.2-0.7,0.2s-0.5-0.1-0.7-0.2
		c-0.2-0.1-0.3-0.3-0.4-0.5c0-0.2-0.1-0.5-0.1-0.9v-2.9h-0.9v3.2c0,0.4,0,0.6,0.1,0.8c0.1,0.3,0.1,0.5,0.3,0.7
		c0.1,0.2,0.3,0.3,0.6,0.4c0.3,0.1,0.6,0.2,0.9,0.2c0.7,0,1.2-0.3,1.6-0.9v0.8h0.7L470.8,72.4L470.8,72.4z M475.8,72.4h0.9
		c-0.1-0.2-0.2-0.4-0.2-0.6c0-0.2-0.1-0.7-0.1-1.6V69c0-0.4,0-0.7,0-0.8c-0.1-0.2-0.1-0.4-0.3-0.6c-0.1-0.2-0.3-0.3-0.6-0.4
		c-0.3-0.1-0.6-0.2-1.1-0.2c-0.4,0-0.8,0.1-1.2,0.2c-0.3,0.1-0.6,0.3-0.8,0.5s-0.3,0.5-0.4,0.9l0.9,0.1c0.1-0.4,0.2-0.6,0.4-0.8
		c0.2-0.1,0.5-0.2,0.9-0.2s0.8,0.1,1,0.3c0.2,0.1,0.2,0.4,0.2,0.8c0,0,0,0.1,0,0.2c-0.3,0.1-0.9,0.2-1.6,0.3c-0.3,0-0.6,0.1-0.8,0.1
		c-0.2,0.1-0.4,0.2-0.6,0.3c-0.2,0.1-0.3,0.3-0.5,0.5c-0.1,0.2-0.2,0.4-0.2,0.7c0,0.4,0.2,0.8,0.5,1.1s0.7,0.4,1.3,0.4
		c0.3,0,0.7-0.1,1-0.2c0.3-0.1,0.6-0.3,0.9-0.6C475.6,72,475.7,72.2,475.8,72.4L475.8,72.4L475.8,72.4z M475.5,70.1
		c0,0.4,0,0.7-0.1,0.9c-0.1,0.3-0.3,0.5-0.6,0.6s-0.6,0.2-0.9,0.2c-0.3,0-0.6-0.1-0.8-0.2c-0.2-0.2-0.3-0.4-0.3-0.6
		c0-0.2,0-0.3,0.1-0.4c0.1-0.1,0.2-0.2,0.3-0.3s0.4-0.1,0.8-0.2c0.6-0.1,1.1-0.2,1.4-0.3L475.5,70.1L475.5,70.1z M478.7,72.4v-2.8
		c0-0.7,0.1-1.1,0.4-1.4c0.3-0.2,0.6-0.4,1-0.4c0.2,0,0.4,0.1,0.6,0.2c0.2,0.1,0.3,0.2,0.4,0.4c0.1,0.2,0.1,0.4,0.1,0.8v3.2h0.9
		v-3.2c0-0.4,0-0.7,0-0.9c-0.1-0.3-0.1-0.5-0.3-0.6c-0.1-0.2-0.3-0.3-0.6-0.4c-0.3-0.1-0.5-0.2-0.9-0.2c-0.7,0-1.3,0.3-1.7,0.9v-0.7
		h-0.8v5.2h0.9L478.7,72.4L478.7,72.4z M484.9,71.7c-0.1,0-0.2,0-0.3-0.1c-0.1,0-0.1-0.1-0.2-0.2c0-0.1,0-0.2,0-0.5v-3h0.9v-0.7
		h-0.9v-1.8l-0.9,0.5v1.3h-0.6v0.7h0.6v3c0,0.5,0,0.9,0.1,1c0.1,0.2,0.2,0.3,0.4,0.4s0.4,0.2,0.7,0.2c0.2,0,0.4,0,0.7-0.1l-0.1-0.8
		C485.1,71.7,485,71.7,484.9,71.7L484.9,71.7L484.9,71.7z M491.7,72.4c0.5,0,0.8,0,1.2-0.1c0.3-0.1,0.6-0.2,0.8-0.4s0.4-0.4,0.5-0.7
		s0.2-0.6,0.2-0.9c0-0.4-0.1-0.8-0.3-1.1s-0.6-0.5-1-0.6c0.3-0.2,0.6-0.4,0.8-0.7s0.2-0.6,0.2-0.9c0-0.3-0.1-0.6-0.3-0.9
		c-0.2-0.3-0.4-0.5-0.8-0.7c-0.3-0.1-0.8-0.2-1.3-0.2H489v7.2L491.7,72.4L491.7,72.4z M489.9,66.1h1.4c0.5,0,0.9,0,1.1,0.1
		c0.2,0.1,0.4,0.2,0.5,0.4s0.2,0.4,0.2,0.6c0,0.3-0.1,0.5-0.2,0.6s-0.3,0.3-0.5,0.4c-0.2,0.1-0.5,0.1-0.9,0.1H490L489.9,66.1
		L489.9,66.1z M489.9,69.1h1.7c0.5,0,0.8,0,1,0.1s0.4,0.2,0.6,0.4c0.1,0.2,0.2,0.4,0.2,0.7c0,0.2,0,0.4-0.1,0.6
		c-0.1,0.2-0.2,0.3-0.4,0.4c-0.1,0.1-0.3,0.2-0.5,0.2c-0.1,0-0.3,0-0.6,0H490L489.9,69.1L489.9,69.1z M496.4,66.3v-1h-0.9v1H496.4
		L496.4,66.3z M496.4,72.4v-5.2h-0.9v5.2H496.4L496.4,72.4z M498.1,71.8c0.4,0.5,1,0.7,1.8,0.7c0.5,0,0.9-0.1,1.3-0.3
		c0.4-0.2,0.7-0.5,0.9-0.9s0.3-0.9,0.3-1.6c0-0.8-0.2-1.5-0.7-1.9c-0.5-0.5-1-0.7-1.7-0.7c-0.6,0-1.2,0.2-1.6,0.6
		c-0.5,0.5-0.8,1.2-0.8,2.1C497.5,70.7,497.7,71.4,498.1,71.8L498.1,71.8z M498.8,68.3c0.3-0.3,0.7-0.5,1.1-0.5
		c0.4,0,0.8,0.2,1.1,0.5s0.4,0.8,0.4,1.5s-0.1,1.2-0.4,1.5c-0.3,0.3-0.7,0.5-1.1,0.5c-0.4,0-0.8-0.2-1.1-0.5s-0.4-0.8-0.4-1.5
		S498.5,68.7,498.8,68.3L498.8,68.3z"/>
	<line class="st9" x1="441.1" y1="69.7" x2="452.1" y2="69.7"/>
	<path d="M447.7,68.6c0.6,0.6,0.6,1.6,0,2.2c-0.6,0.6-1.6,0.6-2.2,0s-0.6-1.6,0-2.2C446.1,68,447.1,68,447.7,68.6"/>
	<path d="M463.3,83.6c-0.4,0.3-0.8,0.5-1.3,0.5c-0.4,0-0.8-0.1-1.2-0.3c-0.4-0.2-0.7-0.6-0.8-1c-0.2-0.5-0.3-1-0.3-1.6
		c0-0.5,0.1-0.9,0.2-1.4c0.1-0.4,0.4-0.8,0.8-1.1s0.8-0.4,1.4-0.4c0.5,0,0.9,0.1,1.2,0.4c0.3,0.2,0.6,0.6,0.7,1.1l0.9-0.2
		c-0.2-0.7-0.5-1.2-1-1.5c-0.5-0.4-1.1-0.5-1.8-0.5c-0.6,0-1.2,0.1-1.7,0.4c-0.5,0.3-0.9,0.7-1.2,1.3c-0.3,0.6-0.4,1.2-0.4,2
		c0,0.7,0.1,1.3,0.4,1.9c0.3,0.6,0.6,1.1,1.1,1.4c0.5,0.3,1.1,0.5,1.9,0.5c0.7,0,1.4-0.2,1.9-0.6c0.5-0.4,0.9-1,1.1-1.8l-0.9-0.2
		C464,82.8,463.7,83.3,463.3,83.6L463.3,83.6z M466.3,83.7c0.2,0.4,0.6,0.7,1,0.9s1,0.3,1.6,0.3c0.5,0,1-0.1,1.4-0.3
		s0.7-0.4,0.9-0.8c0.2-0.3,0.3-0.7,0.3-1.1c0-0.4-0.1-0.7-0.3-1s-0.5-0.5-0.9-0.7c-0.3-0.1-0.8-0.3-1.6-0.5s-1.2-0.3-1.4-0.5
		s-0.3-0.4-0.3-0.6c0-0.3,0.1-0.5,0.4-0.8c0.3-0.2,0.7-0.3,1.3-0.3s1,0.1,1.2,0.3c0.3,0.2,0.4,0.6,0.5,1l0.9-0.1
		c0-0.4-0.1-0.8-0.4-1.1c-0.2-0.3-0.5-0.6-0.9-0.8s-0.9-0.3-1.4-0.3s-0.9,0.1-1.3,0.2c-0.4,0.2-0.7,0.4-0.9,0.7s-0.3,0.7-0.3,1
		s0.1,0.6,0.3,0.9c0.2,0.3,0.4,0.5,0.8,0.7c0.3,0.1,0.7,0.3,1.4,0.4c0.7,0.2,1.1,0.3,1.3,0.3c0.3,0.1,0.5,0.3,0.6,0.4
		c0.1,0.2,0.2,0.4,0.2,0.6c0,0.2-0.1,0.4-0.2,0.6c-0.1,0.2-0.3,0.3-0.6,0.4c-0.3,0.1-0.6,0.2-1,0.2s-0.8-0.1-1.1-0.2
		c-0.3-0.1-0.6-0.3-0.7-0.6c-0.2-0.2-0.3-0.5-0.3-0.9l-0.9,0.1C465.9,82.9,466,83.4,466.3,83.7L466.3,83.7z"/>
	<line class="st10" x1="441.1" y1="82" x2="452.1" y2="82"/>
	<rect x="445" y="80.5" width="3.1" height="3.1"/>
	<g class="st11">
		<path d="M98.7,44h-1.9L96,42h-3.4l-0.7,2h-1.8l3.3-8.6h1.8L98.7,44z M95.5,40.6l-1.2-3.2l-1.2,3.2H95.5z"/>
		<path d="M101.2,44h-1.6v-6.2h1.5v0.9c0.3-0.4,0.5-0.7,0.7-0.8s0.4-0.2,0.7-0.2c0.4,0,0.7,0.1,1.1,0.3l-0.5,1.4
			c-0.3-0.2-0.5-0.3-0.8-0.3c-0.2,0-0.4,0.1-0.6,0.2s-0.3,0.4-0.4,0.7s-0.1,1-0.1,2.1L101.2,44L101.2,44z"/>
		<path d="M103.5,44l2.2-3.2l-2.2-3h2l1.1,1.7l1.2-1.7h1.9l-2.1,2.9l2.3,3.3h-2l-1.3-1.9l-1.3,1.9C105.3,44,103.5,44,103.5,44z"/>
		<path d="M111,36.9v-1.5h1.6v1.5H111z M111,44v-6.2h1.6V44H111z"/>
		<path d="M116,44l-2.5-6.2h1.7l1.2,3.2l0.3,1.1c0.1-0.3,0.1-0.4,0.2-0.5c0.1-0.2,0.1-0.4,0.2-0.5l1.2-3.2h1.7l-2.5,6.2L116,44
			L116,44z"/>
		<path d="M131.6,44h-1.9l-0.8-2h-3.4l-0.7,2H123l3.3-8.6h1.8L131.6,44z M128.4,40.6l-1.2-3.2l-1.2,3.2H128.4z"/>
		<path d="M134.1,44h-1.6v-6.2h1.5v0.9c0.3-0.4,0.5-0.7,0.7-0.8s0.4-0.2,0.7-0.2c0.4,0,0.7,0.1,1.1,0.3l-0.5,1.4
			c-0.3-0.2-0.5-0.3-0.8-0.3c-0.2,0-0.4,0.1-0.6,0.2s-0.3,0.4-0.4,0.7s-0.1,1-0.1,2.1L134.1,44L134.1,44z"/>
		<path d="M140.1,37.8v1.3H139v2.5c0,0.5,0,0.8,0,0.9s0.1,0.2,0.1,0.2s0.2,0.1,0.3,0.1c0.2,0,0.4-0.1,0.7-0.2l0.1,1.3
			c-0.4,0.2-0.8,0.2-1.3,0.2c-0.3,0-0.6,0-0.8-0.1s-0.4-0.2-0.5-0.4s-0.2-0.4-0.2-0.6s-0.1-0.6-0.1-1.2v-2.7h-0.8v-1.3h0.8v-1.2
			l1.7-1v2.2C139,37.8,140.1,37.8,140.1,37.8z"/>
		<path d="M141.2,36.9v-1.5h1.6v1.5H141.2z M141.2,44v-6.2h1.6V44H141.2z"/>
		<path d="M150,39.6l-1.6,0.3c-0.1-0.3-0.2-0.6-0.4-0.7s-0.4-0.2-0.8-0.2c-0.4,0-0.7,0.1-1,0.4s-0.4,0.8-0.4,1.4
			c0,0.7,0.1,1.3,0.4,1.6s0.6,0.5,1,0.5c0.3,0,0.6-0.1,0.8-0.3s0.3-0.5,0.4-0.9L150,42c-0.2,0.7-0.5,1.3-1,1.7s-1.1,0.6-1.9,0.6
			c-0.9,0-1.6-0.3-2.2-0.9s-0.8-1.4-0.8-2.4s0.3-1.8,0.8-2.4s1.3-0.9,2.2-0.9c0.8,0,1.4,0.2,1.8,0.5S149.8,38.9,150,39.6z"/>
		<path d="M151.2,44v-8.6h1.6V44H151.2z"/>
		<path d="M158.1,42l1.6,0.3c-0.2,0.6-0.5,1.1-1,1.4s-1,0.5-1.7,0.5c-1.1,0-1.9-0.4-2.4-1.1c-0.4-0.6-0.6-1.3-0.6-2.1
			c0-1,0.3-1.8,0.8-2.4s1.2-0.9,2-0.9c0.9,0,1.7,0.3,2.2,0.9s0.8,1.5,0.8,2.8h-4.1c0,0.5,0.1,0.9,0.4,1.1s0.6,0.4,0.9,0.4
			c0.3,0,0.5-0.1,0.7-0.2S158.1,42.3,158.1,42z M158.2,40.4c0-0.5-0.1-0.8-0.4-1.1s-0.5-0.4-0.9-0.4s-0.7,0.1-0.9,0.4
			s-0.3,0.6-0.3,1.1H158.2z"/>
		<path d="M160.6,42.2l1.7-0.3c0.1,0.3,0.2,0.6,0.4,0.7s0.5,0.2,0.9,0.2s0.7-0.1,1-0.2c0.1-0.1,0.2-0.3,0.2-0.4s0-0.2-0.1-0.3
			c-0.1-0.1-0.3-0.2-0.6-0.2c-1.3-0.3-2.2-0.6-2.5-0.8c-0.5-0.3-0.7-0.8-0.7-1.4c0-0.5,0.2-1,0.6-1.4s1.1-0.6,2-0.6s1.5,0.1,1.9,0.4
			s0.7,0.7,0.9,1.2l-1.6,0.3c-0.1-0.2-0.2-0.4-0.4-0.6s-0.5-0.2-0.8-0.2c-0.4,0-0.7,0.1-0.9,0.2c-0.1,0.1-0.2,0.2-0.2,0.3
			c0,0.1,0.1,0.2,0.2,0.3c0.1,0.1,0.7,0.3,1.5,0.5s1.5,0.4,1.8,0.7c0.3,0.3,0.5,0.7,0.5,1.2c0,0.6-0.2,1.1-0.7,1.5s-1.2,0.6-2.1,0.6
			c-0.8,0-1.5-0.2-2-0.5S160.8,42.8,160.6,42.2z"/>
		<path d="M176.4,42.5V44h-5.8c0.1-0.6,0.2-1.1,0.6-1.6s0.9-1.2,1.9-2.1c0.7-0.7,1.2-1.2,1.4-1.4c0.2-0.3,0.3-0.7,0.3-1
			c0-0.4-0.1-0.6-0.3-0.8s-0.5-0.3-0.8-0.3s-0.6,0.1-0.8,0.3s-0.3,0.6-0.4,1l-1.6-0.2c0.1-0.9,0.4-1.6,0.9-2s1.2-0.6,1.9-0.6
			c0.8,0,1.5,0.2,2,0.7s0.7,1,0.7,1.7c0,0.4-0.1,0.8-0.2,1.1s-0.4,0.7-0.7,1.1c-0.2,0.3-0.6,0.6-1.1,1.1s-0.8,0.8-1,0.9
			s-0.3,0.3-0.3,0.5h3.3V42.5z"/>
		<path d="M180.3,35.4c0.8,0,1.5,0.3,2,0.9c0.6,0.7,0.8,1.9,0.8,3.5s-0.3,2.8-0.8,3.5c-0.5,0.6-1.1,0.9-1.9,0.9c-0.8,0-1.5-0.3-2-1
			s-0.8-1.8-0.8-3.4s0.3-2.8,0.8-3.5C178.8,35.7,179.5,35.4,180.3,35.4z M180.3,36.7c-0.2,0-0.4,0.1-0.5,0.2s-0.3,0.4-0.4,0.7
			c-0.1,0.4-0.2,1.1-0.2,2.2s0.1,1.7,0.2,2.1s0.2,0.6,0.4,0.8s0.3,0.2,0.5,0.2s0.4-0.1,0.5-0.2s0.3-0.4,0.4-0.7
			c0.1-0.4,0.2-1.1,0.2-2.1s-0.1-1.7-0.2-2.1s-0.2-0.6-0.4-0.8S180.5,36.7,180.3,36.7z"/>
		<path d="M187,35.4c0.8,0,1.5,0.3,2,0.9c0.6,0.7,0.8,1.9,0.8,3.5s-0.3,2.8-0.8,3.5c-0.5,0.6-1.1,0.9-1.9,0.9c-0.8,0-1.5-0.3-2-1
			s-0.8-1.8-0.8-3.4s0.3-2.8,0.8-3.5C185.5,35.7,186.2,35.4,187,35.4z M187,36.7c-0.2,0-0.4,0.1-0.5,0.2s-0.3,0.4-0.4,0.7
			c-0.1,0.4-0.2,1.1-0.2,2.2s0.1,1.7,0.2,2.1s0.2,0.6,0.4,0.8s0.3,0.2,0.5,0.2s0.4-0.1,0.5-0.2s0.3-0.4,0.4-0.7
			c0.1-0.4,0.2-1.1,0.2-2.1s-0.1-1.7-0.2-2.1s-0.2-0.6-0.4-0.8S187.2,36.7,187,36.7z"/>
		<path d="M190.9,37.1v-1.5h5.6v1.2c-0.5,0.5-0.9,1.1-1.4,2s-0.8,1.8-1.1,2.7s-0.4,1.8-0.4,2.6H192c0-1.2,0.3-2.4,0.7-3.6
			s1.1-2.3,1.9-3.3L190.9,37.1L190.9,37.1z"/>
		<path d="M197.7,41.7v-1.6h3.2v1.6H197.7z"/>
		<path d="M207.1,42.5V44h-5.8c0.1-0.6,0.2-1.1,0.6-1.6s0.9-1.2,1.9-2.1c0.7-0.7,1.2-1.2,1.4-1.4c0.2-0.3,0.3-0.7,0.3-1
			c0-0.4-0.1-0.6-0.3-0.8s-0.5-0.3-0.8-0.3s-0.6,0.1-0.8,0.3s-0.3,0.6-0.4,1l-1.6-0.2c0.1-0.9,0.4-1.6,0.9-2s1.2-0.6,1.9-0.6
			c0.8,0,1.5,0.2,2,0.7s0.7,1,0.7,1.7c0,0.4-0.1,0.8-0.2,1.1s-0.4,0.7-0.7,1.1c-0.2,0.3-0.6,0.6-1.1,1.1s-0.8,0.8-1,0.9
			s-0.3,0.3-0.3,0.5h3.3V42.5z"/>
		<path d="M211,35.4c0.8,0,1.5,0.3,2,0.9c0.6,0.7,0.8,1.9,0.8,3.5s-0.3,2.8-0.8,3.5c-0.5,0.6-1.1,0.9-1.9,0.9s-1.5-0.3-2-1
			s-0.8-1.8-0.8-3.4s0.3-2.8,0.8-3.5C209.5,35.7,210.2,35.4,211,35.4z M211,36.7c-0.2,0-0.4,0.1-0.5,0.2s-0.3,0.4-0.4,0.7
			c-0.1,0.4-0.2,1.1-0.2,2.2s0.1,1.7,0.2,2.1s0.2,0.6,0.4,0.8s0.3,0.2,0.5,0.2s0.4-0.1,0.5-0.2s0.3-0.4,0.4-0.7
			c0.1-0.4,0.2-1.1,0.2-2.1s-0.1-1.7-0.2-2.1s-0.2-0.6-0.4-0.8S211.2,36.7,211,36.7z"/>
		<path d="M219.1,44h-1.6v-6.2c-0.6,0.6-1.3,1-2.1,1.2v-1.5c0.4-0.1,0.9-0.4,1.4-0.8s0.8-0.9,1-1.4h1.3L219.1,44L219.1,44z"/>
		<path d="M224.8,44v-1.7h-3.5v-1.4l3.7-5.5h1.4v5.4h1.1v1.4h-1.1v1.7L224.8,44L224.8,44z M224.8,40.8v-2.9l-2,2.9H224.8z"/>
	</g>
</g>
</svg>
