<?xml version="1.0" encoding="utf-8" standalone="no"?>
<!DOCTYPE svg PUBLIC "-//W3C//DTD SVG 1.1//EN"
  "http://www.w3.org/Graphics/SVG/1.1/DTD/svg11.dtd">
<!-- Created with matplotlib (http://matplotlib.org/) -->
<svg height="288pt" version="1.1" viewBox="0 0 432 288" width="432pt" xmlns="http://www.w3.org/2000/svg" xmlns:xlink="http://www.w3.org/1999/xlink">
 <defs>
  <style type="text/css">
*{stroke-linecap:butt;stroke-linejoin:round;}
  </style>
 </defs>
 <g id="figure_1">
  <g id="patch_1">
   <path d="M 0 288 
L 432 288 
L 432 0 
L 0 0 
z
" style="fill:#ffffff;"/>
  </g>
  <g id="axes_1">
   <g id="patch_2">
    <path d="M 34.984646 258.685354 
L 429.165354 258.685354 
L 429.165354 17.114646 
L 34.984646 17.114646 
z
" style="fill:#ffffff;"/>
   </g>
   <g id="PolyCollection_1">
    <path clip-path="url(#p3c444baae2)" d="M 65.176189 68.314563 
L 65.176189 258.685354 
L 65.176189 258.685354 
L 65.176189 63.987173 
L 65.176189 63.987173 
L 65.176189 68.314563 
z
" style="fill:#0d0d0d;"/>
    <path clip-path="url(#p3c444baae2)" d="M 110.283976 76.117652 
L 110.283976 258.685354 
L 110.283976 258.685354 
L 110.283976 71.2117 
L 110.283976 71.2117 
L 110.283976 76.117652 
z
" style="fill:#0d0d0d;"/>
    <path clip-path="url(#p3c444baae2)" d="M 155.391763 89.275855 
L 155.391763 258.685354 
L 155.391763 258.685354 
L 155.391763 86.386246 
L 155.391763 86.386246 
L 155.391763 89.275855 
z
" style="fill:#0d0d0d;"/>
    <path clip-path="url(#p3c444baae2)" d="M 200.499549 125.934325 
L 200.499549 258.685354 
L 200.499549 258.685354 
L 200.499549 120.884059 
L 200.499549 120.884059 
L 200.499549 125.934325 
z
" style="fill:#0d0d0d;"/>
    <path clip-path="url(#p3c444baae2)" d="M 245.607336 114.184543 
L 245.607336 258.685354 
L 245.607336 258.685354 
L 245.607336 111.779997 
L 245.607336 111.779997 
L 245.607336 114.184543 
z
" style="fill:#0d0d0d;"/>
    <path clip-path="url(#p3c444baae2)" d="M 290.715123 115.226316 
L 290.715123 258.685354 
L 290.715123 258.685354 
L 290.715123 112.769685 
L 290.715123 112.769685 
L 290.715123 115.226316 
z
" style="fill:#0d0d0d;"/>
    <path clip-path="url(#p3c444baae2)" d="M 335.822909 116.482025 
L 335.822909 258.685354 
L 335.822909 258.685354 
L 335.822909 115.009998 
L 335.822909 115.009998 
L 335.822909 116.482025 
z
" style="fill:#0d0d0d;"/>
    <path clip-path="url(#p3c444baae2)" d="M 380.930696 155.48628 
L 380.930696 258.685354 
L 380.930696 258.685354 
L 380.930696 153.034804 
L 380.930696 153.034804 
L 380.930696 155.48628 
z
" style="fill:#0d0d0d;"/>
   </g>
   <g id="patch_3">
    <path clip-path="url(#p3c444baae2)" d="M 56.154632 66.150868 
L 56.154632 258.685354 
L 74.197747 258.685354 
L 74.197747 66.150868 
L 56.154632 66.150868 
" style="fill:#0d0d0d;stroke:#000000;stroke-linejoin:miter;"/>
   </g>
   <g id="patch_4">
    <path clip-path="url(#p3c444baae2)" d="M 101.262419 73.664676 
L 101.262419 258.685354 
L 119.305533 258.685354 
L 119.305533 73.664676 
L 101.262419 73.664676 
" style="fill:#0d0d0d;stroke:#000000;stroke-linejoin:miter;"/>
   </g>
   <g id="patch_5">
    <path clip-path="url(#p3c444baae2)" d="M 146.370205 87.831051 
L 146.370205 258.685354 
L 164.41332 258.685354 
L 164.41332 87.831051 
L 146.370205 87.831051 
" style="fill:#0d0d0d;stroke:#000000;stroke-linejoin:miter;"/>
   </g>
   <g id="patch_6">
    <path clip-path="url(#p3c444baae2)" d="M 191.477992 123.409192 
L 191.477992 258.685354 
L 209.521107 258.685354 
L 209.521107 123.409192 
L 191.477992 123.409192 
" style="fill:#0d0d0d;stroke:#000000;stroke-linejoin:miter;"/>
   </g>
   <g id="patch_7">
    <path clip-path="url(#p3c444baae2)" d="M 236.585779 112.98227 
L 236.585779 258.685354 
L 254.628893 258.685354 
L 254.628893 112.98227 
L 236.585779 112.98227 
" style="fill:#0d0d0d;stroke:#000000;stroke-linejoin:miter;"/>
   </g>
   <g id="patch_8">
    <path clip-path="url(#p3c444baae2)" d="M 281.693565 113.998 
L 281.693565 258.685354 
L 299.73668 258.685354 
L 299.73668 113.998 
L 281.693565 113.998 
" style="fill:#0d0d0d;stroke:#000000;stroke-linejoin:miter;"/>
   </g>
   <g id="patch_9">
    <path clip-path="url(#p3c444baae2)" d="M 326.801352 115.746012 
L 326.801352 258.685354 
L 344.844467 258.685354 
L 344.844467 115.746012 
L 326.801352 115.746012 
" style="fill:#0d0d0d;stroke:#000000;stroke-linejoin:miter;"/>
   </g>
   <g id="patch_10">
    <path clip-path="url(#p3c444baae2)" d="M 371.909139 154.260542 
L 371.909139 258.685354 
L 389.952253 258.685354 
L 389.952253 154.260542 
L 371.909139 154.260542 
" style="fill:#0d0d0d;stroke:#000000;stroke-linejoin:miter;"/>
   </g>
   <g id="line2d_1">
    <path clip-path="url(#p3c444baae2)" d="M 65.176189 68.314563 
L 65.176189 63.987173 
M 110.283976 76.117652 
L 110.283976 71.2117 
M 155.391763 89.275855 
L 155.391763 86.386246 
M 200.499549 125.934325 
L 200.499549 120.884059 
M 245.607336 114.184543 
L 245.607336 111.779997 
M 290.715123 115.226316 
L 290.715123 112.769685 
M 335.822909 116.482025 
L 335.822909 115.009998 
M 380.930696 155.48628 
L 380.930696 153.034804 
" style="fill:none;stroke:#000000;stroke-linecap:round;"/>
   </g>
   <g id="PathCollection_1">
    <defs>
     <path d="M 2 0 
L -2 0 
L 2 0 
" id="mcb859dfd89" style="stroke:#000000;"/>
    </defs>
    <g clip-path="url(#p3c444baae2)">
     <use style="fill:#0d0d0d;stroke:#000000;" x="65.176189" xlink:href="#mcb859dfd89" y="68.314563"/>
     <use style="fill:#0d0d0d;stroke:#000000;" x="65.176189" xlink:href="#mcb859dfd89" y="63.987173"/>
     <use style="fill:#0d0d0d;stroke:#000000;" x="110.283976" xlink:href="#mcb859dfd89" y="76.117652"/>
     <use style="fill:#0d0d0d;stroke:#000000;" x="110.283976" xlink:href="#mcb859dfd89" y="71.2117"/>
     <use style="fill:#0d0d0d;stroke:#000000;" x="155.391763" xlink:href="#mcb859dfd89" y="89.275855"/>
     <use style="fill:#0d0d0d;stroke:#000000;" x="155.391763" xlink:href="#mcb859dfd89" y="86.386246"/>
     <use style="fill:#0d0d0d;stroke:#000000;" x="200.499549" xlink:href="#mcb859dfd89" y="125.934325"/>
     <use style="fill:#0d0d0d;stroke:#000000;" x="200.499549" xlink:href="#mcb859dfd89" y="120.884059"/>
     <use style="fill:#0d0d0d;stroke:#000000;" x="245.607336" xlink:href="#mcb859dfd89" y="114.184543"/>
     <use style="fill:#0d0d0d;stroke:#000000;" x="245.607336" xlink:href="#mcb859dfd89" y="111.779997"/>
     <use style="fill:#0d0d0d;stroke:#000000;" x="290.715123" xlink:href="#mcb859dfd89" y="115.226316"/>
     <use style="fill:#0d0d0d;stroke:#000000;" x="290.715123" xlink:href="#mcb859dfd89" y="112.769685"/>
     <use style="fill:#0d0d0d;stroke:#000000;" x="335.822909" xlink:href="#mcb859dfd89" y="116.482025"/>
     <use style="fill:#0d0d0d;stroke:#000000;" x="335.822909" xlink:href="#mcb859dfd89" y="115.009998"/>
     <use style="fill:#0d0d0d;stroke:#000000;" x="380.930696" xlink:href="#mcb859dfd89" y="155.48628"/>
     <use style="fill:#0d0d0d;stroke:#000000;" x="380.930696" xlink:href="#mcb859dfd89" y="153.034804"/>
    </g>
   </g>
   <g id="matplotlib.axis_1">
    <g id="xtick_1">
     <g id="line2d_2">
      <defs>
       <path d="M 0 0 
L 0 3.5 
" id="m2be9466656" style="stroke:#000000;stroke-width:0.8;"/>
      </defs>
      <g>
       <use style="stroke:#000000;stroke-width:0.8;" x="74.197747" xlink:href="#m2be9466656" y="258.685354"/>
      </g>
     </g>
     <g id="text_1">
      <!-- first -->
      <defs>
       <path d="M 37.109375 75.984375 
L 37.109375 68.5 
L 28.515625 68.5 
Q 23.6875 68.5 21.796875 66.546875 
Q 19.921875 64.59375 19.921875 59.515625 
L 19.921875 54.6875 
L 34.71875 54.6875 
L 34.71875 47.703125 
L 19.921875 47.703125 
L 19.921875 0 
L 10.890625 0 
L 10.890625 47.703125 
L 2.296875 47.703125 
L 2.296875 54.6875 
L 10.890625 54.6875 
L 10.890625 58.5 
Q 10.890625 67.625 15.140625 71.796875 
Q 19.390625 75.984375 28.609375 75.984375 
z
" id="DejaVuSans-66"/>
       <path d="M 9.421875 54.6875 
L 18.40625 54.6875 
L 18.40625 0 
L 9.421875 0 
z
M 9.421875 75.984375 
L 18.40625 75.984375 
L 18.40625 64.59375 
L 9.421875 64.59375 
z
" id="DejaVuSans-69"/>
       <path d="M 41.109375 46.296875 
Q 39.59375 47.171875 37.8125 47.578125 
Q 36.03125 48 33.890625 48 
Q 26.265625 48 22.1875 43.046875 
Q 18.109375 38.09375 18.109375 28.8125 
L 18.109375 0 
L 9.078125 0 
L 9.078125 54.6875 
L 18.109375 54.6875 
L 18.109375 46.1875 
Q 20.953125 51.171875 25.484375 53.578125 
Q 30.03125 56 36.53125 56 
Q 37.453125 56 38.578125 55.875 
Q 39.703125 55.765625 41.0625 55.515625 
z
" id="DejaVuSans-72"/>
       <path d="M 44.28125 53.078125 
L 44.28125 44.578125 
Q 40.484375 46.53125 36.375 47.5 
Q 32.28125 48.484375 27.875 48.484375 
Q 21.1875 48.484375 17.84375 46.4375 
Q 14.5 44.390625 14.5 40.28125 
Q 14.5 37.15625 16.890625 35.375 
Q 19.28125 33.59375 26.515625 31.984375 
L 29.59375 31.296875 
Q 39.15625 29.25 43.1875 25.515625 
Q 47.21875 21.78125 47.21875 15.09375 
Q 47.21875 7.46875 41.1875 3.015625 
Q 35.15625 -1.421875 24.609375 -1.421875 
Q 20.21875 -1.421875 15.453125 -0.5625 
Q 10.6875 0.296875 5.421875 2 
L 5.421875 11.28125 
Q 10.40625 8.6875 15.234375 7.390625 
Q 20.0625 6.109375 24.8125 6.109375 
Q 31.15625 6.109375 34.5625 8.28125 
Q 37.984375 10.453125 37.984375 14.40625 
Q 37.984375 18.0625 35.515625 20.015625 
Q 33.0625 21.96875 24.703125 23.78125 
L 21.578125 24.515625 
Q 13.234375 26.265625 9.515625 29.90625 
Q 5.8125 33.546875 5.8125 39.890625 
Q 5.8125 47.609375 11.28125 51.796875 
Q 16.75 56 26.8125 56 
Q 31.78125 56 36.171875 55.265625 
Q 40.578125 54.546875 44.28125 53.078125 
" id="DejaVuSans-73"/>
       <path d="M 18.3125 70.21875 
L 18.3125 54.6875 
L 36.8125 54.6875 
L 36.8125 47.703125 
L 18.3125 47.703125 
L 18.3125 18.015625 
Q 18.3125 11.328125 20.140625 9.421875 
Q 21.96875 7.515625 27.59375 7.515625 
L 36.8125 7.515625 
L 36.8125 0 
L 27.59375 0 
Q 17.1875 0 13.234375 3.875 
Q 9.28125 7.765625 9.28125 18.015625 
L 9.28125 47.703125 
L 2.6875 47.703125 
L 2.6875 54.6875 
L 9.28125 54.6875 
L 9.28125 70.21875 
z
" id="DejaVuSans-74"/>
      </defs>
      <g transform="translate(66.382122 271.764104)scale(0.08 -0.08)">
       <use xlink:href="#DejaVuSans-66"/>
       <use x="35.205078" xlink:href="#DejaVuSans-69"/>
       <use x="62.988281" xlink:href="#DejaVuSans-72"/>
       <use x="104.101562" xlink:href="#DejaVuSans-73"/>
       <use x="156.201172" xlink:href="#DejaVuSans-74"/>
      </g>
     </g>
    </g>
    <g id="xtick_2">
     <g id="line2d_3">
      <g>
       <use style="stroke:#000000;stroke-width:0.8;" x="119.305533" xlink:href="#m2be9466656" y="258.685354"/>
      </g>
     </g>
     <g id="text_2">
      <!-- second -->
      <defs>
       <path d="M 56.203125 29.59375 
L 56.203125 25.203125 
L 14.890625 25.203125 
Q 15.484375 15.921875 20.484375 11.0625 
Q 25.484375 6.203125 34.421875 6.203125 
Q 39.59375 6.203125 44.453125 7.46875 
Q 49.3125 8.734375 54.109375 11.28125 
L 54.109375 2.78125 
Q 49.265625 0.734375 44.1875 -0.34375 
Q 39.109375 -1.421875 33.890625 -1.421875 
Q 20.796875 -1.421875 13.15625 6.1875 
Q 5.515625 13.8125 5.515625 26.8125 
Q 5.515625 40.234375 12.765625 48.109375 
Q 20.015625 56 32.328125 56 
Q 43.359375 56 49.78125 48.890625 
Q 56.203125 41.796875 56.203125 29.59375 
M 47.21875 32.234375 
Q 47.125 39.59375 43.09375 43.984375 
Q 39.0625 48.390625 32.421875 48.390625 
Q 24.90625 48.390625 20.390625 44.140625 
Q 15.875 39.890625 15.1875 32.171875 
z
" id="DejaVuSans-65"/>
       <path d="M 48.78125 52.59375 
L 48.78125 44.1875 
Q 44.96875 46.296875 41.140625 47.34375 
Q 37.3125 48.390625 33.40625 48.390625 
Q 24.65625 48.390625 19.8125 42.84375 
Q 14.984375 37.3125 14.984375 27.296875 
Q 14.984375 17.28125 19.8125 11.734375 
Q 24.65625 6.203125 33.40625 6.203125 
Q 37.3125 6.203125 41.140625 7.25 
Q 44.96875 8.296875 48.78125 10.40625 
L 48.78125 2.09375 
Q 45.015625 0.34375 40.984375 -0.53125 
Q 36.96875 -1.421875 32.421875 -1.421875 
Q 20.0625 -1.421875 12.78125 6.34375 
Q 5.515625 14.109375 5.515625 27.296875 
Q 5.515625 40.671875 12.859375 48.328125 
Q 20.21875 56 33.015625 56 
Q 37.15625 56 41.109375 55.140625 
Q 45.0625 54.296875 48.78125 52.59375 
" id="DejaVuSans-63"/>
       <path d="M 30.609375 48.390625 
Q 23.390625 48.390625 19.1875 42.75 
Q 14.984375 37.109375 14.984375 27.296875 
Q 14.984375 17.484375 19.15625 11.84375 
Q 23.34375 6.203125 30.609375 6.203125 
Q 37.796875 6.203125 41.984375 11.859375 
Q 46.1875 17.53125 46.1875 27.296875 
Q 46.1875 37.015625 41.984375 42.703125 
Q 37.796875 48.390625 30.609375 48.390625 
M 30.609375 56 
Q 42.328125 56 49.015625 48.375 
Q 55.71875 40.765625 55.71875 27.296875 
Q 55.71875 13.875 49.015625 6.21875 
Q 42.328125 -1.421875 30.609375 -1.421875 
Q 18.84375 -1.421875 12.171875 6.21875 
Q 5.515625 13.875 5.515625 27.296875 
Q 5.515625 40.765625 12.171875 48.375 
Q 18.84375 56 30.609375 56 
" id="DejaVuSans-6f"/>
       <path d="M 54.890625 33.015625 
L 54.890625 0 
L 45.90625 0 
L 45.90625 32.71875 
Q 45.90625 40.484375 42.875 44.328125 
Q 39.84375 48.1875 33.796875 48.1875 
Q 26.515625 48.1875 22.3125 43.546875 
Q 18.109375 38.921875 18.109375 30.90625 
L 18.109375 0 
L 9.078125 0 
L 9.078125 54.6875 
L 18.109375 54.6875 
L 18.109375 46.1875 
Q 21.34375 51.125 25.703125 53.5625 
Q 30.078125 56 35.796875 56 
Q 45.21875 56 50.046875 50.171875 
Q 54.890625 44.34375 54.890625 33.015625 
" id="DejaVuSans-6e"/>
       <path d="M 45.40625 46.390625 
L 45.40625 75.984375 
L 54.390625 75.984375 
L 54.390625 0 
L 45.40625 0 
L 45.40625 8.203125 
Q 42.578125 3.328125 38.25 0.953125 
Q 33.9375 -1.421875 27.875 -1.421875 
Q 17.96875 -1.421875 11.734375 6.484375 
Q 5.515625 14.40625 5.515625 27.296875 
Q 5.515625 40.1875 11.734375 48.09375 
Q 17.96875 56 27.875 56 
Q 33.9375 56 38.25 53.625 
Q 42.578125 51.265625 45.40625 46.390625 
M 14.796875 27.296875 
Q 14.796875 17.390625 18.875 11.75 
Q 22.953125 6.109375 30.078125 6.109375 
Q 37.203125 6.109375 41.296875 11.75 
Q 45.40625 17.390625 45.40625 27.296875 
Q 45.40625 37.203125 41.296875 42.84375 
Q 37.203125 48.484375 30.078125 48.484375 
Q 22.953125 48.484375 18.875 42.84375 
Q 14.796875 37.203125 14.796875 27.296875 
" id="DejaVuSans-64"/>
      </defs>
      <g transform="translate(105.039283 271.764104)scale(0.08 -0.08)">
       <use xlink:href="#DejaVuSans-73"/>
       <use x="52.099609" xlink:href="#DejaVuSans-65"/>
       <use x="113.623047" xlink:href="#DejaVuSans-63"/>
       <use x="168.603516" xlink:href="#DejaVuSans-6f"/>
       <use x="229.785156" xlink:href="#DejaVuSans-6e"/>
       <use x="293.164062" xlink:href="#DejaVuSans-64"/>
      </g>
     </g>
    </g>
    <g id="xtick_3">
     <g id="line2d_4">
      <g>
       <use style="stroke:#000000;stroke-width:0.8;" x="164.41332" xlink:href="#m2be9466656" y="258.685354"/>
      </g>
     </g>
     <g id="text_3">
      <!-- other -->
      <defs>
       <path d="M 54.890625 33.015625 
L 54.890625 0 
L 45.90625 0 
L 45.90625 32.71875 
Q 45.90625 40.484375 42.875 44.328125 
Q 39.84375 48.1875 33.796875 48.1875 
Q 26.515625 48.1875 22.3125 43.546875 
Q 18.109375 38.921875 18.109375 30.90625 
L 18.109375 0 
L 9.078125 0 
L 9.078125 75.984375 
L 18.109375 75.984375 
L 18.109375 46.1875 
Q 21.34375 51.125 25.703125 53.5625 
Q 30.078125 56 35.796875 56 
Q 45.21875 56 50.046875 50.171875 
Q 54.890625 44.34375 54.890625 33.015625 
" id="DejaVuSans-68"/>
      </defs>
      <g transform="translate(153.75707 271.764104)scale(0.08 -0.08)">
       <use xlink:href="#DejaVuSans-6f"/>
       <use x="61.181641" xlink:href="#DejaVuSans-74"/>
       <use x="100.390625" xlink:href="#DejaVuSans-68"/>
       <use x="163.769531" xlink:href="#DejaVuSans-65"/>
       <use x="225.292969" xlink:href="#DejaVuSans-72"/>
      </g>
     </g>
    </g>
    <g id="xtick_4">
     <g id="line2d_5">
      <g>
       <use style="stroke:#000000;stroke-width:0.8;" x="209.521107" xlink:href="#m2be9466656" y="258.685354"/>
      </g>
     </g>
     <g id="text_4">
      <!-- penultimate -->
      <defs>
       <path d="M 18.109375 8.203125 
L 18.109375 -20.796875 
L 9.078125 -20.796875 
L 9.078125 54.6875 
L 18.109375 54.6875 
L 18.109375 46.390625 
Q 20.953125 51.265625 25.265625 53.625 
Q 29.59375 56 35.59375 56 
Q 45.5625 56 51.78125 48.09375 
Q 58.015625 40.1875 58.015625 27.296875 
Q 58.015625 14.40625 51.78125 6.484375 
Q 45.5625 -1.421875 35.59375 -1.421875 
Q 29.59375 -1.421875 25.265625 0.953125 
Q 20.953125 3.328125 18.109375 8.203125 
M 48.6875 27.296875 
Q 48.6875 37.203125 44.609375 42.84375 
Q 40.53125 48.484375 33.40625 48.484375 
Q 26.265625 48.484375 22.1875 42.84375 
Q 18.109375 37.203125 18.109375 27.296875 
Q 18.109375 17.390625 22.1875 11.75 
Q 26.265625 6.109375 33.40625 6.109375 
Q 40.53125 6.109375 44.609375 11.75 
Q 48.6875 17.390625 48.6875 27.296875 
" id="DejaVuSans-70"/>
       <path d="M 8.5 21.578125 
L 8.5 54.6875 
L 17.484375 54.6875 
L 17.484375 21.921875 
Q 17.484375 14.15625 20.5 10.265625 
Q 23.53125 6.390625 29.59375 6.390625 
Q 36.859375 6.390625 41.078125 11.03125 
Q 45.3125 15.671875 45.3125 23.6875 
L 45.3125 54.6875 
L 54.296875 54.6875 
L 54.296875 0 
L 45.3125 0 
L 45.3125 8.40625 
Q 42.046875 3.421875 37.71875 1 
Q 33.40625 -1.421875 27.6875 -1.421875 
Q 18.265625 -1.421875 13.375 4.4375 
Q 8.5 10.296875 8.5 21.578125 
M 31.109375 56 
z
" id="DejaVuSans-75"/>
       <path d="M 9.421875 75.984375 
L 18.40625 75.984375 
L 18.40625 0 
L 9.421875 0 
z
" id="DejaVuSans-6c"/>
       <path d="M 52 44.1875 
Q 55.375 50.25 60.0625 53.125 
Q 64.75 56 71.09375 56 
Q 79.640625 56 84.28125 50.015625 
Q 88.921875 44.046875 88.921875 33.015625 
L 88.921875 0 
L 79.890625 0 
L 79.890625 32.71875 
Q 79.890625 40.578125 77.09375 44.375 
Q 74.3125 48.1875 68.609375 48.1875 
Q 61.625 48.1875 57.5625 43.546875 
Q 53.515625 38.921875 53.515625 30.90625 
L 53.515625 0 
L 44.484375 0 
L 44.484375 32.71875 
Q 44.484375 40.625 41.703125 44.40625 
Q 38.921875 48.1875 33.109375 48.1875 
Q 26.21875 48.1875 22.15625 43.53125 
Q 18.109375 38.875 18.109375 30.90625 
L 18.109375 0 
L 9.078125 0 
L 9.078125 54.6875 
L 18.109375 54.6875 
L 18.109375 46.1875 
Q 21.1875 51.21875 25.484375 53.609375 
Q 29.78125 56 35.6875 56 
Q 41.65625 56 45.828125 52.96875 
Q 50 49.953125 52 44.1875 
" id="DejaVuSans-6d"/>
       <path d="M 34.28125 27.484375 
Q 23.390625 27.484375 19.1875 25 
Q 14.984375 22.515625 14.984375 16.5 
Q 14.984375 11.71875 18.140625 8.90625 
Q 21.296875 6.109375 26.703125 6.109375 
Q 34.1875 6.109375 38.703125 11.40625 
Q 43.21875 16.703125 43.21875 25.484375 
L 43.21875 27.484375 
z
M 52.203125 31.203125 
L 52.203125 0 
L 43.21875 0 
L 43.21875 8.296875 
Q 40.140625 3.328125 35.546875 0.953125 
Q 30.953125 -1.421875 24.3125 -1.421875 
Q 15.921875 -1.421875 10.953125 3.296875 
Q 6 8.015625 6 15.921875 
Q 6 25.140625 12.171875 29.828125 
Q 18.359375 34.515625 30.609375 34.515625 
L 43.21875 34.515625 
L 43.21875 35.40625 
Q 43.21875 41.609375 39.140625 45 
Q 35.0625 48.390625 27.6875 48.390625 
Q 23 48.390625 18.546875 47.265625 
Q 14.109375 46.140625 10.015625 43.890625 
L 10.015625 52.203125 
Q 14.9375 54.109375 19.578125 55.046875 
Q 24.21875 56 28.609375 56 
Q 40.484375 56 46.34375 49.84375 
Q 52.203125 43.703125 52.203125 31.203125 
" id="DejaVuSans-61"/>
      </defs>
      <g transform="translate(185.282982 271.764104)scale(0.08 -0.08)">
       <use xlink:href="#DejaVuSans-70"/>
       <use x="63.476562" xlink:href="#DejaVuSans-65"/>
       <use x="125" xlink:href="#DejaVuSans-6e"/>
       <use x="188.378906" xlink:href="#DejaVuSans-75"/>
       <use x="251.757812" xlink:href="#DejaVuSans-6c"/>
       <use x="279.541016" xlink:href="#DejaVuSans-74"/>
       <use x="318.75" xlink:href="#DejaVuSans-69"/>
       <use x="346.533203" xlink:href="#DejaVuSans-6d"/>
       <use x="443.945312" xlink:href="#DejaVuSans-61"/>
       <use x="505.224609" xlink:href="#DejaVuSans-74"/>
       <use x="544.433594" xlink:href="#DejaVuSans-65"/>
      </g>
     </g>
    </g>
    <g id="xtick_5">
     <g id="line2d_6">
      <g>
       <use style="stroke:#000000;stroke-width:0.8;" x="254.628893" xlink:href="#m2be9466656" y="258.685354"/>
      </g>
     </g>
     <g id="text_5">
      <!-- first -->
      <g transform="translate(246.813268 271.764104)scale(0.08 -0.08)">
       <use xlink:href="#DejaVuSans-66"/>
       <use x="35.205078" xlink:href="#DejaVuSans-69"/>
       <use x="62.988281" xlink:href="#DejaVuSans-72"/>
       <use x="104.101562" xlink:href="#DejaVuSans-73"/>
       <use x="156.201172" xlink:href="#DejaVuSans-74"/>
      </g>
     </g>
    </g>
    <g id="xtick_6">
     <g id="line2d_7">
      <g>
       <use style="stroke:#000000;stroke-width:0.8;" x="299.73668" xlink:href="#m2be9466656" y="258.685354"/>
      </g>
     </g>
     <g id="text_6">
      <!-- second -->
      <g transform="translate(285.47043 271.764104)scale(0.08 -0.08)">
       <use xlink:href="#DejaVuSans-73"/>
       <use x="52.099609" xlink:href="#DejaVuSans-65"/>
       <use x="113.623047" xlink:href="#DejaVuSans-63"/>
       <use x="168.603516" xlink:href="#DejaVuSans-6f"/>
       <use x="229.785156" xlink:href="#DejaVuSans-6e"/>
       <use x="293.164062" xlink:href="#DejaVuSans-64"/>
      </g>
     </g>
    </g>
    <g id="xtick_7">
     <g id="line2d_8">
      <g>
       <use style="stroke:#000000;stroke-width:0.8;" x="344.844467" xlink:href="#m2be9466656" y="258.685354"/>
      </g>
     </g>
     <g id="text_7">
      <!-- other -->
      <g transform="translate(334.188217 271.764104)scale(0.08 -0.08)">
       <use xlink:href="#DejaVuSans-6f"/>
       <use x="61.181641" xlink:href="#DejaVuSans-74"/>
       <use x="100.390625" xlink:href="#DejaVuSans-68"/>
       <use x="163.769531" xlink:href="#DejaVuSans-65"/>
       <use x="225.292969" xlink:href="#DejaVuSans-72"/>
      </g>
     </g>
    </g>
    <g id="xtick_8">
     <g id="line2d_9">
      <g>
       <use style="stroke:#000000;stroke-width:0.8;" x="389.952253" xlink:href="#m2be9466656" y="258.685354"/>
      </g>
     </g>
     <g id="text_8">
      <!-- penultimate -->
      <g transform="translate(365.714128 271.764104)scale(0.08 -0.08)">
       <use xlink:href="#DejaVuSans-70"/>
       <use x="63.476562" xlink:href="#DejaVuSans-65"/>
       <use x="125" xlink:href="#DejaVuSans-6e"/>
       <use x="188.378906" xlink:href="#DejaVuSans-75"/>
       <use x="251.757812" xlink:href="#DejaVuSans-6c"/>
       <use x="279.541016" xlink:href="#DejaVuSans-74"/>
       <use x="318.75" xlink:href="#DejaVuSans-69"/>
       <use x="346.533203" xlink:href="#DejaVuSans-6d"/>
       <use x="443.945312" xlink:href="#DejaVuSans-61"/>
       <use x="505.224609" xlink:href="#DejaVuSans-74"/>
       <use x="544.433594" xlink:href="#DejaVuSans-65"/>
      </g>
     </g>
    </g>
    <g id="text_9">
     <!-- Author Position -->
     <defs>
      <path d="M 34.1875 63.1875 
L 20.796875 26.90625 
L 47.609375 26.90625 
z
M 28.609375 72.90625 
L 39.796875 72.90625 
L 67.578125 0 
L 57.328125 0 
L 50.6875 18.703125 
L 17.828125 18.703125 
L 11.1875 0 
L 0.78125 0 
z
" id="DejaVuSans-41"/>
      <path id="DejaVuSans-20"/>
      <path d="M 19.671875 64.796875 
L 19.671875 37.40625 
L 32.078125 37.40625 
Q 38.96875 37.40625 42.71875 40.96875 
Q 46.484375 44.53125 46.484375 51.125 
Q 46.484375 57.671875 42.71875 61.234375 
Q 38.96875 64.796875 32.078125 64.796875 
z
M 9.8125 72.90625 
L 32.078125 72.90625 
Q 44.34375 72.90625 50.609375 67.359375 
Q 56.890625 61.8125 56.890625 51.125 
Q 56.890625 40.328125 50.609375 34.8125 
Q 44.34375 29.296875 32.078125 29.296875 
L 19.671875 29.296875 
L 19.671875 0 
L 9.8125 0 
z
" id="DejaVuSans-50"/>
     </defs>
     <g transform="translate(190.203672 285.786136)scale(0.11 -0.11)">
      <use xlink:href="#DejaVuSans-41"/>
      <use x="68.408203" xlink:href="#DejaVuSans-75"/>
      <use x="131.787109" xlink:href="#DejaVuSans-74"/>
      <use x="170.996094" xlink:href="#DejaVuSans-68"/>
      <use x="234.375" xlink:href="#DejaVuSans-6f"/>
      <use x="295.556641" xlink:href="#DejaVuSans-72"/>
      <use x="336.669922" xlink:href="#DejaVuSans-20"/>
      <use x="368.457031" xlink:href="#DejaVuSans-50"/>
      <use x="428.712891" xlink:href="#DejaVuSans-6f"/>
      <use x="489.894531" xlink:href="#DejaVuSans-73"/>
      <use x="541.994141" xlink:href="#DejaVuSans-69"/>
      <use x="569.777344" xlink:href="#DejaVuSans-74"/>
      <use x="608.986328" xlink:href="#DejaVuSans-69"/>
      <use x="636.769531" xlink:href="#DejaVuSans-6f"/>
      <use x="697.951172" xlink:href="#DejaVuSans-6e"/>
     </g>
    </g>
   </g>
   <g id="matplotlib.axis_2">
    <g id="ytick_1">
     <g id="line2d_10">
      <defs>
       <path d="M 0 0 
L -3.5 0 
" id="m9197f6c247" style="stroke:#000000;stroke-width:0.8;"/>
      </defs>
      <g>
       <use style="stroke:#000000;stroke-width:0.8;" x="34.984646" xlink:href="#m9197f6c247" y="258.685354"/>
      </g>
     </g>
     <g id="text_10">
      <!-- 0.0 -->
      <defs>
       <path d="M 31.78125 66.40625 
Q 24.171875 66.40625 20.328125 58.90625 
Q 16.5 51.421875 16.5 36.375 
Q 16.5 21.390625 20.328125 13.890625 
Q 24.171875 6.390625 31.78125 6.390625 
Q 39.453125 6.390625 43.28125 13.890625 
Q 47.125 21.390625 47.125 36.375 
Q 47.125 51.421875 43.28125 58.90625 
Q 39.453125 66.40625 31.78125 66.40625 
M 31.78125 74.21875 
Q 44.046875 74.21875 50.515625 64.515625 
Q 56.984375 54.828125 56.984375 36.375 
Q 56.984375 17.96875 50.515625 8.265625 
Q 44.046875 -1.421875 31.78125 -1.421875 
Q 19.53125 -1.421875 13.0625 8.265625 
Q 6.59375 17.96875 6.59375 36.375 
Q 6.59375 54.828125 13.0625 64.515625 
Q 19.53125 74.21875 31.78125 74.21875 
" id="DejaVuSans-30"/>
       <path d="M 10.6875 12.40625 
L 21 12.40625 
L 21 0 
L 10.6875 0 
z
" id="DejaVuSans-2e"/>
      </defs>
      <g transform="translate(15.262146 261.724729)scale(0.08 -0.08)">
       <use xlink:href="#DejaVuSans-30"/>
       <use x="63.623047" xlink:href="#DejaVuSans-2e"/>
       <use x="95.410156" xlink:href="#DejaVuSans-30"/>
      </g>
     </g>
    </g>
    <g id="ytick_2">
     <g id="line2d_11">
      <g>
       <use style="stroke:#000000;stroke-width:0.8;" x="34.984646" xlink:href="#m9197f6c247" y="218.42357"/>
      </g>
     </g>
     <g id="text_11">
      <!-- 0.1 -->
      <defs>
       <path d="M 12.40625 8.296875 
L 28.515625 8.296875 
L 28.515625 63.921875 
L 10.984375 60.40625 
L 10.984375 69.390625 
L 28.421875 72.90625 
L 38.28125 72.90625 
L 38.28125 8.296875 
L 54.390625 8.296875 
L 54.390625 0 
L 12.40625 0 
z
" id="DejaVuSans-31"/>
      </defs>
      <g transform="translate(15.262146 221.462945)scale(0.08 -0.08)">
       <use xlink:href="#DejaVuSans-30"/>
       <use x="63.623047" xlink:href="#DejaVuSans-2e"/>
       <use x="95.410156" xlink:href="#DejaVuSans-31"/>
      </g>
     </g>
    </g>
    <g id="ytick_3">
     <g id="line2d_12">
      <g>
       <use style="stroke:#000000;stroke-width:0.8;" x="34.984646" xlink:href="#m9197f6c247" y="178.161785"/>
      </g>
     </g>
     <g id="text_12">
      <!-- 0.2 -->
      <defs>
       <path d="M 19.1875 8.296875 
L 53.609375 8.296875 
L 53.609375 0 
L 7.328125 0 
L 7.328125 8.296875 
Q 12.9375 14.109375 22.625 23.890625 
Q 32.328125 33.6875 34.8125 36.53125 
Q 39.546875 41.84375 41.421875 45.53125 
Q 43.3125 49.21875 43.3125 52.78125 
Q 43.3125 58.59375 39.234375 62.25 
Q 35.15625 65.921875 28.609375 65.921875 
Q 23.96875 65.921875 18.8125 64.3125 
Q 13.671875 62.703125 7.8125 59.421875 
L 7.8125 69.390625 
Q 13.765625 71.78125 18.9375 73 
Q 24.125 74.21875 28.421875 74.21875 
Q 39.75 74.21875 46.484375 68.546875 
Q 53.21875 62.890625 53.21875 53.421875 
Q 53.21875 48.921875 51.53125 44.890625 
Q 49.859375 40.875 45.40625 35.40625 
Q 44.1875 33.984375 37.640625 27.21875 
Q 31.109375 20.453125 19.1875 8.296875 
" id="DejaVuSans-32"/>
      </defs>
      <g transform="translate(15.262146 181.20116)scale(0.08 -0.08)">
       <use xlink:href="#DejaVuSans-30"/>
       <use x="63.623047" xlink:href="#DejaVuSans-2e"/>
       <use x="95.410156" xlink:href="#DejaVuSans-32"/>
      </g>
     </g>
    </g>
    <g id="ytick_4">
     <g id="line2d_13">
      <g>
       <use style="stroke:#000000;stroke-width:0.8;" x="34.984646" xlink:href="#m9197f6c247" y="137.9"/>
      </g>
     </g>
     <g id="text_13">
      <!-- 0.3 -->
      <defs>
       <path d="M 40.578125 39.3125 
Q 47.65625 37.796875 51.625 33 
Q 55.609375 28.21875 55.609375 21.1875 
Q 55.609375 10.40625 48.1875 4.484375 
Q 40.765625 -1.421875 27.09375 -1.421875 
Q 22.515625 -1.421875 17.65625 -0.515625 
Q 12.796875 0.390625 7.625 2.203125 
L 7.625 11.71875 
Q 11.71875 9.328125 16.59375 8.109375 
Q 21.484375 6.890625 26.8125 6.890625 
Q 36.078125 6.890625 40.9375 10.546875 
Q 45.796875 14.203125 45.796875 21.1875 
Q 45.796875 27.640625 41.28125 31.265625 
Q 36.765625 34.90625 28.71875 34.90625 
L 20.21875 34.90625 
L 20.21875 43.015625 
L 29.109375 43.015625 
Q 36.375 43.015625 40.234375 45.921875 
Q 44.09375 48.828125 44.09375 54.296875 
Q 44.09375 59.90625 40.109375 62.90625 
Q 36.140625 65.921875 28.71875 65.921875 
Q 24.65625 65.921875 20.015625 65.03125 
Q 15.375 64.15625 9.8125 62.3125 
L 9.8125 71.09375 
Q 15.4375 72.65625 20.34375 73.4375 
Q 25.25 74.21875 29.59375 74.21875 
Q 40.828125 74.21875 47.359375 69.109375 
Q 53.90625 64.015625 53.90625 55.328125 
Q 53.90625 49.265625 50.4375 45.09375 
Q 46.96875 40.921875 40.578125 39.3125 
" id="DejaVuSans-33"/>
      </defs>
      <g transform="translate(15.262146 140.939375)scale(0.08 -0.08)">
       <use xlink:href="#DejaVuSans-30"/>
       <use x="63.623047" xlink:href="#DejaVuSans-2e"/>
       <use x="95.410156" xlink:href="#DejaVuSans-33"/>
      </g>
     </g>
    </g>
    <g id="ytick_5">
     <g id="line2d_14">
      <g>
       <use style="stroke:#000000;stroke-width:0.8;" x="34.984646" xlink:href="#m9197f6c247" y="97.638215"/>
      </g>
     </g>
     <g id="text_14">
      <!-- 0.4 -->
      <defs>
       <path d="M 37.796875 64.3125 
L 12.890625 25.390625 
L 37.796875 25.390625 
z
M 35.203125 72.90625 
L 47.609375 72.90625 
L 47.609375 25.390625 
L 58.015625 25.390625 
L 58.015625 17.1875 
L 47.609375 17.1875 
L 47.609375 0 
L 37.796875 0 
L 37.796875 17.1875 
L 4.890625 17.1875 
L 4.890625 26.703125 
z
" id="DejaVuSans-34"/>
      </defs>
      <g transform="translate(15.262146 100.67759)scale(0.08 -0.08)">
       <use xlink:href="#DejaVuSans-30"/>
       <use x="63.623047" xlink:href="#DejaVuSans-2e"/>
       <use x="95.410156" xlink:href="#DejaVuSans-34"/>
      </g>
     </g>
    </g>
    <g id="ytick_6">
     <g id="line2d_15">
      <g>
       <use style="stroke:#000000;stroke-width:0.8;" x="34.984646" xlink:href="#m9197f6c247" y="57.37643"/>
      </g>
     </g>
     <g id="text_15">
      <!-- 0.5 -->
      <defs>
       <path d="M 10.796875 72.90625 
L 49.515625 72.90625 
L 49.515625 64.59375 
L 19.828125 64.59375 
L 19.828125 46.734375 
Q 21.96875 47.46875 24.109375 47.828125 
Q 26.265625 48.1875 28.421875 48.1875 
Q 40.625 48.1875 47.75 41.5 
Q 54.890625 34.8125 54.890625 23.390625 
Q 54.890625 11.625 47.5625 5.09375 
Q 40.234375 -1.421875 26.90625 -1.421875 
Q 22.3125 -1.421875 17.546875 -0.640625 
Q 12.796875 0.140625 7.71875 1.703125 
L 7.71875 11.625 
Q 12.109375 9.234375 16.796875 8.0625 
Q 21.484375 6.890625 26.703125 6.890625 
Q 35.15625 6.890625 40.078125 11.328125 
Q 45.015625 15.765625 45.015625 23.390625 
Q 45.015625 31 40.078125 35.4375 
Q 35.15625 39.890625 26.703125 39.890625 
Q 22.75 39.890625 18.8125 39.015625 
Q 14.890625 38.140625 10.796875 36.28125 
z
" id="DejaVuSans-35"/>
      </defs>
      <g transform="translate(15.262146 60.415805)scale(0.08 -0.08)">
       <use xlink:href="#DejaVuSans-30"/>
       <use x="63.623047" xlink:href="#DejaVuSans-2e"/>
       <use x="95.410156" xlink:href="#DejaVuSans-35"/>
      </g>
     </g>
    </g>
    <g id="ytick_7">
     <g id="line2d_16">
      <g>
       <use style="stroke:#000000;stroke-width:0.8;" x="34.984646" xlink:href="#m9197f6c247" y="17.114646"/>
      </g>
     </g>
     <g id="text_16">
      <!-- 0.6 -->
      <defs>
       <path d="M 33.015625 40.375 
Q 26.375 40.375 22.484375 35.828125 
Q 18.609375 31.296875 18.609375 23.390625 
Q 18.609375 15.53125 22.484375 10.953125 
Q 26.375 6.390625 33.015625 6.390625 
Q 39.65625 6.390625 43.53125 10.953125 
Q 47.40625 15.53125 47.40625 23.390625 
Q 47.40625 31.296875 43.53125 35.828125 
Q 39.65625 40.375 33.015625 40.375 
M 52.59375 71.296875 
L 52.59375 62.3125 
Q 48.875 64.0625 45.09375 64.984375 
Q 41.3125 65.921875 37.59375 65.921875 
Q 27.828125 65.921875 22.671875 59.328125 
Q 17.53125 52.734375 16.796875 39.40625 
Q 19.671875 43.65625 24.015625 45.921875 
Q 28.375 48.1875 33.59375 48.1875 
Q 44.578125 48.1875 50.953125 41.515625 
Q 57.328125 34.859375 57.328125 23.390625 
Q 57.328125 12.15625 50.6875 5.359375 
Q 44.046875 -1.421875 33.015625 -1.421875 
Q 20.359375 -1.421875 13.671875 8.265625 
Q 6.984375 17.96875 6.984375 36.375 
Q 6.984375 53.65625 15.1875 63.9375 
Q 23.390625 74.21875 37.203125 74.21875 
Q 40.921875 74.21875 44.703125 73.484375 
Q 48.484375 72.75 52.59375 71.296875 
" id="DejaVuSans-36"/>
      </defs>
      <g transform="translate(15.262146 20.154021)scale(0.08 -0.08)">
       <use xlink:href="#DejaVuSans-30"/>
       <use x="63.623047" xlink:href="#DejaVuSans-2e"/>
       <use x="95.410156" xlink:href="#DejaVuSans-36"/>
      </g>
     </g>
    </g>
    <g id="text_17">
     <!-- Percent Female -->
     <defs>
      <path d="M 9.8125 72.90625 
L 51.703125 72.90625 
L 51.703125 64.59375 
L 19.671875 64.59375 
L 19.671875 43.109375 
L 48.578125 43.109375 
L 48.578125 34.8125 
L 19.671875 34.8125 
L 19.671875 0 
L 9.8125 0 
z
" id="DejaVuSans-46"/>
     </defs>
     <g transform="translate(8.974489 180.838672)rotate(-90)scale(0.11 -0.11)">
      <use xlink:href="#DejaVuSans-50"/>
      <use x="60.255859" xlink:href="#DejaVuSans-65"/>
      <use x="121.779297" xlink:href="#DejaVuSans-72"/>
      <use x="162.861328" xlink:href="#DejaVuSans-63"/>
      <use x="217.841797" xlink:href="#DejaVuSans-65"/>
      <use x="279.365234" xlink:href="#DejaVuSans-6e"/>
      <use x="342.744141" xlink:href="#DejaVuSans-74"/>
      <use x="381.953125" xlink:href="#DejaVuSans-20"/>
      <use x="413.740234" xlink:href="#DejaVuSans-46"/>
      <use x="471.181641" xlink:href="#DejaVuSans-65"/>
      <use x="532.705078" xlink:href="#DejaVuSans-6d"/>
      <use x="630.117188" xlink:href="#DejaVuSans-61"/>
      <use x="691.396484" xlink:href="#DejaVuSans-6c"/>
      <use x="719.179688" xlink:href="#DejaVuSans-65"/>
     </g>
    </g>
   </g>
   <g id="PolyCollection_2">
    <path clip-path="url(#p3c444baae2)" d="M 83.219304 106.786178 
L 83.219304 258.685354 
L 83.219304 258.685354 
L 83.219304 96.165998 
L 83.219304 96.165998 
L 83.219304 106.786178 
z
" style="fill:#f2f2f2;"/>
    <path clip-path="url(#p3c444baae2)" d="M 128.327091 111.622812 
L 128.327091 258.685354 
L 128.327091 258.685354 
L 128.327091 100.6122 
L 128.327091 100.6122 
L 128.327091 111.622812 
z
" style="fill:#f2f2f2;"/>
    <path clip-path="url(#p3c444baae2)" d="M 173.434877 113.834379 
L 173.434877 258.685354 
L 173.434877 258.685354 
L 173.434877 106.81291 
L 173.434877 106.81291 
L 173.434877 113.834379 
z
" style="fill:#f2f2f2;"/>
    <path clip-path="url(#p3c444baae2)" d="M 218.542664 157.954245 
L 218.542664 258.685354 
L 218.542664 258.685354 
L 218.542664 146.986102 
L 218.542664 146.986102 
L 218.542664 157.954245 
z
" style="fill:#f2f2f2;"/>
    <path clip-path="url(#p3c444baae2)" d="M 263.650451 137.877894 
L 263.650451 258.685354 
L 263.650451 258.685354 
L 263.650451 133.802128 
L 263.650451 133.802128 
L 263.650451 137.877894 
z
" style="fill:#f2f2f2;"/>
    <path clip-path="url(#p3c444baae2)" d="M 308.758237 137.822281 
L 308.758237 258.685354 
L 308.758237 258.685354 
L 308.758237 133.090121 
L 308.758237 133.090121 
L 308.758237 137.822281 
z
" style="fill:#f2f2f2;"/>
    <path clip-path="url(#p3c444baae2)" d="M 353.866024 130.778728 
L 353.866024 258.685354 
L 353.866024 258.685354 
L 353.866024 127.932529 
L 353.866024 127.932529 
L 353.866024 130.778728 
z
" style="fill:#f2f2f2;"/>
    <path clip-path="url(#p3c444baae2)" d="M 398.973811 171.130675 
L 398.973811 258.685354 
L 398.973811 258.685354 
L 398.973811 166.648515 
L 398.973811 166.648515 
L 398.973811 171.130675 
z
" style="fill:#f2f2f2;"/>
   </g>
   <g id="patch_11">
    <path clip-path="url(#p3c444baae2)" d="M 74.197747 101.476088 
L 74.197747 258.685354 
L 92.240861 258.685354 
L 92.240861 101.476088 
L 74.197747 101.476088 
" style="fill:#f2f2f2;stroke:#000000;stroke-linejoin:miter;"/>
   </g>
   <g id="patch_12">
    <path clip-path="url(#p3c444baae2)" d="M 119.305533 106.117506 
L 119.305533 258.685354 
L 137.348648 258.685354 
L 137.348648 106.117506 
L 119.305533 106.117506 
" style="fill:#f2f2f2;stroke:#000000;stroke-linejoin:miter;"/>
   </g>
   <g id="patch_13">
    <path clip-path="url(#p3c444baae2)" d="M 164.41332 110.323644 
L 164.41332 258.685354 
L 182.456435 258.685354 
L 182.456435 110.323644 
L 164.41332 110.323644 
" style="fill:#f2f2f2;stroke:#000000;stroke-linejoin:miter;"/>
   </g>
   <g id="patch_14">
    <path clip-path="url(#p3c444baae2)" d="M 209.521107 152.470174 
L 209.521107 258.685354 
L 227.564221 258.685354 
L 227.564221 152.470174 
L 209.521107 152.470174 
" style="fill:#f2f2f2;stroke:#000000;stroke-linejoin:miter;"/>
   </g>
   <g id="patch_15">
    <path clip-path="url(#p3c444baae2)" d="M 254.628893 135.840011 
L 254.628893 258.685354 
L 272.672008 258.685354 
L 272.672008 135.840011 
L 254.628893 135.840011 
" style="fill:#f2f2f2;stroke:#000000;stroke-linejoin:miter;"/>
   </g>
   <g id="patch_16">
    <path clip-path="url(#p3c444baae2)" d="M 299.73668 135.456201 
L 299.73668 258.685354 
L 317.779795 258.685354 
L 317.779795 135.456201 
L 299.73668 135.456201 
" style="fill:#f2f2f2;stroke:#000000;stroke-linejoin:miter;"/>
   </g>
   <g id="patch_17">
    <path clip-path="url(#p3c444baae2)" d="M 344.844467 129.355628 
L 344.844467 258.685354 
L 362.887581 258.685354 
L 362.887581 129.355628 
L 344.844467 129.355628 
" style="fill:#f2f2f2;stroke:#000000;stroke-linejoin:miter;"/>
   </g>
   <g id="patch_18">
    <path clip-path="url(#p3c444baae2)" d="M 389.952253 168.889595 
L 389.952253 258.685354 
L 407.995368 258.685354 
L 407.995368 168.889595 
L 389.952253 168.889595 
" style="fill:#f2f2f2;stroke:#000000;stroke-linejoin:miter;"/>
   </g>
   <g id="line2d_17">
    <path clip-path="url(#p3c444baae2)" d="M 83.219304 106.786178 
L 83.219304 96.165998 
M 128.327091 111.622812 
L 128.327091 100.6122 
M 173.434877 113.834379 
L 173.434877 106.81291 
M 218.542664 157.954245 
L 218.542664 146.986102 
M 263.650451 137.877894 
L 263.650451 133.802128 
M 308.758237 137.822281 
L 308.758237 133.090121 
M 353.866024 130.778728 
L 353.866024 127.932529 
M 398.973811 171.130675 
L 398.973811 166.648515 
" style="fill:none;stroke:#000000;stroke-linecap:round;"/>
   </g>
   <g id="PathCollection_2">
    <defs>
     <path d="M 2 0 
L -2 0 
L 2 0 
" id="m145be84b15" style="stroke:#000000;"/>
    </defs>
    <g clip-path="url(#p3c444baae2)">
     <use style="fill:#f2f2f2;stroke:#000000;" x="83.219304" xlink:href="#m145be84b15" y="106.786178"/>
     <use style="fill:#f2f2f2;stroke:#000000;" x="83.219304" xlink:href="#m145be84b15" y="96.165998"/>
     <use style="fill:#f2f2f2;stroke:#000000;" x="128.327091" xlink:href="#m145be84b15" y="111.622812"/>
     <use style="fill:#f2f2f2;stroke:#000000;" x="128.327091" xlink:href="#m145be84b15" y="100.6122"/>
     <use style="fill:#f2f2f2;stroke:#000000;" x="173.434877" xlink:href="#m145be84b15" y="113.834379"/>
     <use style="fill:#f2f2f2;stroke:#000000;" x="173.434877" xlink:href="#m145be84b15" y="106.81291"/>
     <use style="fill:#f2f2f2;stroke:#000000;" x="218.542664" xlink:href="#m145be84b15" y="157.954245"/>
     <use style="fill:#f2f2f2;stroke:#000000;" x="218.542664" xlink:href="#m145be84b15" y="146.986102"/>
     <use style="fill:#f2f2f2;stroke:#000000;" x="263.650451" xlink:href="#m145be84b15" y="137.877894"/>
     <use style="fill:#f2f2f2;stroke:#000000;" x="263.650451" xlink:href="#m145be84b15" y="133.802128"/>
     <use style="fill:#f2f2f2;stroke:#000000;" x="308.758237" xlink:href="#m145be84b15" y="137.822281"/>
     <use style="fill:#f2f2f2;stroke:#000000;" x="308.758237" xlink:href="#m145be84b15" y="133.090121"/>
     <use style="fill:#f2f2f2;stroke:#000000;" x="353.866024" xlink:href="#m145be84b15" y="130.778728"/>
     <use style="fill:#f2f2f2;stroke:#000000;" x="353.866024" xlink:href="#m145be84b15" y="127.932529"/>
     <use style="fill:#f2f2f2;stroke:#000000;" x="398.973811" xlink:href="#m145be84b15" y="171.130675"/>
     <use style="fill:#f2f2f2;stroke:#000000;" x="398.973811" xlink:href="#m145be84b15" y="166.648515"/>
    </g>
   </g>
   <g id="patch_19">
    <path d="M 34.984646 258.685354 
L 34.984646 17.114646 
" style="fill:none;stroke:#000000;stroke-linecap:square;stroke-linejoin:miter;stroke-width:0.8;"/>
   </g>
   <g id="patch_20">
    <path d="M 429.165354 258.685354 
L 429.165354 17.114646 
" style="fill:none;stroke:#000000;stroke-linecap:square;stroke-linejoin:miter;stroke-width:0.8;"/>
   </g>
   <g id="patch_21">
    <path d="M 34.984646 258.685354 
L 429.165354 258.685354 
" style="fill:none;stroke:#000000;stroke-linecap:square;stroke-linejoin:miter;stroke-width:0.8;"/>
   </g>
   <g id="patch_22">
    <path d="M 34.984646 17.114646 
L 429.165354 17.114646 
" style="fill:none;stroke:#000000;stroke-linecap:square;stroke-linejoin:miter;stroke-width:0.8;"/>
   </g>
   <g id="text_18">
    <!-- Primary Articles 1997-2014 -->
    <defs>
     <path d="M 32.171875 -5.078125 
Q 28.375 -14.84375 24.75 -17.8125 
Q 21.140625 -20.796875 15.09375 -20.796875 
L 7.90625 -20.796875 
L 7.90625 -13.28125 
L 13.1875 -13.28125 
Q 16.890625 -13.28125 18.9375 -11.515625 
Q 21 -9.765625 23.484375 -3.21875 
L 25.09375 0.875 
L 2.984375 54.6875 
L 12.5 54.6875 
L 29.59375 11.921875 
L 46.6875 54.6875 
L 56.203125 54.6875 
z
" id="DejaVuSans-79"/>
     <path d="M 10.984375 1.515625 
L 10.984375 10.5 
Q 14.703125 8.734375 18.5 7.8125 
Q 22.3125 6.890625 25.984375 6.890625 
Q 35.75 6.890625 40.890625 13.453125 
Q 46.046875 20.015625 46.78125 33.40625 
Q 43.953125 29.203125 39.59375 26.953125 
Q 35.25 24.703125 29.984375 24.703125 
Q 19.046875 24.703125 12.671875 31.3125 
Q 6.296875 37.9375 6.296875 49.421875 
Q 6.296875 60.640625 12.9375 67.421875 
Q 19.578125 74.21875 30.609375 74.21875 
Q 43.265625 74.21875 49.921875 64.515625 
Q 56.59375 54.828125 56.59375 36.375 
Q 56.59375 19.140625 48.40625 8.859375 
Q 40.234375 -1.421875 26.421875 -1.421875 
Q 22.703125 -1.421875 18.890625 -0.6875 
Q 15.09375 0.046875 10.984375 1.515625 
M 30.609375 32.421875 
Q 37.25 32.421875 41.125 36.953125 
Q 45.015625 41.5 45.015625 49.421875 
Q 45.015625 57.28125 41.125 61.84375 
Q 37.25 66.40625 30.609375 66.40625 
Q 23.96875 66.40625 20.09375 61.84375 
Q 16.21875 57.28125 16.21875 49.421875 
Q 16.21875 41.5 20.09375 36.953125 
Q 23.96875 32.421875 30.609375 32.421875 
" id="DejaVuSans-39"/>
     <path d="M 8.203125 72.90625 
L 55.078125 72.90625 
L 55.078125 68.703125 
L 28.609375 0 
L 18.3125 0 
L 43.21875 64.59375 
L 8.203125 64.59375 
z
" id="DejaVuSans-37"/>
     <path d="M 4.890625 31.390625 
L 31.203125 31.390625 
L 31.203125 23.390625 
L 4.890625 23.390625 
z
" id="DejaVuSans-2d"/>
    </defs>
    <g transform="translate(136.196875 11.114646)scale(0.14 -0.14)">
     <use xlink:href="#DejaVuSans-50"/>
     <use x="60.287109" xlink:href="#DejaVuSans-72"/>
     <use x="101.400391" xlink:href="#DejaVuSans-69"/>
     <use x="129.183594" xlink:href="#DejaVuSans-6d"/>
     <use x="226.595703" xlink:href="#DejaVuSans-61"/>
     <use x="287.875" xlink:href="#DejaVuSans-72"/>
     <use x="328.988281" xlink:href="#DejaVuSans-79"/>
     <use x="388.167969" xlink:href="#DejaVuSans-20"/>
     <use x="419.955078" xlink:href="#DejaVuSans-41"/>
     <use x="488.363281" xlink:href="#DejaVuSans-72"/>
     <use x="529.476562" xlink:href="#DejaVuSans-74"/>
     <use x="568.685547" xlink:href="#DejaVuSans-69"/>
     <use x="596.46875" xlink:href="#DejaVuSans-63"/>
     <use x="651.449219" xlink:href="#DejaVuSans-6c"/>
     <use x="679.232422" xlink:href="#DejaVuSans-65"/>
     <use x="740.755859" xlink:href="#DejaVuSans-73"/>
     <use x="792.855469" xlink:href="#DejaVuSans-20"/>
     <use x="824.642578" xlink:href="#DejaVuSans-31"/>
     <use x="888.265625" xlink:href="#DejaVuSans-39"/>
     <use x="951.888672" xlink:href="#DejaVuSans-39"/>
     <use x="1015.511719" xlink:href="#DejaVuSans-37"/>
     <use x="1079.134766" xlink:href="#DejaVuSans-2d"/>
     <use x="1115.21875" xlink:href="#DejaVuSans-32"/>
     <use x="1178.841797" xlink:href="#DejaVuSans-30"/>
     <use x="1242.464844" xlink:href="#DejaVuSans-31"/>
     <use x="1306.087891" xlink:href="#DejaVuSans-34"/>
    </g>
   </g>
   <g id="legend_1">
    <g id="patch_23">
     <path d="M 343.481604 46.999646 
L 423.565354 46.999646 
Q 425.165354 46.999646 425.165354 45.399646 
L 425.165354 22.714646 
Q 425.165354 21.114646 423.565354 21.114646 
L 343.481604 21.114646 
Q 341.881604 21.114646 341.881604 22.714646 
L 341.881604 45.399646 
Q 341.881604 46.999646 343.481604 46.999646 
z
" style="fill:#ffffff;opacity:0.8;stroke:#000000;stroke-linejoin:miter;"/>
    </g>
    <g id="line2d_18">
     <path d="M 345.081604 27.593396 
L 361.081604 27.593396 
" style="fill:none;stroke:#0d0d0d;stroke-linecap:square;stroke-width:4;"/>
    </g>
    <g id="line2d_19"/>
    <g id="text_19">
     <!-- ['bio', 'comp'] -->
     <defs>
      <path d="M 8.59375 75.984375 
L 29.296875 75.984375 
L 29.296875 69 
L 17.578125 69 
L 17.578125 -6.203125 
L 29.296875 -6.203125 
L 29.296875 -13.1875 
L 8.59375 -13.1875 
z
" id="DejaVuSans-5b"/>
      <path d="M 17.921875 72.90625 
L 17.921875 45.796875 
L 9.625 45.796875 
L 9.625 72.90625 
z
" id="DejaVuSans-27"/>
      <path d="M 48.6875 27.296875 
Q 48.6875 37.203125 44.609375 42.84375 
Q 40.53125 48.484375 33.40625 48.484375 
Q 26.265625 48.484375 22.1875 42.84375 
Q 18.109375 37.203125 18.109375 27.296875 
Q 18.109375 17.390625 22.1875 11.75 
Q 26.265625 6.109375 33.40625 6.109375 
Q 40.53125 6.109375 44.609375 11.75 
Q 48.6875 17.390625 48.6875 27.296875 
M 18.109375 46.390625 
Q 20.953125 51.265625 25.265625 53.625 
Q 29.59375 56 35.59375 56 
Q 45.5625 56 51.78125 48.09375 
Q 58.015625 40.1875 58.015625 27.296875 
Q 58.015625 14.40625 51.78125 6.484375 
Q 45.5625 -1.421875 35.59375 -1.421875 
Q 29.59375 -1.421875 25.265625 0.953125 
Q 20.953125 3.328125 18.109375 8.203125 
L 18.109375 0 
L 9.078125 0 
L 9.078125 75.984375 
L 18.109375 75.984375 
z
" id="DejaVuSans-62"/>
      <path d="M 11.71875 12.40625 
L 22.015625 12.40625 
L 22.015625 4 
L 14.015625 -11.625 
L 7.71875 -11.625 
L 11.71875 4 
z
" id="DejaVuSans-2c"/>
      <path d="M 30.421875 75.984375 
L 30.421875 -13.1875 
L 9.71875 -13.1875 
L 9.71875 -6.203125 
L 21.390625 -6.203125 
L 21.390625 69 
L 9.71875 69 
L 9.71875 75.984375 
z
" id="DejaVuSans-5d"/>
     </defs>
     <g transform="translate(367.481604 30.393396)scale(0.08 -0.08)">
      <use xlink:href="#DejaVuSans-5b"/>
      <use x="39.013672" xlink:href="#DejaVuSans-27"/>
      <use x="66.503906" xlink:href="#DejaVuSans-62"/>
      <use x="129.980469" xlink:href="#DejaVuSans-69"/>
      <use x="157.763672" xlink:href="#DejaVuSans-6f"/>
      <use x="218.945312" xlink:href="#DejaVuSans-27"/>
      <use x="246.435547" xlink:href="#DejaVuSans-2c"/>
      <use x="278.222656" xlink:href="#DejaVuSans-20"/>
      <use x="310.009766" xlink:href="#DejaVuSans-27"/>
      <use x="337.5" xlink:href="#DejaVuSans-63"/>
      <use x="392.480469" xlink:href="#DejaVuSans-6f"/>
      <use x="453.662109" xlink:href="#DejaVuSans-6d"/>
      <use x="551.074219" xlink:href="#DejaVuSans-70"/>
      <use x="614.550781" xlink:href="#DejaVuSans-27"/>
      <use x="642.041016" xlink:href="#DejaVuSans-5d"/>
     </g>
    </g>
    <g id="line2d_20">
     <path d="M 345.081604 39.335896 
L 361.081604 39.335896 
" style="fill:none;stroke:#f2f2f2;stroke-linecap:square;stroke-width:4;"/>
    </g>
    <g id="line2d_21"/>
    <g id="text_20">
     <!-- ['bio', 'comp'] -->
     <g transform="translate(367.481604 42.135896)scale(0.08 -0.08)">
      <use xlink:href="#DejaVuSans-5b"/>
      <use x="39.013672" xlink:href="#DejaVuSans-27"/>
      <use x="66.503906" xlink:href="#DejaVuSans-62"/>
      <use x="129.980469" xlink:href="#DejaVuSans-69"/>
      <use x="157.763672" xlink:href="#DejaVuSans-6f"/>
      <use x="218.945312" xlink:href="#DejaVuSans-27"/>
      <use x="246.435547" xlink:href="#DejaVuSans-2c"/>
      <use x="278.222656" xlink:href="#DejaVuSans-20"/>
      <use x="310.009766" xlink:href="#DejaVuSans-27"/>
      <use x="337.5" xlink:href="#DejaVuSans-63"/>
      <use x="392.480469" xlink:href="#DejaVuSans-6f"/>
      <use x="453.662109" xlink:href="#DejaVuSans-6d"/>
      <use x="551.074219" xlink:href="#DejaVuSans-70"/>
      <use x="614.550781" xlink:href="#DejaVuSans-27"/>
      <use x="642.041016" xlink:href="#DejaVuSans-5d"/>
     </g>
    </g>
   </g>
  </g>
 </g>
 <defs>
  <clipPath id="p3c444baae2">
   <rect height="241.570709" width="394.180709" x="34.984646" y="17.114646"/>
  </clipPath>
 </defs>
</svg>
