<?xml version="1.0" encoding="utf-8"?>
<svg xmlns="http://www.w3.org/2000/svg" xmlns:xlink="http://www.w3.org/1999/xlink" width="600" height="400" viewBox="0 0 600 400">
<defs>
  <clipPath id="clip00">
    <rect x="0" y="0" width="600" height="400"/>
  </clipPath>
</defs>
<polygon clip-path="url(#clip00)" points="
0,400 600,400 600,0 0,0 
  " fill="#ffffff" fill-opacity="1"/>
<defs>
  <clipPath id="clip01">
    <rect x="120" y="0" width="421" height="400"/>
  </clipPath>
</defs>
<polygon clip-path="url(#clip00)" points="
54.7703,369.674 596.063,369.674 596.063,23.3815 54.7703,23.3815 
  " fill="#ffffff" fill-opacity="1"/>
<defs>
  <clipPath id="clip02">
    <rect x="54" y="23" width="542" height="347"/>
  </clipPath>
</defs>
<polyline clip-path="url(#clip02)" style="stroke:#00002d; stroke-width:0.8; stroke-opacity:1; fill:none" points="
  54.7703,369.674 596.063,369.674 
  "/>
<polyline clip-path="url(#clip02)" style="stroke:#00002d; stroke-width:0.8; stroke-opacity:1; fill:none" points="
  54.7703,369.674 54.7703,364.48 
  "/>
<polyline clip-path="url(#clip02)" style="stroke:#00002d; stroke-width:0.8; stroke-opacity:1; fill:none" points="
  229.381,369.674 229.381,364.48 
  "/>
<polyline clip-path="url(#clip02)" style="stroke:#00002d; stroke-width:0.8; stroke-opacity:1; fill:none" points="
  403.991,369.674 403.991,364.48 
  "/>
<polyline clip-path="url(#clip02)" style="stroke:#00002d; stroke-width:0.8; stroke-opacity:1; fill:none" points="
  578.602,369.674 578.602,364.48 
  "/>
<polyline clip-path="url(#clip02)" style="stroke:#00002d; stroke-width:0.8; stroke-opacity:1; fill:none" points="
  54.7703,369.674 54.7703,23.3815 
  "/>
<polyline clip-path="url(#clip02)" style="stroke:#00002d; stroke-width:0.8; stroke-opacity:1; fill:none" points="
  54.7703,369.674 62.8897,369.674 
  "/>
<polyline clip-path="url(#clip02)" style="stroke:#00002d; stroke-width:0.8; stroke-opacity:1; fill:none" points="
  54.7703,261.458 62.8897,261.458 
  "/>
<polyline clip-path="url(#clip02)" style="stroke:#00002d; stroke-width:0.8; stroke-opacity:1; fill:none" points="
  54.7703,153.241 62.8897,153.241 
  "/>
<polyline clip-path="url(#clip02)" style="stroke:#00002d; stroke-width:0.8; stroke-opacity:1; fill:none" points="
  54.7703,45.0247 62.8897,45.0247 
  "/>
<g clip-path="url(#clip00)">
<text style="fill:#00002d; fill-opacity:1; font-family:Arial,Helvetica Neue,Helvetica,sans-serif; font-size:12; text-anchor:middle;" transform="rotate(0, 54.7703, 381.674)" x="54.7703" y="381.674">0</text>
</g>
<g clip-path="url(#clip00)">
<text style="fill:#00002d; fill-opacity:1; font-family:Arial,Helvetica Neue,Helvetica,sans-serif; font-size:12; text-anchor:middle;" transform="rotate(0, 229.381, 381.674)" x="229.381" y="381.674">50</text>
</g>
<g clip-path="url(#clip00)">
<text style="fill:#00002d; fill-opacity:1; font-family:Arial,Helvetica Neue,Helvetica,sans-serif; font-size:12; text-anchor:middle;" transform="rotate(0, 403.991, 381.674)" x="403.991" y="381.674">100</text>
</g>
<g clip-path="url(#clip00)">
<text style="fill:#00002d; fill-opacity:1; font-family:Arial,Helvetica Neue,Helvetica,sans-serif; font-size:12; text-anchor:middle;" transform="rotate(0, 578.602, 381.674)" x="578.602" y="381.674">150</text>
</g>
<g clip-path="url(#clip00)">
<text style="fill:#00002d; fill-opacity:1; font-family:Arial,Helvetica Neue,Helvetica,sans-serif; font-size:12; text-anchor:end;" transform="rotate(0, 53.5703, 374.174)" x="53.5703" y="374.174">0.00</text>
</g>
<g clip-path="url(#clip00)">
<text style="fill:#00002d; fill-opacity:1; font-family:Arial,Helvetica Neue,Helvetica,sans-serif; font-size:12; text-anchor:end;" transform="rotate(0, 53.5703, 265.958)" x="53.5703" y="265.958">0.25</text>
</g>
<g clip-path="url(#clip00)">
<text style="fill:#00002d; fill-opacity:1; font-family:Arial,Helvetica Neue,Helvetica,sans-serif; font-size:12; text-anchor:end;" transform="rotate(0, 53.5703, 157.741)" x="53.5703" y="157.741">0.50</text>
</g>
<g clip-path="url(#clip00)">
<text style="fill:#00002d; fill-opacity:1; font-family:Arial,Helvetica Neue,Helvetica,sans-serif; font-size:12; text-anchor:end;" transform="rotate(0, 53.5703, 49.5247)" x="53.5703" y="49.5247">0.75</text>
</g>
<g clip-path="url(#clip00)">
<text style="fill:#00002d; fill-opacity:1; font-family:Arial,Helvetica Neue,Helvetica,sans-serif; font-size:21; text-anchor:middle;" transform="rotate(0, 325.417, 18)" x="325.417" y="18">Proportion of Female Authors by Journal</text>
</g>
<g clip-path="url(#clip00)">
<text style="fill:#00002d; fill-opacity:1; font-family:Arial,Helvetica Neue,Helvetica,sans-serif; font-size:16; text-anchor:middle;" transform="rotate(0, 325.417, 397.6)" x="325.417" y="397.6">Journals Ranked by Pfemale</text>
</g>
<g clip-path="url(#clip00)">
<text style="fill:#00002d; fill-opacity:1; font-family:Arial,Helvetica Neue,Helvetica,sans-serif; font-size:16; text-anchor:middle;" transform="rotate(-90, 14.4, 196.528)" x="14.4" y="196.528">Pfemale</text>
</g>
<polygon clip-path="url(#clip02)" points="
56.5164,280.533 56.5164,369.674 60.0087,369.674 60.0087,280.533 56.5164,280.533 56.5164,280.533 
  " fill="#7f7f7f" fill-opacity="1"/>
<polyline clip-path="url(#clip02)" style="stroke:#00002d; stroke-width:0.8; stroke-opacity:1; fill:none" points="
  56.5164,280.533 56.5164,369.674 60.0087,369.674 60.0087,280.533 56.5164,280.533 
  "/>
<polygon clip-path="url(#clip02)" points="
60.0087,277.54 60.0087,369.674 63.5009,369.674 63.5009,277.54 60.0087,277.54 60.0087,277.54 
  " fill="#7f7f7f" fill-opacity="1"/>
<polyline clip-path="url(#clip02)" style="stroke:#00002d; stroke-width:0.8; stroke-opacity:1; fill:none" points="
  60.0087,277.54 60.0087,369.674 63.5009,369.674 63.5009,277.54 60.0087,277.54 
  "/>
<polygon clip-path="url(#clip02)" points="
63.5009,276.444 63.5009,369.674 66.9931,369.674 66.9931,276.444 63.5009,276.444 63.5009,276.444 
  " fill="#7f7f7f" fill-opacity="1"/>
<polyline clip-path="url(#clip02)" style="stroke:#00002d; stroke-width:0.8; stroke-opacity:1; fill:none" points="
  63.5009,276.444 63.5009,369.674 66.9931,369.674 66.9931,276.444 63.5009,276.444 
  "/>
<polygon clip-path="url(#clip02)" points="
66.9931,275.686 66.9931,369.674 70.4853,369.674 70.4853,275.686 66.9931,275.686 66.9931,275.686 
  " fill="#00002d" fill-opacity="1"/>
<polyline clip-path="url(#clip02)" style="stroke:#00002d; stroke-width:0.8; stroke-opacity:1; fill:none" points="
  66.9931,275.686 66.9931,369.674 70.4853,369.674 70.4853,275.686 66.9931,275.686 
  "/>
<polygon clip-path="url(#clip02)" points="
70.4853,271.308 70.4853,369.674 73.9775,369.674 73.9775,271.308 70.4853,271.308 70.4853,271.308 
  " fill="#00002d" fill-opacity="1"/>
<polyline clip-path="url(#clip02)" style="stroke:#00002d; stroke-width:0.8; stroke-opacity:1; fill:none" points="
  70.4853,271.308 70.4853,369.674 73.9775,369.674 73.9775,271.308 70.4853,271.308 
  "/>
<polygon clip-path="url(#clip02)" points="
73.9775,269.382 73.9775,369.674 77.4697,369.674 77.4697,269.382 73.9775,269.382 73.9775,269.382 
  " fill="#7f7f7f" fill-opacity="1"/>
<polyline clip-path="url(#clip02)" style="stroke:#00002d; stroke-width:0.8; stroke-opacity:1; fill:none" points="
  73.9775,269.382 73.9775,369.674 77.4697,369.674 77.4697,269.382 73.9775,269.382 
  "/>
<polygon clip-path="url(#clip02)" points="
77.4697,269.079 77.4697,369.674 80.9619,369.674 80.9619,269.079 77.4697,269.079 77.4697,269.079 
  " fill="#00002d" fill-opacity="1"/>
<polyline clip-path="url(#clip02)" style="stroke:#00002d; stroke-width:0.8; stroke-opacity:1; fill:none" points="
  77.4697,269.079 77.4697,369.674 80.9619,369.674 80.9619,269.079 77.4697,269.079 
  "/>
<polygon clip-path="url(#clip02)" points="
80.9619,268.775 80.9619,369.674 84.4541,369.674 84.4541,268.775 80.9619,268.775 80.9619,268.775 
  " fill="#00002d" fill-opacity="1"/>
<polyline clip-path="url(#clip02)" style="stroke:#00002d; stroke-width:0.8; stroke-opacity:1; fill:none" points="
  80.9619,268.775 80.9619,369.674 84.4541,369.674 84.4541,268.775 80.9619,268.775 
  "/>
<polygon clip-path="url(#clip02)" points="
84.4541,267.213 84.4541,369.674 87.9463,369.674 87.9463,267.213 84.4541,267.213 84.4541,267.213 
  " fill="#7f7f7f" fill-opacity="1"/>
<polyline clip-path="url(#clip02)" style="stroke:#00002d; stroke-width:0.8; stroke-opacity:1; fill:none" points="
  84.4541,267.213 84.4541,369.674 87.9463,369.674 87.9463,267.213 84.4541,267.213 
  "/>
<polygon clip-path="url(#clip02)" points="
87.9463,266.359 87.9463,369.674 91.4386,369.674 91.4386,266.359 87.9463,266.359 87.9463,266.359 
  " fill="#00002d" fill-opacity="1"/>
<polyline clip-path="url(#clip02)" style="stroke:#00002d; stroke-width:0.8; stroke-opacity:1; fill:none" points="
  87.9463,266.359 87.9463,369.674 91.4386,369.674 91.4386,266.359 87.9463,266.359 
  "/>
<polygon clip-path="url(#clip02)" points="
91.4386,261.429 91.4386,369.674 94.9308,369.674 94.9308,261.429 91.4386,261.429 91.4386,261.429 
  " fill="#00002d" fill-opacity="1"/>
<polyline clip-path="url(#clip02)" style="stroke:#00002d; stroke-width:0.8; stroke-opacity:1; fill:none" points="
  91.4386,261.429 91.4386,369.674 94.9308,369.674 94.9308,261.429 91.4386,261.429 
  "/>
<polygon clip-path="url(#clip02)" points="
94.9308,258.448 94.9308,369.674 98.423,369.674 98.423,258.448 94.9308,258.448 94.9308,258.448 
  " fill="#00002d" fill-opacity="1"/>
<polyline clip-path="url(#clip02)" style="stroke:#00002d; stroke-width:0.8; stroke-opacity:1; fill:none" points="
  94.9308,258.448 94.9308,369.674 98.423,369.674 98.423,258.448 94.9308,258.448 
  "/>
<polygon clip-path="url(#clip02)" points="
98.423,255.993 98.423,369.674 101.915,369.674 101.915,255.993 98.423,255.993 98.423,255.993 
  " fill="#00002d" fill-opacity="1"/>
<polyline clip-path="url(#clip02)" style="stroke:#00002d; stroke-width:0.8; stroke-opacity:1; fill:none" points="
  98.423,255.993 98.423,369.674 101.915,369.674 101.915,255.993 98.423,255.993 
  "/>
<polygon clip-path="url(#clip02)" points="
101.915,253.296 101.915,369.674 105.407,369.674 105.407,253.296 101.915,253.296 101.915,253.296 
  " fill="#00002d" fill-opacity="1"/>
<polyline clip-path="url(#clip02)" style="stroke:#00002d; stroke-width:0.8; stroke-opacity:1; fill:none" points="
  101.915,253.296 101.915,369.674 105.407,369.674 105.407,253.296 101.915,253.296 
  "/>
<polygon clip-path="url(#clip02)" points="
105.407,252.962 105.407,369.674 108.9,369.674 108.9,252.962 105.407,252.962 105.407,252.962 
  " fill="#00002d" fill-opacity="1"/>
<polyline clip-path="url(#clip02)" style="stroke:#00002d; stroke-width:0.8; stroke-opacity:1; fill:none" points="
  105.407,252.962 105.407,369.674 108.9,369.674 108.9,252.962 105.407,252.962 
  "/>
<polygon clip-path="url(#clip02)" points="
108.9,252.757 108.9,369.674 112.392,369.674 112.392,252.757 108.9,252.757 108.9,252.757 
  " fill="#00002d" fill-opacity="1"/>
<polyline clip-path="url(#clip02)" style="stroke:#00002d; stroke-width:0.8; stroke-opacity:1; fill:none" points="
  108.9,252.757 108.9,369.674 112.392,369.674 112.392,252.757 108.9,252.757 
  "/>
<polygon clip-path="url(#clip02)" points="
112.392,252.625 112.392,369.674 115.884,369.674 115.884,252.625 112.392,252.625 112.392,252.625 
  " fill="#00002d" fill-opacity="1"/>
<polyline clip-path="url(#clip02)" style="stroke:#00002d; stroke-width:0.8; stroke-opacity:1; fill:none" points="
  112.392,252.625 112.392,369.674 115.884,369.674 115.884,252.625 112.392,252.625 
  "/>
<polygon clip-path="url(#clip02)" points="
115.884,252.118 115.884,369.674 119.376,369.674 119.376,252.118 115.884,252.118 115.884,252.118 
  " fill="#00002d" fill-opacity="1"/>
<polyline clip-path="url(#clip02)" style="stroke:#00002d; stroke-width:0.8; stroke-opacity:1; fill:none" points="
  115.884,252.118 115.884,369.674 119.376,369.674 119.376,252.118 115.884,252.118 
  "/>
<polygon clip-path="url(#clip02)" points="
119.376,251.465 119.376,369.674 122.868,369.674 122.868,251.465 119.376,251.465 119.376,251.465 
  " fill="#00002d" fill-opacity="1"/>
<polyline clip-path="url(#clip02)" style="stroke:#00002d; stroke-width:0.8; stroke-opacity:1; fill:none" points="
  119.376,251.465 119.376,369.674 122.868,369.674 122.868,251.465 119.376,251.465 
  "/>
<polygon clip-path="url(#clip02)" points="
122.868,250.807 122.868,369.674 126.361,369.674 126.361,250.807 122.868,250.807 122.868,250.807 
  " fill="#00002d" fill-opacity="1"/>
<polyline clip-path="url(#clip02)" style="stroke:#00002d; stroke-width:0.8; stroke-opacity:1; fill:none" points="
  122.868,250.807 122.868,369.674 126.361,369.674 126.361,250.807 122.868,250.807 
  "/>
<polygon clip-path="url(#clip02)" points="
126.361,250.047 126.361,369.674 129.853,369.674 129.853,250.047 126.361,250.047 126.361,250.047 
  " fill="#00002d" fill-opacity="1"/>
<polyline clip-path="url(#clip02)" style="stroke:#00002d; stroke-width:0.8; stroke-opacity:1; fill:none" points="
  126.361,250.047 126.361,369.674 129.853,369.674 129.853,250.047 126.361,250.047 
  "/>
<polygon clip-path="url(#clip02)" points="
129.853,250.013 129.853,369.674 133.345,369.674 133.345,250.013 129.853,250.013 129.853,250.013 
  " fill="#00002d" fill-opacity="1"/>
<polyline clip-path="url(#clip02)" style="stroke:#00002d; stroke-width:0.8; stroke-opacity:1; fill:none" points="
  129.853,250.013 129.853,369.674 133.345,369.674 133.345,250.013 129.853,250.013 
  "/>
<polygon clip-path="url(#clip02)" points="
133.345,248.554 133.345,369.674 136.837,369.674 136.837,248.554 133.345,248.554 133.345,248.554 
  " fill="#00002d" fill-opacity="1"/>
<polyline clip-path="url(#clip02)" style="stroke:#00002d; stroke-width:0.8; stroke-opacity:1; fill:none" points="
  133.345,248.554 133.345,369.674 136.837,369.674 136.837,248.554 133.345,248.554 
  "/>
<polygon clip-path="url(#clip02)" points="
136.837,247.702 136.837,369.674 140.33,369.674 140.33,247.702 136.837,247.702 136.837,247.702 
  " fill="#7f7f7f" fill-opacity="1"/>
<polyline clip-path="url(#clip02)" style="stroke:#00002d; stroke-width:0.8; stroke-opacity:1; fill:none" points="
  136.837,247.702 136.837,369.674 140.33,369.674 140.33,247.702 136.837,247.702 
  "/>
<polygon clip-path="url(#clip02)" points="
140.33,244.898 140.33,369.674 143.822,369.674 143.822,244.898 140.33,244.898 140.33,244.898 
  " fill="#00002d" fill-opacity="1"/>
<polyline clip-path="url(#clip02)" style="stroke:#00002d; stroke-width:0.8; stroke-opacity:1; fill:none" points="
  140.33,244.898 140.33,369.674 143.822,369.674 143.822,244.898 140.33,244.898 
  "/>
<polygon clip-path="url(#clip02)" points="
143.822,244.768 143.822,369.674 147.314,369.674 147.314,244.768 143.822,244.768 143.822,244.768 
  " fill="#00002d" fill-opacity="1"/>
<polyline clip-path="url(#clip02)" style="stroke:#00002d; stroke-width:0.8; stroke-opacity:1; fill:none" points="
  143.822,244.768 143.822,369.674 147.314,369.674 147.314,244.768 143.822,244.768 
  "/>
<polygon clip-path="url(#clip02)" points="
147.314,244.475 147.314,369.674 150.806,369.674 150.806,244.475 147.314,244.475 147.314,244.475 
  " fill="#00002d" fill-opacity="1"/>
<polyline clip-path="url(#clip02)" style="stroke:#00002d; stroke-width:0.8; stroke-opacity:1; fill:none" points="
  147.314,244.475 147.314,369.674 150.806,369.674 150.806,244.475 147.314,244.475 
  "/>
<polygon clip-path="url(#clip02)" points="
150.806,244.439 150.806,369.674 154.298,369.674 154.298,244.439 150.806,244.439 150.806,244.439 
  " fill="#00002d" fill-opacity="1"/>
<polyline clip-path="url(#clip02)" style="stroke:#00002d; stroke-width:0.8; stroke-opacity:1; fill:none" points="
  150.806,244.439 150.806,369.674 154.298,369.674 154.298,244.439 150.806,244.439 
  "/>
<polygon clip-path="url(#clip02)" points="
154.298,244.377 154.298,369.674 157.791,369.674 157.791,244.377 154.298,244.377 154.298,244.377 
  " fill="#00002d" fill-opacity="1"/>
<polyline clip-path="url(#clip02)" style="stroke:#00002d; stroke-width:0.8; stroke-opacity:1; fill:none" points="
  154.298,244.377 154.298,369.674 157.791,369.674 157.791,244.377 154.298,244.377 
  "/>
<polygon clip-path="url(#clip02)" points="
157.791,243.07 157.791,369.674 161.283,369.674 161.283,243.07 157.791,243.07 157.791,243.07 
  " fill="#00002d" fill-opacity="1"/>
<polyline clip-path="url(#clip02)" style="stroke:#00002d; stroke-width:0.8; stroke-opacity:1; fill:none" points="
  157.791,243.07 157.791,369.674 161.283,369.674 161.283,243.07 157.791,243.07 
  "/>
<polygon clip-path="url(#clip02)" points="
161.283,241.105 161.283,369.674 164.775,369.674 164.775,241.105 161.283,241.105 161.283,241.105 
  " fill="#00002d" fill-opacity="1"/>
<polyline clip-path="url(#clip02)" style="stroke:#00002d; stroke-width:0.8; stroke-opacity:1; fill:none" points="
  161.283,241.105 161.283,369.674 164.775,369.674 164.775,241.105 161.283,241.105 
  "/>
<polygon clip-path="url(#clip02)" points="
164.775,240.704 164.775,369.674 168.267,369.674 168.267,240.704 164.775,240.704 164.775,240.704 
  " fill="#00002d" fill-opacity="1"/>
<polyline clip-path="url(#clip02)" style="stroke:#00002d; stroke-width:0.8; stroke-opacity:1; fill:none" points="
  164.775,240.704 164.775,369.674 168.267,369.674 168.267,240.704 164.775,240.704 
  "/>
<polygon clip-path="url(#clip02)" points="
168.267,239.801 168.267,369.674 171.759,369.674 171.759,239.801 168.267,239.801 168.267,239.801 
  " fill="#00002d" fill-opacity="1"/>
<polyline clip-path="url(#clip02)" style="stroke:#00002d; stroke-width:0.8; stroke-opacity:1; fill:none" points="
  168.267,239.801 168.267,369.674 171.759,369.674 171.759,239.801 168.267,239.801 
  "/>
<polygon clip-path="url(#clip02)" points="
171.759,239.743 171.759,369.674 175.252,369.674 175.252,239.743 171.759,239.743 171.759,239.743 
  " fill="#00002d" fill-opacity="1"/>
<polyline clip-path="url(#clip02)" style="stroke:#00002d; stroke-width:0.8; stroke-opacity:1; fill:none" points="
  171.759,239.743 171.759,369.674 175.252,369.674 175.252,239.743 171.759,239.743 
  "/>
<polygon clip-path="url(#clip02)" points="
175.252,238.24 175.252,369.674 178.744,369.674 178.744,238.24 175.252,238.24 175.252,238.24 
  " fill="#00002d" fill-opacity="1"/>
<polyline clip-path="url(#clip02)" style="stroke:#00002d; stroke-width:0.8; stroke-opacity:1; fill:none" points="
  175.252,238.24 175.252,369.674 178.744,369.674 178.744,238.24 175.252,238.24 
  "/>
<polygon clip-path="url(#clip02)" points="
178.744,237.722 178.744,369.674 182.236,369.674 182.236,237.722 178.744,237.722 178.744,237.722 
  " fill="#00002d" fill-opacity="1"/>
<polyline clip-path="url(#clip02)" style="stroke:#00002d; stroke-width:0.8; stroke-opacity:1; fill:none" points="
  178.744,237.722 178.744,369.674 182.236,369.674 182.236,237.722 178.744,237.722 
  "/>
<polygon clip-path="url(#clip02)" points="
182.236,237.668 182.236,369.674 185.728,369.674 185.728,237.668 182.236,237.668 182.236,237.668 
  " fill="#7f7f7f" fill-opacity="1"/>
<polyline clip-path="url(#clip02)" style="stroke:#00002d; stroke-width:0.8; stroke-opacity:1; fill:none" points="
  182.236,237.668 182.236,369.674 185.728,369.674 185.728,237.668 182.236,237.668 
  "/>
<polygon clip-path="url(#clip02)" points="
185.728,237.275 185.728,369.674 189.22,369.674 189.22,237.275 185.728,237.275 185.728,237.275 
  " fill="#00002d" fill-opacity="1"/>
<polyline clip-path="url(#clip02)" style="stroke:#00002d; stroke-width:0.8; stroke-opacity:1; fill:none" points="
  185.728,237.275 185.728,369.674 189.22,369.674 189.22,237.275 185.728,237.275 
  "/>
<polygon clip-path="url(#clip02)" points="
189.22,235.632 189.22,369.674 192.713,369.674 192.713,235.632 189.22,235.632 189.22,235.632 
  " fill="#00002d" fill-opacity="1"/>
<polyline clip-path="url(#clip02)" style="stroke:#00002d; stroke-width:0.8; stroke-opacity:1; fill:none" points="
  189.22,235.632 189.22,369.674 192.713,369.674 192.713,235.632 189.22,235.632 
  "/>
<polygon clip-path="url(#clip02)" points="
192.713,235.313 192.713,369.674 196.205,369.674 196.205,235.313 192.713,235.313 192.713,235.313 
  " fill="#00002d" fill-opacity="1"/>
<polyline clip-path="url(#clip02)" style="stroke:#00002d; stroke-width:0.8; stroke-opacity:1; fill:none" points="
  192.713,235.313 192.713,369.674 196.205,369.674 196.205,235.313 192.713,235.313 
  "/>
<polygon clip-path="url(#clip02)" points="
196.205,235.184 196.205,369.674 199.697,369.674 199.697,235.184 196.205,235.184 196.205,235.184 
  " fill="#00002d" fill-opacity="1"/>
<polyline clip-path="url(#clip02)" style="stroke:#00002d; stroke-width:0.8; stroke-opacity:1; fill:none" points="
  196.205,235.184 196.205,369.674 199.697,369.674 199.697,235.184 196.205,235.184 
  "/>
<polygon clip-path="url(#clip02)" points="
199.697,235.051 199.697,369.674 203.189,369.674 203.189,235.051 199.697,235.051 199.697,235.051 
  " fill="#00002d" fill-opacity="1"/>
<polyline clip-path="url(#clip02)" style="stroke:#00002d; stroke-width:0.8; stroke-opacity:1; fill:none" points="
  199.697,235.051 199.697,369.674 203.189,369.674 203.189,235.051 199.697,235.051 
  "/>
<polygon clip-path="url(#clip02)" points="
203.189,233.97 203.189,369.674 206.682,369.674 206.682,233.97 203.189,233.97 203.189,233.97 
  " fill="#00002d" fill-opacity="1"/>
<polyline clip-path="url(#clip02)" style="stroke:#00002d; stroke-width:0.8; stroke-opacity:1; fill:none" points="
  203.189,233.97 203.189,369.674 206.682,369.674 206.682,233.97 203.189,233.97 
  "/>
<polygon clip-path="url(#clip02)" points="
206.682,233.659 206.682,369.674 210.174,369.674 210.174,233.659 206.682,233.659 206.682,233.659 
  " fill="#00002d" fill-opacity="1"/>
<polyline clip-path="url(#clip02)" style="stroke:#00002d; stroke-width:0.8; stroke-opacity:1; fill:none" points="
  206.682,233.659 206.682,369.674 210.174,369.674 210.174,233.659 206.682,233.659 
  "/>
<polygon clip-path="url(#clip02)" points="
210.174,233.392 210.174,369.674 213.666,369.674 213.666,233.392 210.174,233.392 210.174,233.392 
  " fill="#00002d" fill-opacity="1"/>
<polyline clip-path="url(#clip02)" style="stroke:#00002d; stroke-width:0.8; stroke-opacity:1; fill:none" points="
  210.174,233.392 210.174,369.674 213.666,369.674 213.666,233.392 210.174,233.392 
  "/>
<polygon clip-path="url(#clip02)" points="
213.666,233.132 213.666,369.674 217.158,369.674 217.158,233.132 213.666,233.132 213.666,233.132 
  " fill="#7f7f7f" fill-opacity="1"/>
<polyline clip-path="url(#clip02)" style="stroke:#00002d; stroke-width:0.8; stroke-opacity:1; fill:none" points="
  213.666,233.132 213.666,369.674 217.158,369.674 217.158,233.132 213.666,233.132 
  "/>
<polygon clip-path="url(#clip02)" points="
217.158,232.883 217.158,369.674 220.65,369.674 220.65,232.883 217.158,232.883 217.158,232.883 
  " fill="#00002d" fill-opacity="1"/>
<polyline clip-path="url(#clip02)" style="stroke:#00002d; stroke-width:0.8; stroke-opacity:1; fill:none" points="
  217.158,232.883 217.158,369.674 220.65,369.674 220.65,232.883 217.158,232.883 
  "/>
<polygon clip-path="url(#clip02)" points="
220.65,232.658 220.65,369.674 224.143,369.674 224.143,232.658 220.65,232.658 220.65,232.658 
  " fill="#00002d" fill-opacity="1"/>
<polyline clip-path="url(#clip02)" style="stroke:#00002d; stroke-width:0.8; stroke-opacity:1; fill:none" points="
  220.65,232.658 220.65,369.674 224.143,369.674 224.143,232.658 220.65,232.658 
  "/>
<polygon clip-path="url(#clip02)" points="
224.143,232.652 224.143,369.674 227.635,369.674 227.635,232.652 224.143,232.652 224.143,232.652 
  " fill="#00002d" fill-opacity="1"/>
<polyline clip-path="url(#clip02)" style="stroke:#00002d; stroke-width:0.8; stroke-opacity:1; fill:none" points="
  224.143,232.652 224.143,369.674 227.635,369.674 227.635,232.652 224.143,232.652 
  "/>
<polygon clip-path="url(#clip02)" points="
227.635,232.393 227.635,369.674 231.127,369.674 231.127,232.393 227.635,232.393 227.635,232.393 
  " fill="#7f7f7f" fill-opacity="1"/>
<polyline clip-path="url(#clip02)" style="stroke:#00002d; stroke-width:0.8; stroke-opacity:1; fill:none" points="
  227.635,232.393 227.635,369.674 231.127,369.674 231.127,232.393 227.635,232.393 
  "/>
<polygon clip-path="url(#clip02)" points="
231.127,232.091 231.127,369.674 234.619,369.674 234.619,232.091 231.127,232.091 231.127,232.091 
  " fill="#00002d" fill-opacity="1"/>
<polyline clip-path="url(#clip02)" style="stroke:#00002d; stroke-width:0.8; stroke-opacity:1; fill:none" points="
  231.127,232.091 231.127,369.674 234.619,369.674 234.619,232.091 231.127,232.091 
  "/>
<polygon clip-path="url(#clip02)" points="
234.619,232.056 234.619,369.674 238.111,369.674 238.111,232.056 234.619,232.056 234.619,232.056 
  " fill="#7f7f7f" fill-opacity="1"/>
<polyline clip-path="url(#clip02)" style="stroke:#00002d; stroke-width:0.8; stroke-opacity:1; fill:none" points="
  234.619,232.056 234.619,369.674 238.111,369.674 238.111,232.056 234.619,232.056 
  "/>
<polygon clip-path="url(#clip02)" points="
238.111,231.088 238.111,369.674 241.604,369.674 241.604,231.088 238.111,231.088 238.111,231.088 
  " fill="#00002d" fill-opacity="1"/>
<polyline clip-path="url(#clip02)" style="stroke:#00002d; stroke-width:0.8; stroke-opacity:1; fill:none" points="
  238.111,231.088 238.111,369.674 241.604,369.674 241.604,231.088 238.111,231.088 
  "/>
<polygon clip-path="url(#clip02)" points="
241.604,230.619 241.604,369.674 245.096,369.674 245.096,230.619 241.604,230.619 241.604,230.619 
  " fill="#00002d" fill-opacity="1"/>
<polyline clip-path="url(#clip02)" style="stroke:#00002d; stroke-width:0.8; stroke-opacity:1; fill:none" points="
  241.604,230.619 241.604,369.674 245.096,369.674 245.096,230.619 241.604,230.619 
  "/>
<polygon clip-path="url(#clip02)" points="
245.096,229.948 245.096,369.674 248.588,369.674 248.588,229.948 245.096,229.948 245.096,229.948 
  " fill="#00002d" fill-opacity="1"/>
<polyline clip-path="url(#clip02)" style="stroke:#00002d; stroke-width:0.8; stroke-opacity:1; fill:none" points="
  245.096,229.948 245.096,369.674 248.588,369.674 248.588,229.948 245.096,229.948 
  "/>
<polygon clip-path="url(#clip02)" points="
248.588,229.16 248.588,369.674 252.08,369.674 252.08,229.16 248.588,229.16 248.588,229.16 
  " fill="#00002d" fill-opacity="1"/>
<polyline clip-path="url(#clip02)" style="stroke:#00002d; stroke-width:0.8; stroke-opacity:1; fill:none" points="
  248.588,229.16 248.588,369.674 252.08,369.674 252.08,229.16 248.588,229.16 
  "/>
<polygon clip-path="url(#clip02)" points="
252.08,228.67 252.08,369.674 255.572,369.674 255.572,228.67 252.08,228.67 252.08,228.67 
  " fill="#00002d" fill-opacity="1"/>
<polyline clip-path="url(#clip02)" style="stroke:#00002d; stroke-width:0.8; stroke-opacity:1; fill:none" points="
  252.08,228.67 252.08,369.674 255.572,369.674 255.572,228.67 252.08,228.67 
  "/>
<polygon clip-path="url(#clip02)" points="
255.572,228.003 255.572,369.674 259.065,369.674 259.065,228.003 255.572,228.003 255.572,228.003 
  " fill="#00002d" fill-opacity="1"/>
<polyline clip-path="url(#clip02)" style="stroke:#00002d; stroke-width:0.8; stroke-opacity:1; fill:none" points="
  255.572,228.003 255.572,369.674 259.065,369.674 259.065,228.003 255.572,228.003 
  "/>
<polygon clip-path="url(#clip02)" points="
259.065,227.014 259.065,369.674 262.557,369.674 262.557,227.014 259.065,227.014 259.065,227.014 
  " fill="#00002d" fill-opacity="1"/>
<polyline clip-path="url(#clip02)" style="stroke:#00002d; stroke-width:0.8; stroke-opacity:1; fill:none" points="
  259.065,227.014 259.065,369.674 262.557,369.674 262.557,227.014 259.065,227.014 
  "/>
<polygon clip-path="url(#clip02)" points="
262.557,226.903 262.557,369.674 266.049,369.674 266.049,226.903 262.557,226.903 262.557,226.903 
  " fill="#7f7f7f" fill-opacity="1"/>
<polyline clip-path="url(#clip02)" style="stroke:#00002d; stroke-width:0.8; stroke-opacity:1; fill:none" points="
  262.557,226.903 262.557,369.674 266.049,369.674 266.049,226.903 262.557,226.903 
  "/>
<polygon clip-path="url(#clip02)" points="
266.049,226.473 266.049,369.674 269.541,369.674 269.541,226.473 266.049,226.473 266.049,226.473 
  " fill="#00002d" fill-opacity="1"/>
<polyline clip-path="url(#clip02)" style="stroke:#00002d; stroke-width:0.8; stroke-opacity:1; fill:none" points="
  266.049,226.473 266.049,369.674 269.541,369.674 269.541,226.473 266.049,226.473 
  "/>
<polygon clip-path="url(#clip02)" points="
269.541,225.567 269.541,369.674 273.034,369.674 273.034,225.567 269.541,225.567 269.541,225.567 
  " fill="#00002d" fill-opacity="1"/>
<polyline clip-path="url(#clip02)" style="stroke:#00002d; stroke-width:0.8; stroke-opacity:1; fill:none" points="
  269.541,225.567 269.541,369.674 273.034,369.674 273.034,225.567 269.541,225.567 
  "/>
<polygon clip-path="url(#clip02)" points="
273.034,225.504 273.034,369.674 276.526,369.674 276.526,225.504 273.034,225.504 273.034,225.504 
  " fill="#00002d" fill-opacity="1"/>
<polyline clip-path="url(#clip02)" style="stroke:#00002d; stroke-width:0.8; stroke-opacity:1; fill:none" points="
  273.034,225.504 273.034,369.674 276.526,369.674 276.526,225.504 273.034,225.504 
  "/>
<polygon clip-path="url(#clip02)" points="
276.526,225.181 276.526,369.674 280.018,369.674 280.018,225.181 276.526,225.181 276.526,225.181 
  " fill="#00002d" fill-opacity="1"/>
<polyline clip-path="url(#clip02)" style="stroke:#00002d; stroke-width:0.8; stroke-opacity:1; fill:none" points="
  276.526,225.181 276.526,369.674 280.018,369.674 280.018,225.181 276.526,225.181 
  "/>
<polygon clip-path="url(#clip02)" points="
280.018,224.6 280.018,369.674 283.51,369.674 283.51,224.6 280.018,224.6 280.018,224.6 
  " fill="#00002d" fill-opacity="1"/>
<polyline clip-path="url(#clip02)" style="stroke:#00002d; stroke-width:0.8; stroke-opacity:1; fill:none" points="
  280.018,224.6 280.018,369.674 283.51,369.674 283.51,224.6 280.018,224.6 
  "/>
<polygon clip-path="url(#clip02)" points="
283.51,223.748 283.51,369.674 287.002,369.674 287.002,223.748 283.51,223.748 283.51,223.748 
  " fill="#00002d" fill-opacity="1"/>
<polyline clip-path="url(#clip02)" style="stroke:#00002d; stroke-width:0.8; stroke-opacity:1; fill:none" points="
  283.51,223.748 283.51,369.674 287.002,369.674 287.002,223.748 283.51,223.748 
  "/>
<polygon clip-path="url(#clip02)" points="
287.002,223.026 287.002,369.674 290.495,369.674 290.495,223.026 287.002,223.026 287.002,223.026 
  " fill="#00002d" fill-opacity="1"/>
<polyline clip-path="url(#clip02)" style="stroke:#00002d; stroke-width:0.8; stroke-opacity:1; fill:none" points="
  287.002,223.026 287.002,369.674 290.495,369.674 290.495,223.026 287.002,223.026 
  "/>
<polygon clip-path="url(#clip02)" points="
290.495,221.734 290.495,369.674 293.987,369.674 293.987,221.734 290.495,221.734 290.495,221.734 
  " fill="#00002d" fill-opacity="1"/>
<polyline clip-path="url(#clip02)" style="stroke:#00002d; stroke-width:0.8; stroke-opacity:1; fill:none" points="
  290.495,221.734 290.495,369.674 293.987,369.674 293.987,221.734 290.495,221.734 
  "/>
<polygon clip-path="url(#clip02)" points="
293.987,221.694 293.987,369.674 297.479,369.674 297.479,221.694 293.987,221.694 293.987,221.694 
  " fill="#00002d" fill-opacity="1"/>
<polyline clip-path="url(#clip02)" style="stroke:#00002d; stroke-width:0.8; stroke-opacity:1; fill:none" points="
  293.987,221.694 293.987,369.674 297.479,369.674 297.479,221.694 293.987,221.694 
  "/>
<polygon clip-path="url(#clip02)" points="
297.479,220.682 297.479,369.674 300.971,369.674 300.971,220.682 297.479,220.682 297.479,220.682 
  " fill="#00002d" fill-opacity="1"/>
<polyline clip-path="url(#clip02)" style="stroke:#00002d; stroke-width:0.8; stroke-opacity:1; fill:none" points="
  297.479,220.682 297.479,369.674 300.971,369.674 300.971,220.682 297.479,220.682 
  "/>
<polygon clip-path="url(#clip02)" points="
300.971,220.086 300.971,369.674 304.463,369.674 304.463,220.086 300.971,220.086 300.971,220.086 
  " fill="#7f7f7f" fill-opacity="1"/>
<polyline clip-path="url(#clip02)" style="stroke:#00002d; stroke-width:0.8; stroke-opacity:1; fill:none" points="
  300.971,220.086 300.971,369.674 304.463,369.674 304.463,220.086 300.971,220.086 
  "/>
<polygon clip-path="url(#clip02)" points="
304.463,219.943 304.463,369.674 307.956,369.674 307.956,219.943 304.463,219.943 304.463,219.943 
  " fill="#00002d" fill-opacity="1"/>
<polyline clip-path="url(#clip02)" style="stroke:#00002d; stroke-width:0.8; stroke-opacity:1; fill:none" points="
  304.463,219.943 304.463,369.674 307.956,369.674 307.956,219.943 304.463,219.943 
  "/>
<polygon clip-path="url(#clip02)" points="
307.956,219.747 307.956,369.674 311.448,369.674 311.448,219.747 307.956,219.747 307.956,219.747 
  " fill="#00002d" fill-opacity="1"/>
<polyline clip-path="url(#clip02)" style="stroke:#00002d; stroke-width:0.8; stroke-opacity:1; fill:none" points="
  307.956,219.747 307.956,369.674 311.448,369.674 311.448,219.747 307.956,219.747 
  "/>
<polygon clip-path="url(#clip02)" points="
311.448,219.521 311.448,369.674 314.94,369.674 314.94,219.521 311.448,219.521 311.448,219.521 
  " fill="#00002d" fill-opacity="1"/>
<polyline clip-path="url(#clip02)" style="stroke:#00002d; stroke-width:0.8; stroke-opacity:1; fill:none" points="
  311.448,219.521 311.448,369.674 314.94,369.674 314.94,219.521 311.448,219.521 
  "/>
<polygon clip-path="url(#clip02)" points="
314.94,219.474 314.94,369.674 318.432,369.674 318.432,219.474 314.94,219.474 314.94,219.474 
  " fill="#00002d" fill-opacity="1"/>
<polyline clip-path="url(#clip02)" style="stroke:#00002d; stroke-width:0.8; stroke-opacity:1; fill:none" points="
  314.94,219.474 314.94,369.674 318.432,369.674 318.432,219.474 314.94,219.474 
  "/>
<polygon clip-path="url(#clip02)" points="
318.432,218.929 318.432,369.674 321.924,369.674 321.924,218.929 318.432,218.929 318.432,218.929 
  " fill="#00002d" fill-opacity="1"/>
<polyline clip-path="url(#clip02)" style="stroke:#00002d; stroke-width:0.8; stroke-opacity:1; fill:none" points="
  318.432,218.929 318.432,369.674 321.924,369.674 321.924,218.929 318.432,218.929 
  "/>
<polygon clip-path="url(#clip02)" points="
321.924,218.663 321.924,369.674 325.417,369.674 325.417,218.663 321.924,218.663 321.924,218.663 
  " fill="#00002d" fill-opacity="1"/>
<polyline clip-path="url(#clip02)" style="stroke:#00002d; stroke-width:0.8; stroke-opacity:1; fill:none" points="
  321.924,218.663 321.924,369.674 325.417,369.674 325.417,218.663 321.924,218.663 
  "/>
<polygon clip-path="url(#clip02)" points="
325.417,218.453 325.417,369.674 328.909,369.674 328.909,218.453 325.417,218.453 325.417,218.453 
  " fill="#00002d" fill-opacity="1"/>
<polyline clip-path="url(#clip02)" style="stroke:#00002d; stroke-width:0.8; stroke-opacity:1; fill:none" points="
  325.417,218.453 325.417,369.674 328.909,369.674 328.909,218.453 325.417,218.453 
  "/>
<polygon clip-path="url(#clip02)" points="
328.909,218.223 328.909,369.674 332.401,369.674 332.401,218.223 328.909,218.223 328.909,218.223 
  " fill="#00002d" fill-opacity="1"/>
<polyline clip-path="url(#clip02)" style="stroke:#00002d; stroke-width:0.8; stroke-opacity:1; fill:none" points="
  328.909,218.223 328.909,369.674 332.401,369.674 332.401,218.223 328.909,218.223 
  "/>
<polygon clip-path="url(#clip02)" points="
332.401,216.47 332.401,369.674 335.893,369.674 335.893,216.47 332.401,216.47 332.401,216.47 
  " fill="#00002d" fill-opacity="1"/>
<polyline clip-path="url(#clip02)" style="stroke:#00002d; stroke-width:0.8; stroke-opacity:1; fill:none" points="
  332.401,216.47 332.401,369.674 335.893,369.674 335.893,216.47 332.401,216.47 
  "/>
<polygon clip-path="url(#clip02)" points="
335.893,216.263 335.893,369.674 339.386,369.674 339.386,216.263 335.893,216.263 335.893,216.263 
  " fill="#00002d" fill-opacity="1"/>
<polyline clip-path="url(#clip02)" style="stroke:#00002d; stroke-width:0.8; stroke-opacity:1; fill:none" points="
  335.893,216.263 335.893,369.674 339.386,369.674 339.386,216.263 335.893,216.263 
  "/>
<polygon clip-path="url(#clip02)" points="
339.386,215.12 339.386,369.674 342.878,369.674 342.878,215.12 339.386,215.12 339.386,215.12 
  " fill="#00002d" fill-opacity="1"/>
<polyline clip-path="url(#clip02)" style="stroke:#00002d; stroke-width:0.8; stroke-opacity:1; fill:none" points="
  339.386,215.12 339.386,369.674 342.878,369.674 342.878,215.12 339.386,215.12 
  "/>
<polygon clip-path="url(#clip02)" points="
342.878,215.114 342.878,369.674 346.37,369.674 346.37,215.114 342.878,215.114 342.878,215.114 
  " fill="#00002d" fill-opacity="1"/>
<polyline clip-path="url(#clip02)" style="stroke:#00002d; stroke-width:0.8; stroke-opacity:1; fill:none" points="
  342.878,215.114 342.878,369.674 346.37,369.674 346.37,215.114 342.878,215.114 
  "/>
<polygon clip-path="url(#clip02)" points="
346.37,214.415 346.37,369.674 349.862,369.674 349.862,214.415 346.37,214.415 346.37,214.415 
  " fill="#00002d" fill-opacity="1"/>
<polyline clip-path="url(#clip02)" style="stroke:#00002d; stroke-width:0.8; stroke-opacity:1; fill:none" points="
  346.37,214.415 346.37,369.674 349.862,369.674 349.862,214.415 346.37,214.415 
  "/>
<polygon clip-path="url(#clip02)" points="
349.862,213.71 349.862,369.674 353.354,369.674 353.354,213.71 349.862,213.71 349.862,213.71 
  " fill="#00002d" fill-opacity="1"/>
<polyline clip-path="url(#clip02)" style="stroke:#00002d; stroke-width:0.8; stroke-opacity:1; fill:none" points="
  349.862,213.71 349.862,369.674 353.354,369.674 353.354,213.71 349.862,213.71 
  "/>
<polygon clip-path="url(#clip02)" points="
353.354,213.531 353.354,369.674 356.847,369.674 356.847,213.531 353.354,213.531 353.354,213.531 
  " fill="#7f7f7f" fill-opacity="1"/>
<polyline clip-path="url(#clip02)" style="stroke:#00002d; stroke-width:0.8; stroke-opacity:1; fill:none" points="
  353.354,213.531 353.354,369.674 356.847,369.674 356.847,213.531 353.354,213.531 
  "/>
<polygon clip-path="url(#clip02)" points="
356.847,213.226 356.847,369.674 360.339,369.674 360.339,213.226 356.847,213.226 356.847,213.226 
  " fill="#00002d" fill-opacity="1"/>
<polyline clip-path="url(#clip02)" style="stroke:#00002d; stroke-width:0.8; stroke-opacity:1; fill:none" points="
  356.847,213.226 356.847,369.674 360.339,369.674 360.339,213.226 356.847,213.226 
  "/>
<polygon clip-path="url(#clip02)" points="
360.339,212.873 360.339,369.674 363.831,369.674 363.831,212.873 360.339,212.873 360.339,212.873 
  " fill="#00002d" fill-opacity="1"/>
<polyline clip-path="url(#clip02)" style="stroke:#00002d; stroke-width:0.8; stroke-opacity:1; fill:none" points="
  360.339,212.873 360.339,369.674 363.831,369.674 363.831,212.873 360.339,212.873 
  "/>
<polygon clip-path="url(#clip02)" points="
363.831,212.659 363.831,369.674 367.323,369.674 367.323,212.659 363.831,212.659 363.831,212.659 
  " fill="#00002d" fill-opacity="1"/>
<polyline clip-path="url(#clip02)" style="stroke:#00002d; stroke-width:0.8; stroke-opacity:1; fill:none" points="
  363.831,212.659 363.831,369.674 367.323,369.674 367.323,212.659 363.831,212.659 
  "/>
<polygon clip-path="url(#clip02)" points="
367.323,212.175 367.323,369.674 370.815,369.674 370.815,212.175 367.323,212.175 367.323,212.175 
  " fill="#00002d" fill-opacity="1"/>
<polyline clip-path="url(#clip02)" style="stroke:#00002d; stroke-width:0.8; stroke-opacity:1; fill:none" points="
  367.323,212.175 367.323,369.674 370.815,369.674 370.815,212.175 367.323,212.175 
  "/>
<polygon clip-path="url(#clip02)" points="
370.815,211.282 370.815,369.674 374.308,369.674 374.308,211.282 370.815,211.282 370.815,211.282 
  " fill="#00002d" fill-opacity="1"/>
<polyline clip-path="url(#clip02)" style="stroke:#00002d; stroke-width:0.8; stroke-opacity:1; fill:none" points="
  370.815,211.282 370.815,369.674 374.308,369.674 374.308,211.282 370.815,211.282 
  "/>
<polygon clip-path="url(#clip02)" points="
374.308,209.503 374.308,369.674 377.8,369.674 377.8,209.503 374.308,209.503 374.308,209.503 
  " fill="#00002d" fill-opacity="1"/>
<polyline clip-path="url(#clip02)" style="stroke:#00002d; stroke-width:0.8; stroke-opacity:1; fill:none" points="
  374.308,209.503 374.308,369.674 377.8,369.674 377.8,209.503 374.308,209.503 
  "/>
<polygon clip-path="url(#clip02)" points="
377.8,209.426 377.8,369.674 381.292,369.674 381.292,209.426 377.8,209.426 377.8,209.426 
  " fill="#00002d" fill-opacity="1"/>
<polyline clip-path="url(#clip02)" style="stroke:#00002d; stroke-width:0.8; stroke-opacity:1; fill:none" points="
  377.8,209.426 377.8,369.674 381.292,369.674 381.292,209.426 377.8,209.426 
  "/>
<polygon clip-path="url(#clip02)" points="
381.292,209.013 381.292,369.674 384.784,369.674 384.784,209.013 381.292,209.013 381.292,209.013 
  " fill="#00002d" fill-opacity="1"/>
<polyline clip-path="url(#clip02)" style="stroke:#00002d; stroke-width:0.8; stroke-opacity:1; fill:none" points="
  381.292,209.013 381.292,369.674 384.784,369.674 384.784,209.013 381.292,209.013 
  "/>
<polygon clip-path="url(#clip02)" points="
384.784,208.725 384.784,369.674 388.276,369.674 388.276,208.725 384.784,208.725 384.784,208.725 
  " fill="#00002d" fill-opacity="1"/>
<polyline clip-path="url(#clip02)" style="stroke:#00002d; stroke-width:0.8; stroke-opacity:1; fill:none" points="
  384.784,208.725 384.784,369.674 388.276,369.674 388.276,208.725 384.784,208.725 
  "/>
<polygon clip-path="url(#clip02)" points="
388.276,207.181 388.276,369.674 391.769,369.674 391.769,207.181 388.276,207.181 388.276,207.181 
  " fill="#00002d" fill-opacity="1"/>
<polyline clip-path="url(#clip02)" style="stroke:#00002d; stroke-width:0.8; stroke-opacity:1; fill:none" points="
  388.276,207.181 388.276,369.674 391.769,369.674 391.769,207.181 388.276,207.181 
  "/>
<polygon clip-path="url(#clip02)" points="
391.769,207.149 391.769,369.674 395.261,369.674 395.261,207.149 391.769,207.149 391.769,207.149 
  " fill="#00002d" fill-opacity="1"/>
<polyline clip-path="url(#clip02)" style="stroke:#00002d; stroke-width:0.8; stroke-opacity:1; fill:none" points="
  391.769,207.149 391.769,369.674 395.261,369.674 395.261,207.149 391.769,207.149 
  "/>
<polygon clip-path="url(#clip02)" points="
395.261,206.474 395.261,369.674 398.753,369.674 398.753,206.474 395.261,206.474 395.261,206.474 
  " fill="#00002d" fill-opacity="1"/>
<polyline clip-path="url(#clip02)" style="stroke:#00002d; stroke-width:0.8; stroke-opacity:1; fill:none" points="
  395.261,206.474 395.261,369.674 398.753,369.674 398.753,206.474 395.261,206.474 
  "/>
<polygon clip-path="url(#clip02)" points="
398.753,206.416 398.753,369.674 402.245,369.674 402.245,206.416 398.753,206.416 398.753,206.416 
  " fill="#00002d" fill-opacity="1"/>
<polyline clip-path="url(#clip02)" style="stroke:#00002d; stroke-width:0.8; stroke-opacity:1; fill:none" points="
  398.753,206.416 398.753,369.674 402.245,369.674 402.245,206.416 398.753,206.416 
  "/>
<polygon clip-path="url(#clip02)" points="
402.245,206.408 402.245,369.674 405.738,369.674 405.738,206.408 402.245,206.408 402.245,206.408 
  " fill="#00002d" fill-opacity="1"/>
<polyline clip-path="url(#clip02)" style="stroke:#00002d; stroke-width:0.8; stroke-opacity:1; fill:none" points="
  402.245,206.408 402.245,369.674 405.738,369.674 405.738,206.408 402.245,206.408 
  "/>
<polygon clip-path="url(#clip02)" points="
405.738,206.066 405.738,369.674 409.23,369.674 409.23,206.066 405.738,206.066 405.738,206.066 
  " fill="#00002d" fill-opacity="1"/>
<polyline clip-path="url(#clip02)" style="stroke:#00002d; stroke-width:0.8; stroke-opacity:1; fill:none" points="
  405.738,206.066 405.738,369.674 409.23,369.674 409.23,206.066 405.738,206.066 
  "/>
<polygon clip-path="url(#clip02)" points="
409.23,204.983 409.23,369.674 412.722,369.674 412.722,204.983 409.23,204.983 409.23,204.983 
  " fill="#00002d" fill-opacity="1"/>
<polyline clip-path="url(#clip02)" style="stroke:#00002d; stroke-width:0.8; stroke-opacity:1; fill:none" points="
  409.23,204.983 409.23,369.674 412.722,369.674 412.722,204.983 409.23,204.983 
  "/>
<polygon clip-path="url(#clip02)" points="
412.722,204.666 412.722,369.674 416.214,369.674 416.214,204.666 412.722,204.666 412.722,204.666 
  " fill="#00002d" fill-opacity="1"/>
<polyline clip-path="url(#clip02)" style="stroke:#00002d; stroke-width:0.8; stroke-opacity:1; fill:none" points="
  412.722,204.666 412.722,369.674 416.214,369.674 416.214,204.666 412.722,204.666 
  "/>
<polygon clip-path="url(#clip02)" points="
416.214,204.431 416.214,369.674 419.706,369.674 419.706,204.431 416.214,204.431 416.214,204.431 
  " fill="#00002d" fill-opacity="1"/>
<polyline clip-path="url(#clip02)" style="stroke:#00002d; stroke-width:0.8; stroke-opacity:1; fill:none" points="
  416.214,204.431 416.214,369.674 419.706,369.674 419.706,204.431 416.214,204.431 
  "/>
<polygon clip-path="url(#clip02)" points="
419.706,203.506 419.706,369.674 423.199,369.674 423.199,203.506 419.706,203.506 419.706,203.506 
  " fill="#00002d" fill-opacity="1"/>
<polyline clip-path="url(#clip02)" style="stroke:#00002d; stroke-width:0.8; stroke-opacity:1; fill:none" points="
  419.706,203.506 419.706,369.674 423.199,369.674 423.199,203.506 419.706,203.506 
  "/>
<polygon clip-path="url(#clip02)" points="
423.199,202.905 423.199,369.674 426.691,369.674 426.691,202.905 423.199,202.905 423.199,202.905 
  " fill="#7f7f7f" fill-opacity="1"/>
<polyline clip-path="url(#clip02)" style="stroke:#00002d; stroke-width:0.8; stroke-opacity:1; fill:none" points="
  423.199,202.905 423.199,369.674 426.691,369.674 426.691,202.905 423.199,202.905 
  "/>
<polygon clip-path="url(#clip02)" points="
426.691,202.897 426.691,369.674 430.183,369.674 430.183,202.897 426.691,202.897 426.691,202.897 
  " fill="#00002d" fill-opacity="1"/>
<polyline clip-path="url(#clip02)" style="stroke:#00002d; stroke-width:0.8; stroke-opacity:1; fill:none" points="
  426.691,202.897 426.691,369.674 430.183,369.674 430.183,202.897 426.691,202.897 
  "/>
<polygon clip-path="url(#clip02)" points="
430.183,202.761 430.183,369.674 433.675,369.674 433.675,202.761 430.183,202.761 430.183,202.761 
  " fill="#00002d" fill-opacity="1"/>
<polyline clip-path="url(#clip02)" style="stroke:#00002d; stroke-width:0.8; stroke-opacity:1; fill:none" points="
  430.183,202.761 430.183,369.674 433.675,369.674 433.675,202.761 430.183,202.761 
  "/>
<polygon clip-path="url(#clip02)" points="
433.675,202.649 433.675,369.674 437.167,369.674 437.167,202.649 433.675,202.649 433.675,202.649 
  " fill="#00002d" fill-opacity="1"/>
<polyline clip-path="url(#clip02)" style="stroke:#00002d; stroke-width:0.8; stroke-opacity:1; fill:none" points="
  433.675,202.649 433.675,369.674 437.167,369.674 437.167,202.649 433.675,202.649 
  "/>
<polygon clip-path="url(#clip02)" points="
437.167,201.894 437.167,369.674 440.66,369.674 440.66,201.894 437.167,201.894 437.167,201.894 
  " fill="#7f7f7f" fill-opacity="1"/>
<polyline clip-path="url(#clip02)" style="stroke:#00002d; stroke-width:0.8; stroke-opacity:1; fill:none" points="
  437.167,201.894 437.167,369.674 440.66,369.674 440.66,201.894 437.167,201.894 
  "/>
<polygon clip-path="url(#clip02)" points="
440.66,201.193 440.66,369.674 444.152,369.674 444.152,201.193 440.66,201.193 440.66,201.193 
  " fill="#00002d" fill-opacity="1"/>
<polyline clip-path="url(#clip02)" style="stroke:#00002d; stroke-width:0.8; stroke-opacity:1; fill:none" points="
  440.66,201.193 440.66,369.674 444.152,369.674 444.152,201.193 440.66,201.193 
  "/>
<polygon clip-path="url(#clip02)" points="
444.152,200.546 444.152,369.674 447.644,369.674 447.644,200.546 444.152,200.546 444.152,200.546 
  " fill="#00002d" fill-opacity="1"/>
<polyline clip-path="url(#clip02)" style="stroke:#00002d; stroke-width:0.8; stroke-opacity:1; fill:none" points="
  444.152,200.546 444.152,369.674 447.644,369.674 447.644,200.546 444.152,200.546 
  "/>
<polygon clip-path="url(#clip02)" points="
447.644,199.838 447.644,369.674 451.136,369.674 451.136,199.838 447.644,199.838 447.644,199.838 
  " fill="#00002d" fill-opacity="1"/>
<polyline clip-path="url(#clip02)" style="stroke:#00002d; stroke-width:0.8; stroke-opacity:1; fill:none" points="
  447.644,199.838 447.644,369.674 451.136,369.674 451.136,199.838 447.644,199.838 
  "/>
<polygon clip-path="url(#clip02)" points="
451.136,199.836 451.136,369.674 454.628,369.674 454.628,199.836 451.136,199.836 451.136,199.836 
  " fill="#00002d" fill-opacity="1"/>
<polyline clip-path="url(#clip02)" style="stroke:#00002d; stroke-width:0.8; stroke-opacity:1; fill:none" points="
  451.136,199.836 451.136,369.674 454.628,369.674 454.628,199.836 451.136,199.836 
  "/>
<polygon clip-path="url(#clip02)" points="
454.628,199.732 454.628,369.674 458.121,369.674 458.121,199.732 454.628,199.732 454.628,199.732 
  " fill="#00002d" fill-opacity="1"/>
<polyline clip-path="url(#clip02)" style="stroke:#00002d; stroke-width:0.8; stroke-opacity:1; fill:none" points="
  454.628,199.732 454.628,369.674 458.121,369.674 458.121,199.732 454.628,199.732 
  "/>
<polygon clip-path="url(#clip02)" points="
458.121,199.65 458.121,369.674 461.613,369.674 461.613,199.65 458.121,199.65 458.121,199.65 
  " fill="#00002d" fill-opacity="1"/>
<polyline clip-path="url(#clip02)" style="stroke:#00002d; stroke-width:0.8; stroke-opacity:1; fill:none" points="
  458.121,199.65 458.121,369.674 461.613,369.674 461.613,199.65 458.121,199.65 
  "/>
<polygon clip-path="url(#clip02)" points="
461.613,199.097 461.613,369.674 465.105,369.674 465.105,199.097 461.613,199.097 461.613,199.097 
  " fill="#00002d" fill-opacity="1"/>
<polyline clip-path="url(#clip02)" style="stroke:#00002d; stroke-width:0.8; stroke-opacity:1; fill:none" points="
  461.613,199.097 461.613,369.674 465.105,369.674 465.105,199.097 461.613,199.097 
  "/>
<polygon clip-path="url(#clip02)" points="
465.105,199.053 465.105,369.674 468.597,369.674 468.597,199.053 465.105,199.053 465.105,199.053 
  " fill="#00002d" fill-opacity="1"/>
<polyline clip-path="url(#clip02)" style="stroke:#00002d; stroke-width:0.8; stroke-opacity:1; fill:none" points="
  465.105,199.053 465.105,369.674 468.597,369.674 468.597,199.053 465.105,199.053 
  "/>
<polygon clip-path="url(#clip02)" points="
468.597,198.95 468.597,369.674 472.09,369.674 472.09,198.95 468.597,198.95 468.597,198.95 
  " fill="#00002d" fill-opacity="1"/>
<polyline clip-path="url(#clip02)" style="stroke:#00002d; stroke-width:0.8; stroke-opacity:1; fill:none" points="
  468.597,198.95 468.597,369.674 472.09,369.674 472.09,198.95 468.597,198.95 
  "/>
<polygon clip-path="url(#clip02)" points="
472.09,198.69 472.09,369.674 475.582,369.674 475.582,198.69 472.09,198.69 472.09,198.69 
  " fill="#00002d" fill-opacity="1"/>
<polyline clip-path="url(#clip02)" style="stroke:#00002d; stroke-width:0.8; stroke-opacity:1; fill:none" points="
  472.09,198.69 472.09,369.674 475.582,369.674 475.582,198.69 472.09,198.69 
  "/>
<polygon clip-path="url(#clip02)" points="
475.582,198.46 475.582,369.674 479.074,369.674 479.074,198.46 475.582,198.46 475.582,198.46 
  " fill="#00002d" fill-opacity="1"/>
<polyline clip-path="url(#clip02)" style="stroke:#00002d; stroke-width:0.8; stroke-opacity:1; fill:none" points="
  475.582,198.46 475.582,369.674 479.074,369.674 479.074,198.46 475.582,198.46 
  "/>
<polygon clip-path="url(#clip02)" points="
479.074,198.448 479.074,369.674 482.566,369.674 482.566,198.448 479.074,198.448 479.074,198.448 
  " fill="#00002d" fill-opacity="1"/>
<polyline clip-path="url(#clip02)" style="stroke:#00002d; stroke-width:0.8; stroke-opacity:1; fill:none" points="
  479.074,198.448 479.074,369.674 482.566,369.674 482.566,198.448 479.074,198.448 
  "/>
<polygon clip-path="url(#clip02)" points="
482.566,198.01 482.566,369.674 486.058,369.674 486.058,198.01 482.566,198.01 482.566,198.01 
  " fill="#00002d" fill-opacity="1"/>
<polyline clip-path="url(#clip02)" style="stroke:#00002d; stroke-width:0.8; stroke-opacity:1; fill:none" points="
  482.566,198.01 482.566,369.674 486.058,369.674 486.058,198.01 482.566,198.01 
  "/>
<polygon clip-path="url(#clip02)" points="
486.058,197.495 486.058,369.674 489.551,369.674 489.551,197.495 486.058,197.495 486.058,197.495 
  " fill="#00002d" fill-opacity="1"/>
<polyline clip-path="url(#clip02)" style="stroke:#00002d; stroke-width:0.8; stroke-opacity:1; fill:none" points="
  486.058,197.495 486.058,369.674 489.551,369.674 489.551,197.495 486.058,197.495 
  "/>
<polygon clip-path="url(#clip02)" points="
489.551,194.452 489.551,369.674 493.043,369.674 493.043,194.452 489.551,194.452 489.551,194.452 
  " fill="#00002d" fill-opacity="1"/>
<polyline clip-path="url(#clip02)" style="stroke:#00002d; stroke-width:0.8; stroke-opacity:1; fill:none" points="
  489.551,194.452 489.551,369.674 493.043,369.674 493.043,194.452 489.551,194.452 
  "/>
<polygon clip-path="url(#clip02)" points="
493.043,194.423 493.043,369.674 496.535,369.674 496.535,194.423 493.043,194.423 493.043,194.423 
  " fill="#00002d" fill-opacity="1"/>
<polyline clip-path="url(#clip02)" style="stroke:#00002d; stroke-width:0.8; stroke-opacity:1; fill:none" points="
  493.043,194.423 493.043,369.674 496.535,369.674 496.535,194.423 493.043,194.423 
  "/>
<polygon clip-path="url(#clip02)" points="
496.535,190.302 496.535,369.674 500.027,369.674 500.027,190.302 496.535,190.302 496.535,190.302 
  " fill="#00002d" fill-opacity="1"/>
<polyline clip-path="url(#clip02)" style="stroke:#00002d; stroke-width:0.8; stroke-opacity:1; fill:none" points="
  496.535,190.302 496.535,369.674 500.027,369.674 500.027,190.302 496.535,190.302 
  "/>
<polygon clip-path="url(#clip02)" points="
500.027,190.22 500.027,369.674 503.519,369.674 503.519,190.22 500.027,190.22 500.027,190.22 
  " fill="#00002d" fill-opacity="1"/>
<polyline clip-path="url(#clip02)" style="stroke:#00002d; stroke-width:0.8; stroke-opacity:1; fill:none" points="
  500.027,190.22 500.027,369.674 503.519,369.674 503.519,190.22 500.027,190.22 
  "/>
<polygon clip-path="url(#clip02)" points="
503.519,187.285 503.519,369.674 507.012,369.674 507.012,187.285 503.519,187.285 503.519,187.285 
  " fill="#00002d" fill-opacity="1"/>
<polyline clip-path="url(#clip02)" style="stroke:#00002d; stroke-width:0.8; stroke-opacity:1; fill:none" points="
  503.519,187.285 503.519,369.674 507.012,369.674 507.012,187.285 503.519,187.285 
  "/>
<polygon clip-path="url(#clip02)" points="
507.012,187.279 507.012,369.674 510.504,369.674 510.504,187.279 507.012,187.279 507.012,187.279 
  " fill="#00002d" fill-opacity="1"/>
<polyline clip-path="url(#clip02)" style="stroke:#00002d; stroke-width:0.8; stroke-opacity:1; fill:none" points="
  507.012,187.279 507.012,369.674 510.504,369.674 510.504,187.279 507.012,187.279 
  "/>
<polygon clip-path="url(#clip02)" points="
510.504,187.219 510.504,369.674 513.996,369.674 513.996,187.219 510.504,187.219 510.504,187.219 
  " fill="#00002d" fill-opacity="1"/>
<polyline clip-path="url(#clip02)" style="stroke:#00002d; stroke-width:0.8; stroke-opacity:1; fill:none" points="
  510.504,187.219 510.504,369.674 513.996,369.674 513.996,187.219 510.504,187.219 
  "/>
<polygon clip-path="url(#clip02)" points="
513.996,187.013 513.996,369.674 517.488,369.674 517.488,187.013 513.996,187.013 513.996,187.013 
  " fill="#00002d" fill-opacity="1"/>
<polyline clip-path="url(#clip02)" style="stroke:#00002d; stroke-width:0.8; stroke-opacity:1; fill:none" points="
  513.996,187.013 513.996,369.674 517.488,369.674 517.488,187.013 513.996,187.013 
  "/>
<polygon clip-path="url(#clip02)" points="
517.488,186.541 517.488,369.674 520.98,369.674 520.98,186.541 517.488,186.541 517.488,186.541 
  " fill="#00002d" fill-opacity="1"/>
<polyline clip-path="url(#clip02)" style="stroke:#00002d; stroke-width:0.8; stroke-opacity:1; fill:none" points="
  517.488,186.541 517.488,369.674 520.98,369.674 520.98,186.541 517.488,186.541 
  "/>
<polygon clip-path="url(#clip02)" points="
520.98,183.739 520.98,369.674 524.473,369.674 524.473,183.739 520.98,183.739 520.98,183.739 
  " fill="#00002d" fill-opacity="1"/>
<polyline clip-path="url(#clip02)" style="stroke:#00002d; stroke-width:0.8; stroke-opacity:1; fill:none" points="
  520.98,183.739 520.98,369.674 524.473,369.674 524.473,183.739 520.98,183.739 
  "/>
<polygon clip-path="url(#clip02)" points="
524.473,183.374 524.473,369.674 527.965,369.674 527.965,183.374 524.473,183.374 524.473,183.374 
  " fill="#00002d" fill-opacity="1"/>
<polyline clip-path="url(#clip02)" style="stroke:#00002d; stroke-width:0.8; stroke-opacity:1; fill:none" points="
  524.473,183.374 524.473,369.674 527.965,369.674 527.965,183.374 524.473,183.374 
  "/>
<polygon clip-path="url(#clip02)" points="
527.965,181.566 527.965,369.674 531.457,369.674 531.457,181.566 527.965,181.566 527.965,181.566 
  " fill="#00002d" fill-opacity="1"/>
<polyline clip-path="url(#clip02)" style="stroke:#00002d; stroke-width:0.8; stroke-opacity:1; fill:none" points="
  527.965,181.566 527.965,369.674 531.457,369.674 531.457,181.566 527.965,181.566 
  "/>
<polygon clip-path="url(#clip02)" points="
531.457,179.751 531.457,369.674 534.949,369.674 534.949,179.751 531.457,179.751 531.457,179.751 
  " fill="#00002d" fill-opacity="1"/>
<polyline clip-path="url(#clip02)" style="stroke:#00002d; stroke-width:0.8; stroke-opacity:1; fill:none" points="
  531.457,179.751 531.457,369.674 534.949,369.674 534.949,179.751 531.457,179.751 
  "/>
<polygon clip-path="url(#clip02)" points="
534.949,179.606 534.949,369.674 538.442,369.674 538.442,179.606 534.949,179.606 534.949,179.606 
  " fill="#00002d" fill-opacity="1"/>
<polyline clip-path="url(#clip02)" style="stroke:#00002d; stroke-width:0.8; stroke-opacity:1; fill:none" points="
  534.949,179.606 534.949,369.674 538.442,369.674 538.442,179.606 534.949,179.606 
  "/>
<polygon clip-path="url(#clip02)" points="
538.442,179.04 538.442,369.674 541.934,369.674 541.934,179.04 538.442,179.04 538.442,179.04 
  " fill="#00002d" fill-opacity="1"/>
<polyline clip-path="url(#clip02)" style="stroke:#00002d; stroke-width:0.8; stroke-opacity:1; fill:none" points="
  538.442,179.04 538.442,369.674 541.934,369.674 541.934,179.04 538.442,179.04 
  "/>
<polygon clip-path="url(#clip02)" points="
541.934,175.343 541.934,369.674 545.426,369.674 545.426,175.343 541.934,175.343 541.934,175.343 
  " fill="#00002d" fill-opacity="1"/>
<polyline clip-path="url(#clip02)" style="stroke:#00002d; stroke-width:0.8; stroke-opacity:1; fill:none" points="
  541.934,175.343 541.934,369.674 545.426,369.674 545.426,175.343 541.934,175.343 
  "/>
<polygon clip-path="url(#clip02)" points="
545.426,175.183 545.426,369.674 548.918,369.674 548.918,175.183 545.426,175.183 545.426,175.183 
  " fill="#00002d" fill-opacity="1"/>
<polyline clip-path="url(#clip02)" style="stroke:#00002d; stroke-width:0.8; stroke-opacity:1; fill:none" points="
  545.426,175.183 545.426,369.674 548.918,369.674 548.918,175.183 545.426,175.183 
  "/>
<polygon clip-path="url(#clip02)" points="
548.918,169.836 548.918,369.674 552.41,369.674 552.41,169.836 548.918,169.836 548.918,169.836 
  " fill="#00002d" fill-opacity="1"/>
<polyline clip-path="url(#clip02)" style="stroke:#00002d; stroke-width:0.8; stroke-opacity:1; fill:none" points="
  548.918,169.836 548.918,369.674 552.41,369.674 552.41,169.836 548.918,169.836 
  "/>
<polygon clip-path="url(#clip02)" points="
552.41,167.21 552.41,369.674 555.903,369.674 555.903,167.21 552.41,167.21 552.41,167.21 
  " fill="#00002d" fill-opacity="1"/>
<polyline clip-path="url(#clip02)" style="stroke:#00002d; stroke-width:0.8; stroke-opacity:1; fill:none" points="
  552.41,167.21 552.41,369.674 555.903,369.674 555.903,167.21 552.41,167.21 
  "/>
<polygon clip-path="url(#clip02)" points="
555.903,165.495 555.903,369.674 559.395,369.674 559.395,165.495 555.903,165.495 555.903,165.495 
  " fill="#00002d" fill-opacity="1"/>
<polyline clip-path="url(#clip02)" style="stroke:#00002d; stroke-width:0.8; stroke-opacity:1; fill:none" points="
  555.903,165.495 555.903,369.674 559.395,369.674 559.395,165.495 555.903,165.495 
  "/>
<polygon clip-path="url(#clip02)" points="
559.395,165.36 559.395,369.674 562.887,369.674 562.887,165.36 559.395,165.36 559.395,165.36 
  " fill="#00002d" fill-opacity="1"/>
<polyline clip-path="url(#clip02)" style="stroke:#00002d; stroke-width:0.8; stroke-opacity:1; fill:none" points="
  559.395,165.36 559.395,369.674 562.887,369.674 562.887,165.36 559.395,165.36 
  "/>
<polygon clip-path="url(#clip02)" points="
562.887,162.774 562.887,369.674 566.379,369.674 566.379,162.774 562.887,162.774 562.887,162.774 
  " fill="#00002d" fill-opacity="1"/>
<polyline clip-path="url(#clip02)" style="stroke:#00002d; stroke-width:0.8; stroke-opacity:1; fill:none" points="
  562.887,162.774 562.887,369.674 566.379,369.674 566.379,162.774 562.887,162.774 
  "/>
<polygon clip-path="url(#clip02)" points="
566.379,159.144 566.379,369.674 569.871,369.674 569.871,159.144 566.379,159.144 566.379,159.144 
  " fill="#00002d" fill-opacity="1"/>
<polyline clip-path="url(#clip02)" style="stroke:#00002d; stroke-width:0.8; stroke-opacity:1; fill:none" points="
  566.379,159.144 566.379,369.674 569.871,369.674 569.871,159.144 566.379,159.144 
  "/>
<polygon clip-path="url(#clip02)" points="
569.871,128.074 569.871,369.674 573.364,369.674 573.364,128.074 569.871,128.074 569.871,128.074 
  " fill="#00002d" fill-opacity="1"/>
<polyline clip-path="url(#clip02)" style="stroke:#00002d; stroke-width:0.8; stroke-opacity:1; fill:none" points="
  569.871,128.074 569.871,369.674 573.364,369.674 573.364,128.074 569.871,128.074 
  "/>
<polygon clip-path="url(#clip02)" points="
573.364,52.2456 573.364,369.674 576.856,369.674 576.856,52.2456 573.364,52.2456 573.364,52.2456 
  " fill="#00002d" fill-opacity="1"/>
<polyline clip-path="url(#clip02)" style="stroke:#00002d; stroke-width:0.8; stroke-opacity:1; fill:none" points="
  573.364,52.2456 573.364,369.674 576.856,369.674 576.856,52.2456 573.364,52.2456 
  "/>
<polyline clip-path="url(#clip02)" style="stroke:#00002d; stroke-width:0.8; stroke-opacity:1; fill:none" stroke-dasharray="1, 2" points="
  314.94,369.674 314.94,23.3815 
  "/>
<polyline clip-path="url(#clip02)" style="stroke:#00002d; stroke-width:0.8; stroke-opacity:1; fill:none" stroke-dasharray="1, 2" points="
  54.7703,153.241 596.063,153.241 
  "/>
</svg>
