<?xml version="1.0" encoding="utf-8"?>
<svg xmlns="http://www.w3.org/2000/svg" xmlns:xlink="http://www.w3.org/1999/xlink" width="600" height="400" viewBox="0 0 600 400">
<defs>
  <clipPath id="clip00">
    <rect x="0" y="0" width="600" height="400"/>
  </clipPath>
</defs>
<polygon clip-path="url(#clip00)" points="
0,400 600,400 600,0 0,0 
  " fill="#ffffff" fill-opacity="1"/>
<defs>
  <clipPath id="clip01">
    <rect x="120" y="0" width="421" height="400"/>
  </clipPath>
</defs>
<polygon clip-path="url(#clip00)" points="
45.8815,369.674 596.063,369.674 596.063,23.3815 45.8815,23.3815 
  " fill="#ffffff" fill-opacity="1"/>
<defs>
  <clipPath id="clip02">
    <rect x="45" y="23" width="551" height="347"/>
  </clipPath>
</defs>
<polyline clip-path="url(#clip02)" style="stroke:#00002d; stroke-width:0.8; stroke-opacity:1; fill:none" points="
  45.8815,369.674 596.063,369.674 
  "/>
<polyline clip-path="url(#clip02)" style="stroke:#00002d; stroke-width:0.8; stroke-opacity:1; fill:none" points="
  95.898,369.674 95.898,364.48 
  "/>
<polyline clip-path="url(#clip02)" style="stroke:#00002d; stroke-width:0.8; stroke-opacity:1; fill:none" points="
  345.98,369.674 345.98,364.48 
  "/>
<polyline clip-path="url(#clip02)" style="stroke:#00002d; stroke-width:0.8; stroke-opacity:1; fill:none" points="
  596.063,369.674 596.063,364.48 
  "/>
<polyline clip-path="url(#clip02)" style="stroke:#00002d; stroke-width:0.8; stroke-opacity:1; fill:none" points="
  45.8815,369.674 45.8815,23.3815 
  "/>
<polyline clip-path="url(#clip02)" style="stroke:#00002d; stroke-width:0.8; stroke-opacity:1; fill:none" points="
  45.8815,369.674 54.1342,369.674 
  "/>
<polyline clip-path="url(#clip02)" style="stroke:#00002d; stroke-width:0.8; stroke-opacity:1; fill:none" points="
  45.8815,311.959 54.1342,311.959 
  "/>
<polyline clip-path="url(#clip02)" style="stroke:#00002d; stroke-width:0.8; stroke-opacity:1; fill:none" points="
  45.8815,254.243 54.1342,254.243 
  "/>
<polyline clip-path="url(#clip02)" style="stroke:#00002d; stroke-width:0.8; stroke-opacity:1; fill:none" points="
  45.8815,196.528 54.1342,196.528 
  "/>
<polyline clip-path="url(#clip02)" style="stroke:#00002d; stroke-width:0.8; stroke-opacity:1; fill:none" points="
  45.8815,138.812 54.1342,138.812 
  "/>
<polyline clip-path="url(#clip02)" style="stroke:#00002d; stroke-width:0.8; stroke-opacity:1; fill:none" points="
  45.8815,81.0969 54.1342,81.0969 
  "/>
<polyline clip-path="url(#clip02)" style="stroke:#00002d; stroke-width:0.8; stroke-opacity:1; fill:none" points="
  45.8815,23.3815 54.1342,23.3815 
  "/>
<g clip-path="url(#clip00)">
<text style="fill:#00002d; fill-opacity:1; font-family:Arial,Helvetica Neue,Helvetica,sans-serif; font-size:12; text-anchor:middle;" transform="rotate(0, 95.898, 381.674)" x="95.898" y="381.674">2005</text>
</g>
<g clip-path="url(#clip00)">
<text style="fill:#00002d; fill-opacity:1; font-family:Arial,Helvetica Neue,Helvetica,sans-serif; font-size:12; text-anchor:middle;" transform="rotate(0, 345.98, 381.674)" x="345.98" y="381.674">2010</text>
</g>
<g clip-path="url(#clip00)">
<text style="fill:#00002d; fill-opacity:1; font-family:Arial,Helvetica Neue,Helvetica,sans-serif; font-size:12; text-anchor:middle;" transform="rotate(0, 596.063, 381.674)" x="596.063" y="381.674">2015</text>
</g>
<g clip-path="url(#clip00)">
<text style="fill:#00002d; fill-opacity:1; font-family:Arial,Helvetica Neue,Helvetica,sans-serif; font-size:12; text-anchor:end;" transform="rotate(0, 44.6815, 374.174)" x="44.6815" y="374.174">0.0</text>
</g>
<g clip-path="url(#clip00)">
<text style="fill:#00002d; fill-opacity:1; font-family:Arial,Helvetica Neue,Helvetica,sans-serif; font-size:12; text-anchor:end;" transform="rotate(0, 44.6815, 316.459)" x="44.6815" y="316.459">0.1</text>
</g>
<g clip-path="url(#clip00)">
<text style="fill:#00002d; fill-opacity:1; font-family:Arial,Helvetica Neue,Helvetica,sans-serif; font-size:12; text-anchor:end;" transform="rotate(0, 44.6815, 258.743)" x="44.6815" y="258.743">0.2</text>
</g>
<g clip-path="url(#clip00)">
<text style="fill:#00002d; fill-opacity:1; font-family:Arial,Helvetica Neue,Helvetica,sans-serif; font-size:12; text-anchor:end;" transform="rotate(0, 44.6815, 201.028)" x="44.6815" y="201.028">0.3</text>
</g>
<g clip-path="url(#clip00)">
<text style="fill:#00002d; fill-opacity:1; font-family:Arial,Helvetica Neue,Helvetica,sans-serif; font-size:12; text-anchor:end;" transform="rotate(0, 44.6815, 143.312)" x="44.6815" y="143.312">0.4</text>
</g>
<g clip-path="url(#clip00)">
<text style="fill:#00002d; fill-opacity:1; font-family:Arial,Helvetica Neue,Helvetica,sans-serif; font-size:12; text-anchor:end;" transform="rotate(0, 44.6815, 85.5969)" x="44.6815" y="85.5969">0.5</text>
</g>
<g clip-path="url(#clip00)">
<text style="fill:#00002d; fill-opacity:1; font-family:Arial,Helvetica Neue,Helvetica,sans-serif; font-size:12; text-anchor:end;" transform="rotate(0, 44.6815, 27.8815)" x="44.6815" y="27.8815">0.6</text>
</g>
<g clip-path="url(#clip00)">
<text style="fill:#00002d; fill-opacity:1; font-family:Arial,Helvetica Neue,Helvetica,sans-serif; font-size:21; text-anchor:middle;" transform="rotate(0, 320.972, 18)" x="320.972" y="18">Primary Articles</text>
</g>
<g clip-path="url(#clip00)">
<text style="fill:#00002d; fill-opacity:1; font-family:Arial,Helvetica Neue,Helvetica,sans-serif; font-size:16; text-anchor:middle;" transform="rotate(0, 320.972, 397.6)" x="320.972" y="397.6">Year</text>
</g>
<g clip-path="url(#clip00)">
<text style="fill:#00002d; fill-opacity:1; font-family:Arial,Helvetica Neue,Helvetica,sans-serif; font-size:16; text-anchor:middle;" transform="rotate(-90, 14.4, 196.528)" x="14.4" y="196.528">Percent Female</text>
</g>
<polyline clip-path="url(#clip02)" style="stroke:#00002d; stroke-width:2.4; stroke-opacity:1; fill:none" points="
  -304.234,177.188 -254.218,111.6 -204.201,64.2624 -154.185,138.127 -104.168,205.95 -54.1516,188.177 -4.13505,184.487 45.8815,185.243 95.898,184.176 145.914,180.178 
  195.931,178.445 245.947,179.856 295.964,178.768 345.98,173.707 395.997,171.061 446.013,168.311 496.03,164.282 546.046,164.775 596.063,162.046 
  "/>
<circle clip-path="url(#clip02)" style="fill:#00002d; stroke:none; fill-opacity:1" cx="45.8815" cy="185.243" r="3"/>
<circle clip-path="url(#clip02)" style="fill:#00002d; stroke:none; fill-opacity:1" cx="45.8815" cy="185.243" r="2"/>
<circle clip-path="url(#clip02)" style="fill:#00002d; stroke:none; fill-opacity:1" cx="95.898" cy="184.176" r="3"/>
<circle clip-path="url(#clip02)" style="fill:#00002d; stroke:none; fill-opacity:1" cx="95.898" cy="184.176" r="2"/>
<circle clip-path="url(#clip02)" style="fill:#00002d; stroke:none; fill-opacity:1" cx="145.914" cy="180.178" r="3"/>
<circle clip-path="url(#clip02)" style="fill:#00002d; stroke:none; fill-opacity:1" cx="145.914" cy="180.178" r="2"/>
<circle clip-path="url(#clip02)" style="fill:#00002d; stroke:none; fill-opacity:1" cx="195.931" cy="178.445" r="3"/>
<circle clip-path="url(#clip02)" style="fill:#00002d; stroke:none; fill-opacity:1" cx="195.931" cy="178.445" r="2"/>
<circle clip-path="url(#clip02)" style="fill:#00002d; stroke:none; fill-opacity:1" cx="245.947" cy="179.856" r="3"/>
<circle clip-path="url(#clip02)" style="fill:#00002d; stroke:none; fill-opacity:1" cx="245.947" cy="179.856" r="2"/>
<circle clip-path="url(#clip02)" style="fill:#00002d; stroke:none; fill-opacity:1" cx="295.964" cy="178.768" r="3"/>
<circle clip-path="url(#clip02)" style="fill:#00002d; stroke:none; fill-opacity:1" cx="295.964" cy="178.768" r="2"/>
<circle clip-path="url(#clip02)" style="fill:#00002d; stroke:none; fill-opacity:1" cx="345.98" cy="173.707" r="3"/>
<circle clip-path="url(#clip02)" style="fill:#00002d; stroke:none; fill-opacity:1" cx="345.98" cy="173.707" r="2"/>
<circle clip-path="url(#clip02)" style="fill:#00002d; stroke:none; fill-opacity:1" cx="395.997" cy="171.061" r="3"/>
<circle clip-path="url(#clip02)" style="fill:#00002d; stroke:none; fill-opacity:1" cx="395.997" cy="171.061" r="2"/>
<circle clip-path="url(#clip02)" style="fill:#00002d; stroke:none; fill-opacity:1" cx="446.013" cy="168.311" r="3"/>
<circle clip-path="url(#clip02)" style="fill:#00002d; stroke:none; fill-opacity:1" cx="446.013" cy="168.311" r="2"/>
<circle clip-path="url(#clip02)" style="fill:#00002d; stroke:none; fill-opacity:1" cx="496.03" cy="164.282" r="3"/>
<circle clip-path="url(#clip02)" style="fill:#00002d; stroke:none; fill-opacity:1" cx="496.03" cy="164.282" r="2"/>
<circle clip-path="url(#clip02)" style="fill:#00002d; stroke:none; fill-opacity:1" cx="546.046" cy="164.775" r="3"/>
<circle clip-path="url(#clip02)" style="fill:#00002d; stroke:none; fill-opacity:1" cx="546.046" cy="164.775" r="2"/>
<polyline clip-path="url(#clip02)" style="stroke:#f3f3f3; stroke-width:2.4; stroke-opacity:1; fill:none" points="
  -304.234,65.9749 -254.218,369.674 -204.201,155.113 -154.185,289.01 -104.168,290.533 -54.1516,222.605 -4.13505,216.098 45.8815,213.774 95.898,217.43 145.914,208.431 
  195.931,211.919 245.947,204.377 295.964,203.981 345.98,201.832 395.997,194.934 446.013,189.427 496.03,187.271 546.046,185.873 596.063,190.24 
  "/>
<polygon clip-path="url(#clip02)" style="fill:#00002d; fill-opacity:1" points="
  41.8815,209.774 41.8815,217.774 49.8815,217.774 49.8815,209.774 41.8815,209.774 
  "/>
<polygon clip-path="url(#clip02)" style="fill:#f3f3f3; fill-opacity:1" points="
  42.6815,210.574 42.6815,216.974 49.0815,216.974 49.0815,210.574 42.6815,210.574 
  "/>
<polygon clip-path="url(#clip02)" style="fill:#00002d; fill-opacity:1" points="
  91.898,213.43 91.898,221.43 99.898,221.43 99.898,213.43 91.898,213.43 
  "/>
<polygon clip-path="url(#clip02)" style="fill:#f3f3f3; fill-opacity:1" points="
  92.698,214.23 92.698,220.63 99.098,220.63 99.098,214.23 92.698,214.23 
  "/>
<polygon clip-path="url(#clip02)" style="fill:#00002d; fill-opacity:1" points="
  141.914,204.431 141.914,212.431 149.914,212.431 149.914,204.431 141.914,204.431 
  "/>
<polygon clip-path="url(#clip02)" style="fill:#f3f3f3; fill-opacity:1" points="
  142.714,205.231 142.714,211.631 149.114,211.631 149.114,205.231 142.714,205.231 
  "/>
<polygon clip-path="url(#clip02)" style="fill:#00002d; fill-opacity:1" points="
  191.931,207.919 191.931,215.919 199.931,215.919 199.931,207.919 191.931,207.919 
  "/>
<polygon clip-path="url(#clip02)" style="fill:#f3f3f3; fill-opacity:1" points="
  192.731,208.719 192.731,215.119 199.131,215.119 199.131,208.719 192.731,208.719 
  "/>
<polygon clip-path="url(#clip02)" style="fill:#00002d; fill-opacity:1" points="
  241.947,200.377 241.947,208.377 249.947,208.377 249.947,200.377 241.947,200.377 
  "/>
<polygon clip-path="url(#clip02)" style="fill:#f3f3f3; fill-opacity:1" points="
  242.747,201.177 242.747,207.577 249.147,207.577 249.147,201.177 242.747,201.177 
  "/>
<polygon clip-path="url(#clip02)" style="fill:#00002d; fill-opacity:1" points="
  291.964,199.981 291.964,207.981 299.964,207.981 299.964,199.981 291.964,199.981 
  "/>
<polygon clip-path="url(#clip02)" style="fill:#f3f3f3; fill-opacity:1" points="
  292.764,200.781 292.764,207.181 299.164,207.181 299.164,200.781 292.764,200.781 
  "/>
<polygon clip-path="url(#clip02)" style="fill:#00002d; fill-opacity:1" points="
  341.98,197.832 341.98,205.832 349.98,205.832 349.98,197.832 341.98,197.832 
  "/>
<polygon clip-path="url(#clip02)" style="fill:#f3f3f3; fill-opacity:1" points="
  342.78,198.632 342.78,205.032 349.18,205.032 349.18,198.632 342.78,198.632 
  "/>
<polygon clip-path="url(#clip02)" style="fill:#00002d; fill-opacity:1" points="
  391.997,190.934 391.997,198.934 399.997,198.934 399.997,190.934 391.997,190.934 
  "/>
<polygon clip-path="url(#clip02)" style="fill:#f3f3f3; fill-opacity:1" points="
  392.797,191.734 392.797,198.134 399.197,198.134 399.197,191.734 392.797,191.734 
  "/>
<polygon clip-path="url(#clip02)" style="fill:#00002d; fill-opacity:1" points="
  442.013,185.427 442.013,193.427 450.013,193.427 450.013,185.427 442.013,185.427 
  "/>
<polygon clip-path="url(#clip02)" style="fill:#f3f3f3; fill-opacity:1" points="
  442.813,186.227 442.813,192.627 449.213,192.627 449.213,186.227 442.813,186.227 
  "/>
<polygon clip-path="url(#clip02)" style="fill:#00002d; fill-opacity:1" points="
  492.03,183.271 492.03,191.271 500.03,191.271 500.03,183.271 492.03,183.271 
  "/>
<polygon clip-path="url(#clip02)" style="fill:#f3f3f3; fill-opacity:1" points="
  492.83,184.071 492.83,190.471 499.23,190.471 499.23,184.071 492.83,184.071 
  "/>
<polygon clip-path="url(#clip02)" style="fill:#00002d; fill-opacity:1" points="
  542.046,181.873 542.046,189.873 550.046,189.873 550.046,181.873 542.046,181.873 
  "/>
<polygon clip-path="url(#clip02)" style="fill:#f3f3f3; fill-opacity:1" points="
  542.846,182.673 542.846,189.073 549.246,189.073 549.246,182.673 542.846,182.673 
  "/>
<polygon clip-path="url(#clip00)" points="
489.085,89.6215 578.063,89.6215 578.063,44.2615 489.085,44.2615 
  " fill="#ffffff" fill-opacity="1"/>
<polyline clip-path="url(#clip00)" style="stroke:#00002d; stroke-width:0.8; stroke-opacity:1; fill:none" points="
  489.085,89.6215 578.063,89.6215 578.063,44.2615 489.085,44.2615 489.085,89.6215 
  "/>
<polyline clip-path="url(#clip00)" style="stroke:#00002d; stroke-width:2.4; stroke-opacity:1; fill:none" points="
  495.085,59.3815 531.085,59.3815 
  "/>
<circle clip-path="url(#clip00)" style="fill:#00002d; stroke:none; fill-opacity:1" cx="501.085" cy="59.3815" r="7"/>
<circle clip-path="url(#clip00)" style="fill:#00002d; stroke:none; fill-opacity:1" cx="501.085" cy="59.3815" r="7"/>
<circle clip-path="url(#clip00)" style="fill:#00002d; stroke:none; fill-opacity:1" cx="525.085" cy="59.3815" r="7"/>
<circle clip-path="url(#clip00)" style="fill:#00002d; stroke:none; fill-opacity:1" cx="525.085" cy="59.3815" r="7"/>
<g clip-path="url(#clip00)">
<text style="fill:#00002d; fill-opacity:1; font-family:Arial,Helvetica Neue,Helvetica,sans-serif; font-size:12; text-anchor:start;" transform="rotate(0, 537.085, 63.8815)" x="537.085" y="63.8815">bio</text>
</g>
<polyline clip-path="url(#clip00)" style="stroke:#f3f3f3; stroke-width:2.4; stroke-opacity:1; fill:none" points="
  495.085,74.5015 531.085,74.5015 
  "/>
<polygon clip-path="url(#clip00)" style="fill:#00002d; fill-opacity:1" points="
  492.285,65.7015 492.285,83.3015 509.885,83.3015 509.885,65.7015 492.285,65.7015 
  "/>
<polygon clip-path="url(#clip00)" style="fill:#f3f3f3; fill-opacity:1" points="
  493.085,66.5015 493.085,82.5015 509.085,82.5015 509.085,66.5015 493.085,66.5015 
  "/>
<polygon clip-path="url(#clip00)" style="fill:#00002d; fill-opacity:1" points="
  516.285,65.7015 516.285,83.3015 533.885,83.3015 533.885,65.7015 516.285,65.7015 
  "/>
<polygon clip-path="url(#clip00)" style="fill:#f3f3f3; fill-opacity:1" points="
  517.085,66.5015 517.085,82.5015 533.085,82.5015 533.085,66.5015 517.085,66.5015 
  "/>
<g clip-path="url(#clip00)">
<text style="fill:#00002d; fill-opacity:1; font-family:Arial,Helvetica Neue,Helvetica,sans-serif; font-size:12; text-anchor:start;" transform="rotate(0, 537.085, 79.0015)" x="537.085" y="79.0015">comp</text>
</g>
</svg>
