<?xml version="1.0" encoding="utf-8"?>
<svg xmlns="http://www.w3.org/2000/svg" xmlns:xlink="http://www.w3.org/1999/xlink" width="600" height="400" viewBox="0 0 600 400">
<defs>
  <clipPath id="clip00">
    <rect x="0" y="0" width="600" height="400"/>
  </clipPath>
</defs>
<polygon clip-path="url(#clip00)" points="
0,400 600,400 600,0 0,0 
  " fill="#ffffff" fill-opacity="1"/>
<defs>
  <clipPath id="clip01">
    <rect x="120" y="0" width="421" height="400"/>
  </clipPath>
</defs>
<polygon clip-path="url(#clip00)" points="
45.8815,369.674 596.063,369.674 596.063,23.3815 45.8815,23.3815 
  " fill="#ffffff" fill-opacity="1"/>
<defs>
  <clipPath id="clip02">
    <rect x="45" y="23" width="551" height="347"/>
  </clipPath>
</defs>
<polyline clip-path="url(#clip02)" style="stroke:#00002d; stroke-width:0.8; stroke-opacity:1; fill:none" points="
  45.8815,369.674 596.063,369.674 
  "/>
<polyline clip-path="url(#clip02)" style="stroke:#00002d; stroke-width:0.8; stroke-opacity:1; fill:none" points="
  115.98,369.674 115.98,364.48 
  "/>
<polyline clip-path="url(#clip02)" style="stroke:#00002d; stroke-width:0.8; stroke-opacity:1; fill:none" points="
  218.476,369.674 218.476,364.48 
  "/>
<polyline clip-path="url(#clip02)" style="stroke:#00002d; stroke-width:0.8; stroke-opacity:1; fill:none" points="
  320.972,369.674 320.972,364.48 
  "/>
<polyline clip-path="url(#clip02)" style="stroke:#00002d; stroke-width:0.8; stroke-opacity:1; fill:none" points="
  423.468,369.674 423.468,364.48 
  "/>
<polyline clip-path="url(#clip02)" style="stroke:#00002d; stroke-width:0.8; stroke-opacity:1; fill:none" points="
  525.964,369.674 525.964,364.48 
  "/>
<polyline clip-path="url(#clip02)" style="stroke:#00002d; stroke-width:0.8; stroke-opacity:1; fill:none" points="
  45.8815,369.674 45.8815,23.3815 
  "/>
<polyline clip-path="url(#clip02)" style="stroke:#00002d; stroke-width:0.8; stroke-opacity:1; fill:none" points="
  45.8815,369.674 54.1342,369.674 
  "/>
<polyline clip-path="url(#clip02)" style="stroke:#00002d; stroke-width:0.8; stroke-opacity:1; fill:none" points="
  45.8815,311.959 54.1342,311.959 
  "/>
<polyline clip-path="url(#clip02)" style="stroke:#00002d; stroke-width:0.8; stroke-opacity:1; fill:none" points="
  45.8815,254.243 54.1342,254.243 
  "/>
<polyline clip-path="url(#clip02)" style="stroke:#00002d; stroke-width:0.8; stroke-opacity:1; fill:none" points="
  45.8815,196.528 54.1342,196.528 
  "/>
<polyline clip-path="url(#clip02)" style="stroke:#00002d; stroke-width:0.8; stroke-opacity:1; fill:none" points="
  45.8815,138.812 54.1342,138.812 
  "/>
<polyline clip-path="url(#clip02)" style="stroke:#00002d; stroke-width:0.8; stroke-opacity:1; fill:none" points="
  45.8815,81.0969 54.1342,81.0969 
  "/>
<polyline clip-path="url(#clip02)" style="stroke:#00002d; stroke-width:0.8; stroke-opacity:1; fill:none" points="
  45.8815,23.3815 54.1342,23.3815 
  "/>
<g clip-path="url(#clip00)">
<text style="fill:#00002d; fill-opacity:1; font-family:Arial,Helvetica Neue,Helvetica,sans-serif; font-size:12; text-anchor:middle;" transform="rotate(0, 115.98, 381.674)" x="115.98" y="381.674">first</text>
</g>
<g clip-path="url(#clip00)">
<text style="fill:#00002d; fill-opacity:1; font-family:Arial,Helvetica Neue,Helvetica,sans-serif; font-size:12; text-anchor:middle;" transform="rotate(0, 218.476, 381.674)" x="218.476" y="381.674">second</text>
</g>
<g clip-path="url(#clip00)">
<text style="fill:#00002d; fill-opacity:1; font-family:Arial,Helvetica Neue,Helvetica,sans-serif; font-size:12; text-anchor:middle;" transform="rotate(0, 320.972, 381.674)" x="320.972" y="381.674">other</text>
</g>
<g clip-path="url(#clip00)">
<text style="fill:#00002d; fill-opacity:1; font-family:Arial,Helvetica Neue,Helvetica,sans-serif; font-size:12; text-anchor:middle;" transform="rotate(0, 423.468, 381.674)" x="423.468" y="381.674">penultimate</text>
</g>
<g clip-path="url(#clip00)">
<text style="fill:#00002d; fill-opacity:1; font-family:Arial,Helvetica Neue,Helvetica,sans-serif; font-size:12; text-anchor:middle;" transform="rotate(0, 525.964, 381.674)" x="525.964" y="381.674">last</text>
</g>
<g clip-path="url(#clip00)">
<text style="fill:#00002d; fill-opacity:1; font-family:Arial,Helvetica Neue,Helvetica,sans-serif; font-size:12; text-anchor:end;" transform="rotate(0, 44.6815, 374.174)" x="44.6815" y="374.174">0.0</text>
</g>
<g clip-path="url(#clip00)">
<text style="fill:#00002d; fill-opacity:1; font-family:Arial,Helvetica Neue,Helvetica,sans-serif; font-size:12; text-anchor:end;" transform="rotate(0, 44.6815, 316.459)" x="44.6815" y="316.459">0.1</text>
</g>
<g clip-path="url(#clip00)">
<text style="fill:#00002d; fill-opacity:1; font-family:Arial,Helvetica Neue,Helvetica,sans-serif; font-size:12; text-anchor:end;" transform="rotate(0, 44.6815, 258.743)" x="44.6815" y="258.743">0.2</text>
</g>
<g clip-path="url(#clip00)">
<text style="fill:#00002d; fill-opacity:1; font-family:Arial,Helvetica Neue,Helvetica,sans-serif; font-size:12; text-anchor:end;" transform="rotate(0, 44.6815, 201.028)" x="44.6815" y="201.028">0.3</text>
</g>
<g clip-path="url(#clip00)">
<text style="fill:#00002d; fill-opacity:1; font-family:Arial,Helvetica Neue,Helvetica,sans-serif; font-size:12; text-anchor:end;" transform="rotate(0, 44.6815, 143.312)" x="44.6815" y="143.312">0.4</text>
</g>
<g clip-path="url(#clip00)">
<text style="fill:#00002d; fill-opacity:1; font-family:Arial,Helvetica Neue,Helvetica,sans-serif; font-size:12; text-anchor:end;" transform="rotate(0, 44.6815, 85.5969)" x="44.6815" y="85.5969">0.5</text>
</g>
<g clip-path="url(#clip00)">
<text style="fill:#00002d; fill-opacity:1; font-family:Arial,Helvetica Neue,Helvetica,sans-serif; font-size:12; text-anchor:end;" transform="rotate(0, 44.6815, 27.8815)" x="44.6815" y="27.8815">0.6</text>
</g>
<g clip-path="url(#clip00)">
<text style="fill:#00002d; fill-opacity:1; font-family:Arial,Helvetica Neue,Helvetica,sans-serif; font-size:21; text-anchor:middle;" transform="rotate(0, 320.972, 18)" x="320.972" y="18">Proportion of Female Authors</text>
</g>
<g clip-path="url(#clip00)">
<text style="fill:#00002d; fill-opacity:1; font-family:Arial,Helvetica Neue,Helvetica,sans-serif; font-size:16; text-anchor:middle;" transform="rotate(0, 320.972, 397.6)" x="320.972" y="397.6">Author Position</text>
</g>
<g clip-path="url(#clip00)">
<text style="fill:#00002d; fill-opacity:1; font-family:Arial,Helvetica Neue,Helvetica,sans-serif; font-size:16; text-anchor:middle;" transform="rotate(-90, 14.4, 196.528)" x="14.4" y="196.528">Percent Female</text>
</g>
<polygon clip-path="url(#clip02)" points="
74.9821,152.903 74.9821,369.674 115.98,369.674 115.98,152.903 74.9821,152.903 74.9821,152.903 
  " fill="#00002d" fill-opacity="1"/>
<polyline clip-path="url(#clip02)" style="stroke:#00002d; stroke-width:0.8; stroke-opacity:1; fill:none" points="
  74.9821,152.903 74.9821,369.674 115.98,369.674 115.98,152.903 74.9821,152.903 
  "/>
<polygon clip-path="url(#clip02)" points="
177.478,151.148 177.478,369.674 218.476,369.674 218.476,151.148 177.478,151.148 177.478,151.148 
  " fill="#00002d" fill-opacity="1"/>
<polyline clip-path="url(#clip02)" style="stroke:#00002d; stroke-width:0.8; stroke-opacity:1; fill:none" points="
  177.478,151.148 177.478,369.674 218.476,369.674 218.476,151.148 177.478,151.148 
  "/>
<polygon clip-path="url(#clip02)" points="
279.974,157.213 279.974,369.674 320.972,369.674 320.972,157.213 279.974,157.213 279.974,157.213 
  " fill="#00002d" fill-opacity="1"/>
<polyline clip-path="url(#clip02)" style="stroke:#00002d; stroke-width:0.8; stroke-opacity:1; fill:none" points="
  279.974,157.213 279.974,369.674 320.972,369.674 320.972,157.213 279.974,157.213 
  "/>
<polygon clip-path="url(#clip02)" points="
382.47,208.419 382.47,369.674 423.468,369.674 423.468,208.419 382.47,208.419 382.47,208.419 
  " fill="#00002d" fill-opacity="1"/>
<polyline clip-path="url(#clip02)" style="stroke:#00002d; stroke-width:0.8; stroke-opacity:1; fill:none" points="
  382.47,208.419 382.47,369.674 423.468,369.674 423.468,208.419 382.47,208.419 
  "/>
<polygon clip-path="url(#clip02)" points="
484.966,228.499 484.966,369.674 525.964,369.674 525.964,228.499 484.966,228.499 484.966,228.499 
  " fill="#00002d" fill-opacity="1"/>
<polyline clip-path="url(#clip02)" style="stroke:#00002d; stroke-width:0.8; stroke-opacity:1; fill:none" points="
  484.966,228.499 484.966,369.674 525.964,369.674 525.964,228.499 484.966,228.499 
  "/>
<polygon clip-path="url(#clip02)" points="
95.4813,154.126 95.4813,151.68 95.4813,369.674 95.4813,369.674 
  " fill="#00002d" fill-opacity="1"/>
<polygon clip-path="url(#clip02)" points="
197.977,152.553 197.977,149.743 197.977,369.674 197.977,369.674 
  " fill="#00002d" fill-opacity="1"/>
<polygon clip-path="url(#clip02)" points="
300.473,158.018 300.473,156.408 300.473,369.674 300.473,369.674 
  " fill="#00002d" fill-opacity="1"/>
<polygon clip-path="url(#clip02)" points="
402.969,209.897 402.969,206.94 402.969,369.674 402.969,369.674 
  " fill="#00002d" fill-opacity="1"/>
<polygon clip-path="url(#clip02)" points="
505.465,229.702 505.465,227.296 505.465,369.674 505.465,369.674 
  " fill="#00002d" fill-opacity="1"/>
<polyline clip-path="url(#clip02)" style="stroke:#00002d; stroke-width:0.8; stroke-opacity:1; fill:none" points="
  95.4813,154.126 95.4813,151.68 
  "/>
<polyline clip-path="url(#clip02)" style="stroke:#00002d; stroke-width:0.8; stroke-opacity:1; fill:none" points="
  197.977,152.553 197.977,149.743 
  "/>
<polyline clip-path="url(#clip02)" style="stroke:#00002d; stroke-width:0.8; stroke-opacity:1; fill:none" points="
  300.473,158.018 300.473,156.408 
  "/>
<polyline clip-path="url(#clip02)" style="stroke:#00002d; stroke-width:0.8; stroke-opacity:1; fill:none" points="
  402.969,209.897 402.969,206.94 
  "/>
<polyline clip-path="url(#clip02)" style="stroke:#00002d; stroke-width:0.8; stroke-opacity:1; fill:none" points="
  505.465,229.702 505.465,227.296 
  "/>
<line clip-path="url(#clip02)" x1="99.4813" y1="154.126" x2="91.4813" y2="154.126" style="stroke:#00002d; stroke-opacity:1"/>
<line clip-path="url(#clip02)" x1="98.6813" y1="154.126" x2="92.2813" y2="154.126" style="stroke:#00002d; stroke-opacity:1"/>
<line clip-path="url(#clip02)" x1="99.4813" y1="151.68" x2="91.4813" y2="151.68" style="stroke:#00002d; stroke-opacity:1"/>
<line clip-path="url(#clip02)" x1="98.6813" y1="151.68" x2="92.2813" y2="151.68" style="stroke:#00002d; stroke-opacity:1"/>
<line clip-path="url(#clip02)" x1="201.977" y1="152.553" x2="193.977" y2="152.553" style="stroke:#00002d; stroke-opacity:1"/>
<line clip-path="url(#clip02)" x1="201.177" y1="152.553" x2="194.777" y2="152.553" style="stroke:#00002d; stroke-opacity:1"/>
<line clip-path="url(#clip02)" x1="201.977" y1="149.743" x2="193.977" y2="149.743" style="stroke:#00002d; stroke-opacity:1"/>
<line clip-path="url(#clip02)" x1="201.177" y1="149.743" x2="194.777" y2="149.743" style="stroke:#00002d; stroke-opacity:1"/>
<line clip-path="url(#clip02)" x1="304.473" y1="158.018" x2="296.473" y2="158.018" style="stroke:#00002d; stroke-opacity:1"/>
<line clip-path="url(#clip02)" x1="303.673" y1="158.018" x2="297.273" y2="158.018" style="stroke:#00002d; stroke-opacity:1"/>
<line clip-path="url(#clip02)" x1="304.473" y1="156.408" x2="296.473" y2="156.408" style="stroke:#00002d; stroke-opacity:1"/>
<line clip-path="url(#clip02)" x1="303.673" y1="156.408" x2="297.273" y2="156.408" style="stroke:#00002d; stroke-opacity:1"/>
<line clip-path="url(#clip02)" x1="406.969" y1="209.897" x2="398.969" y2="209.897" style="stroke:#00002d; stroke-opacity:1"/>
<line clip-path="url(#clip02)" x1="406.169" y1="209.897" x2="399.769" y2="209.897" style="stroke:#00002d; stroke-opacity:1"/>
<line clip-path="url(#clip02)" x1="406.969" y1="206.94" x2="398.969" y2="206.94" style="stroke:#00002d; stroke-opacity:1"/>
<line clip-path="url(#clip02)" x1="406.169" y1="206.94" x2="399.769" y2="206.94" style="stroke:#00002d; stroke-opacity:1"/>
<line clip-path="url(#clip02)" x1="509.465" y1="229.702" x2="501.465" y2="229.702" style="stroke:#00002d; stroke-opacity:1"/>
<line clip-path="url(#clip02)" x1="508.665" y1="229.702" x2="502.265" y2="229.702" style="stroke:#00002d; stroke-opacity:1"/>
<line clip-path="url(#clip02)" x1="509.465" y1="227.296" x2="501.465" y2="227.296" style="stroke:#00002d; stroke-opacity:1"/>
<line clip-path="url(#clip02)" x1="508.665" y1="227.296" x2="502.265" y2="227.296" style="stroke:#00002d; stroke-opacity:1"/>
<polygon clip-path="url(#clip02)" points="
115.98,187.087 115.98,369.674 156.979,369.674 156.979,187.087 115.98,187.087 115.98,187.087 
  " fill="#f3f3f3" fill-opacity="1"/>
<polyline clip-path="url(#clip02)" style="stroke:#00002d; stroke-width:0.8; stroke-opacity:1; fill:none" points="
  115.98,187.087 115.98,369.674 156.979,369.674 156.979,187.087 115.98,187.087 
  "/>
<polygon clip-path="url(#clip02)" points="
218.476,183.962 218.476,369.674 259.475,369.674 259.475,183.962 218.476,183.962 218.476,183.962 
  " fill="#f3f3f3" fill-opacity="1"/>
<polyline clip-path="url(#clip02)" style="stroke:#00002d; stroke-width:0.8; stroke-opacity:1; fill:none" points="
  218.476,183.962 218.476,369.674 259.475,369.674 259.475,183.962 218.476,183.962 
  "/>
<polygon clip-path="url(#clip02)" points="
320.972,178.741 320.972,369.674 361.971,369.674 361.971,178.741 320.972,178.741 320.972,178.741 
  " fill="#f3f3f3" fill-opacity="1"/>
<polyline clip-path="url(#clip02)" style="stroke:#00002d; stroke-width:0.8; stroke-opacity:1; fill:none" points="
  320.972,178.741 320.972,369.674 361.971,369.674 361.971,178.741 320.972,178.741 
  "/>
<polygon clip-path="url(#clip02)" points="
423.468,233.355 423.468,369.674 464.466,369.674 464.466,233.355 423.468,233.355 423.468,233.355 
  " fill="#f3f3f3" fill-opacity="1"/>
<polyline clip-path="url(#clip02)" style="stroke:#00002d; stroke-width:0.8; stroke-opacity:1; fill:none" points="
  423.468,233.355 423.468,369.674 464.466,369.674 464.466,233.355 423.468,233.355 
  "/>
<polygon clip-path="url(#clip02)" points="
525.964,250.054 525.964,369.674 566.962,369.674 566.962,250.054 525.964,250.054 525.964,250.054 
  " fill="#f3f3f3" fill-opacity="1"/>
<polyline clip-path="url(#clip02)" style="stroke:#00002d; stroke-width:0.8; stroke-opacity:1; fill:none" points="
  525.964,250.054 525.964,369.674 566.962,369.674 566.962,250.054 525.964,250.054 
  "/>
<polygon clip-path="url(#clip02)" points="
136.48,189.551 136.48,184.624 136.48,369.674 136.48,369.674 
  " fill="#f3f3f3" fill-opacity="1"/>
<polygon clip-path="url(#clip02)" points="
238.976,186.676 238.976,181.248 238.976,369.674 238.976,369.674 
  " fill="#f3f3f3" fill-opacity="1"/>
<polygon clip-path="url(#clip02)" points="
341.471,180.411 341.471,177.072 341.471,369.674 341.471,369.674 
  " fill="#f3f3f3" fill-opacity="1"/>
<polygon clip-path="url(#clip02)" points="
443.967,236.163 443.967,230.547 443.967,369.674 443.967,369.674 
  " fill="#f3f3f3" fill-opacity="1"/>
<polygon clip-path="url(#clip02)" points="
546.463,252.297 546.463,247.812 546.463,369.674 546.463,369.674 
  " fill="#f3f3f3" fill-opacity="1"/>
<polyline clip-path="url(#clip02)" style="stroke:#00002d; stroke-width:0.8; stroke-opacity:1; fill:none" points="
  136.48,189.551 136.48,184.624 
  "/>
<polyline clip-path="url(#clip02)" style="stroke:#00002d; stroke-width:0.8; stroke-opacity:1; fill:none" points="
  238.976,186.676 238.976,181.248 
  "/>
<polyline clip-path="url(#clip02)" style="stroke:#00002d; stroke-width:0.8; stroke-opacity:1; fill:none" points="
  341.471,180.411 341.471,177.072 
  "/>
<polyline clip-path="url(#clip02)" style="stroke:#00002d; stroke-width:0.8; stroke-opacity:1; fill:none" points="
  443.967,236.163 443.967,230.547 
  "/>
<polyline clip-path="url(#clip02)" style="stroke:#00002d; stroke-width:0.8; stroke-opacity:1; fill:none" points="
  546.463,252.297 546.463,247.812 
  "/>
<line clip-path="url(#clip02)" x1="140.48" y1="189.551" x2="132.48" y2="189.551" style="stroke:#00002d; stroke-opacity:1"/>
<line clip-path="url(#clip02)" x1="139.68" y1="189.551" x2="133.28" y2="189.551" style="stroke:#f3f3f3; stroke-opacity:1"/>
<line clip-path="url(#clip02)" x1="140.48" y1="184.624" x2="132.48" y2="184.624" style="stroke:#00002d; stroke-opacity:1"/>
<line clip-path="url(#clip02)" x1="139.68" y1="184.624" x2="133.28" y2="184.624" style="stroke:#f3f3f3; stroke-opacity:1"/>
<line clip-path="url(#clip02)" x1="242.976" y1="186.676" x2="234.976" y2="186.676" style="stroke:#00002d; stroke-opacity:1"/>
<line clip-path="url(#clip02)" x1="242.176" y1="186.676" x2="235.776" y2="186.676" style="stroke:#f3f3f3; stroke-opacity:1"/>
<line clip-path="url(#clip02)" x1="242.976" y1="181.248" x2="234.976" y2="181.248" style="stroke:#00002d; stroke-opacity:1"/>
<line clip-path="url(#clip02)" x1="242.176" y1="181.248" x2="235.776" y2="181.248" style="stroke:#f3f3f3; stroke-opacity:1"/>
<line clip-path="url(#clip02)" x1="345.471" y1="180.411" x2="337.471" y2="180.411" style="stroke:#00002d; stroke-opacity:1"/>
<line clip-path="url(#clip02)" x1="344.671" y1="180.411" x2="338.271" y2="180.411" style="stroke:#f3f3f3; stroke-opacity:1"/>
<line clip-path="url(#clip02)" x1="345.471" y1="177.072" x2="337.471" y2="177.072" style="stroke:#00002d; stroke-opacity:1"/>
<line clip-path="url(#clip02)" x1="344.671" y1="177.072" x2="338.271" y2="177.072" style="stroke:#f3f3f3; stroke-opacity:1"/>
<line clip-path="url(#clip02)" x1="447.967" y1="236.163" x2="439.967" y2="236.163" style="stroke:#00002d; stroke-opacity:1"/>
<line clip-path="url(#clip02)" x1="447.167" y1="236.163" x2="440.767" y2="236.163" style="stroke:#f3f3f3; stroke-opacity:1"/>
<line clip-path="url(#clip02)" x1="447.967" y1="230.547" x2="439.967" y2="230.547" style="stroke:#00002d; stroke-opacity:1"/>
<line clip-path="url(#clip02)" x1="447.167" y1="230.547" x2="440.767" y2="230.547" style="stroke:#f3f3f3; stroke-opacity:1"/>
<line clip-path="url(#clip02)" x1="550.463" y1="252.297" x2="542.463" y2="252.297" style="stroke:#00002d; stroke-opacity:1"/>
<line clip-path="url(#clip02)" x1="549.663" y1="252.297" x2="543.263" y2="252.297" style="stroke:#f3f3f3; stroke-opacity:1"/>
<line clip-path="url(#clip02)" x1="550.463" y1="247.812" x2="542.463" y2="247.812" style="stroke:#00002d; stroke-opacity:1"/>
<line clip-path="url(#clip02)" x1="549.663" y1="247.812" x2="543.263" y2="247.812" style="stroke:#f3f3f3; stroke-opacity:1"/>
<polygon clip-path="url(#clip00)" points="
489.085,89.6215 578.063,89.6215 578.063,44.2615 489.085,44.2615 
  " fill="#ffffff" fill-opacity="1"/>
<polyline clip-path="url(#clip00)" style="stroke:#00002d; stroke-width:0.8; stroke-opacity:1; fill:none" points="
  489.085,89.6215 578.063,89.6215 578.063,44.2615 489.085,44.2615 489.085,89.6215 
  "/>
<polygon clip-path="url(#clip00)" points="
495.085,65.4295 531.085,65.4295 531.085,53.3335 495.085,53.3335 495.085,65.4295 
  " fill="#00002d" fill-opacity="1"/>
<polyline clip-path="url(#clip00)" style="stroke:#00002d; stroke-width:0.8; stroke-opacity:1; fill:none" points="
  495.085,65.4295 531.085,65.4295 531.085,53.3335 495.085,53.3335 495.085,65.4295 
  "/>
<g clip-path="url(#clip00)">
<text style="fill:#00002d; fill-opacity:1; font-family:Arial,Helvetica Neue,Helvetica,sans-serif; font-size:12; text-anchor:start;" transform="rotate(0, 537.085, 63.8815)" x="537.085" y="63.8815">bio</text>
</g>
<polygon clip-path="url(#clip00)" points="
495.085,80.5495 531.085,80.5495 531.085,68.4535 495.085,68.4535 495.085,80.5495 
  " fill="#f3f3f3" fill-opacity="1"/>
<polyline clip-path="url(#clip00)" style="stroke:#00002d; stroke-width:0.8; stroke-opacity:1; fill:none" points="
  495.085,80.5495 531.085,80.5495 531.085,68.4535 495.085,68.4535 495.085,80.5495 
  "/>
<g clip-path="url(#clip00)">
<text style="fill:#00002d; fill-opacity:1; font-family:Arial,Helvetica Neue,Helvetica,sans-serif; font-size:12; text-anchor:start;" transform="rotate(0, 537.085, 79.0015)" x="537.085" y="79.0015">comp</text>
</g>
</svg>
