<?xml version="1.0" encoding="utf-8"?>
<svg xmlns="http://www.w3.org/2000/svg" xmlns:xlink="http://www.w3.org/1999/xlink" width="600" height="400" viewBox="0 0 600 400">
<defs>
  <clipPath id="clip00">
    <rect x="0" y="0" width="600" height="400"/>
  </clipPath>
</defs>
<polygon clip-path="url(#clip00)" points="
0,400 600,400 600,0 0,0 
  " fill="#ffffff" fill-opacity="1"/>
<defs>
  <clipPath id="clip01">
    <rect x="120" y="0" width="421" height="400"/>
  </clipPath>
</defs>
<polygon clip-path="url(#clip00)" points="
45.8815,369.674 596.063,369.674 596.063,23.3815 45.8815,23.3815 
  " fill="#ffffff" fill-opacity="1"/>
<defs>
  <clipPath id="clip02">
    <rect x="45" y="23" width="551" height="347"/>
  </clipPath>
</defs>
<polyline clip-path="url(#clip02)" style="stroke:#00002d; stroke-width:0.8; stroke-opacity:1; fill:none" points="
  45.8815,369.674 596.063,369.674 
  "/>
<polyline clip-path="url(#clip02)" style="stroke:#00002d; stroke-width:0.8; stroke-opacity:1; fill:none" points="
  115.656,369.674 115.656,364.48 
  "/>
<polyline clip-path="url(#clip02)" style="stroke:#00002d; stroke-width:0.8; stroke-opacity:1; fill:none" points="
  218.314,369.674 218.314,364.48 
  "/>
<polyline clip-path="url(#clip02)" style="stroke:#00002d; stroke-width:0.8; stroke-opacity:1; fill:none" points="
  320.972,369.674 320.972,364.48 
  "/>
<polyline clip-path="url(#clip02)" style="stroke:#00002d; stroke-width:0.8; stroke-opacity:1; fill:none" points="
  423.63,369.674 423.63,364.48 
  "/>
<polyline clip-path="url(#clip02)" style="stroke:#00002d; stroke-width:0.8; stroke-opacity:1; fill:none" points="
  526.288,369.674 526.288,364.48 
  "/>
<polyline clip-path="url(#clip02)" style="stroke:#00002d; stroke-width:0.8; stroke-opacity:1; fill:none" points="
  45.8815,369.674 45.8815,23.3815 
  "/>
<polyline clip-path="url(#clip02)" style="stroke:#00002d; stroke-width:0.8; stroke-opacity:1; fill:none" points="
  45.8815,369.674 54.1342,369.674 
  "/>
<polyline clip-path="url(#clip02)" style="stroke:#00002d; stroke-width:0.8; stroke-opacity:1; fill:none" points="
  45.8815,311.959 54.1342,311.959 
  "/>
<polyline clip-path="url(#clip02)" style="stroke:#00002d; stroke-width:0.8; stroke-opacity:1; fill:none" points="
  45.8815,254.243 54.1342,254.243 
  "/>
<polyline clip-path="url(#clip02)" style="stroke:#00002d; stroke-width:0.8; stroke-opacity:1; fill:none" points="
  45.8815,196.528 54.1342,196.528 
  "/>
<polyline clip-path="url(#clip02)" style="stroke:#00002d; stroke-width:0.8; stroke-opacity:1; fill:none" points="
  45.8815,138.812 54.1342,138.812 
  "/>
<polyline clip-path="url(#clip02)" style="stroke:#00002d; stroke-width:0.8; stroke-opacity:1; fill:none" points="
  45.8815,81.0969 54.1342,81.0969 
  "/>
<polyline clip-path="url(#clip02)" style="stroke:#00002d; stroke-width:0.8; stroke-opacity:1; fill:none" points="
  45.8815,23.3815 54.1342,23.3815 
  "/>
<g clip-path="url(#clip00)">
<text style="fill:#00002d; fill-opacity:1; font-family:Arial,Helvetica Neue,Helvetica,sans-serif; font-size:12; text-anchor:middle;" transform="rotate(0, 115.656, 381.674)" x="115.656" y="381.674">first</text>
</g>
<g clip-path="url(#clip00)">
<text style="fill:#00002d; fill-opacity:1; font-family:Arial,Helvetica Neue,Helvetica,sans-serif; font-size:12; text-anchor:middle;" transform="rotate(0, 218.314, 381.674)" x="218.314" y="381.674">second</text>
</g>
<g clip-path="url(#clip00)">
<text style="fill:#00002d; fill-opacity:1; font-family:Arial,Helvetica Neue,Helvetica,sans-serif; font-size:12; text-anchor:middle;" transform="rotate(0, 320.972, 381.674)" x="320.972" y="381.674">other</text>
</g>
<g clip-path="url(#clip00)">
<text style="fill:#00002d; fill-opacity:1; font-family:Arial,Helvetica Neue,Helvetica,sans-serif; font-size:12; text-anchor:middle;" transform="rotate(0, 423.63, 381.674)" x="423.63" y="381.674">penultimate</text>
</g>
<g clip-path="url(#clip00)">
<text style="fill:#00002d; fill-opacity:1; font-family:Arial,Helvetica Neue,Helvetica,sans-serif; font-size:12; text-anchor:middle;" transform="rotate(0, 526.288, 381.674)" x="526.288" y="381.674">last</text>
</g>
<g clip-path="url(#clip00)">
<text style="fill:#00002d; fill-opacity:1; font-family:Arial,Helvetica Neue,Helvetica,sans-serif; font-size:12; text-anchor:end;" transform="rotate(0, 44.6815, 374.174)" x="44.6815" y="374.174">0.0</text>
</g>
<g clip-path="url(#clip00)">
<text style="fill:#00002d; fill-opacity:1; font-family:Arial,Helvetica Neue,Helvetica,sans-serif; font-size:12; text-anchor:end;" transform="rotate(0, 44.6815, 316.459)" x="44.6815" y="316.459">0.1</text>
</g>
<g clip-path="url(#clip00)">
<text style="fill:#00002d; fill-opacity:1; font-family:Arial,Helvetica Neue,Helvetica,sans-serif; font-size:12; text-anchor:end;" transform="rotate(0, 44.6815, 258.743)" x="44.6815" y="258.743">0.2</text>
</g>
<g clip-path="url(#clip00)">
<text style="fill:#00002d; fill-opacity:1; font-family:Arial,Helvetica Neue,Helvetica,sans-serif; font-size:12; text-anchor:end;" transform="rotate(0, 44.6815, 201.028)" x="44.6815" y="201.028">0.3</text>
</g>
<g clip-path="url(#clip00)">
<text style="fill:#00002d; fill-opacity:1; font-family:Arial,Helvetica Neue,Helvetica,sans-serif; font-size:12; text-anchor:end;" transform="rotate(0, 44.6815, 143.312)" x="44.6815" y="143.312">0.4</text>
</g>
<g clip-path="url(#clip00)">
<text style="fill:#00002d; fill-opacity:1; font-family:Arial,Helvetica Neue,Helvetica,sans-serif; font-size:12; text-anchor:end;" transform="rotate(0, 44.6815, 85.5969)" x="44.6815" y="85.5969">0.5</text>
</g>
<g clip-path="url(#clip00)">
<text style="fill:#00002d; fill-opacity:1; font-family:Arial,Helvetica Neue,Helvetica,sans-serif; font-size:12; text-anchor:end;" transform="rotate(0, 44.6815, 27.8815)" x="44.6815" y="27.8815">0.6</text>
</g>
<g clip-path="url(#clip00)">
<text style="fill:#00002d; fill-opacity:1; font-family:Arial,Helvetica Neue,Helvetica,sans-serif; font-size:21; text-anchor:middle;" transform="rotate(0, 320.972, 18)" x="320.972" y="18">Primary Articles 1997-2014</text>
</g>
<g clip-path="url(#clip00)">
<text style="fill:#00002d; fill-opacity:1; font-family:Arial,Helvetica Neue,Helvetica,sans-serif; font-size:16; text-anchor:middle;" transform="rotate(0, 320.972, 397.6)" x="320.972" y="397.6">Author Position</text>
</g>
<g clip-path="url(#clip00)">
<text style="fill:#00002d; fill-opacity:1; font-family:Arial,Helvetica Neue,Helvetica,sans-serif; font-size:16; text-anchor:middle;" transform="rotate(-90, 14.4, 196.528)" x="14.4" y="196.528">Percent Female</text>
</g>
<polygon clip-path="url(#clip02)" points="
74.5929,152.922 74.5929,369.674 101.968,369.674 101.968,152.922 74.5929,152.922 74.5929,152.922 
  " fill="#00002d" fill-opacity="1"/>
<polyline clip-path="url(#clip02)" style="stroke:#00002d; stroke-width:0.8; stroke-opacity:1; fill:none" points="
  74.5929,152.922 74.5929,369.674 101.968,369.674 101.968,152.922 74.5929,152.922 
  "/>
<polygon clip-path="url(#clip02)" points="
177.251,151.169 177.251,369.674 204.626,369.674 204.626,151.169 177.251,151.169 177.251,151.169 
  " fill="#00002d" fill-opacity="1"/>
<polyline clip-path="url(#clip02)" style="stroke:#00002d; stroke-width:0.8; stroke-opacity:1; fill:none" points="
  177.251,151.169 177.251,369.674 204.626,369.674 204.626,151.169 177.251,151.169 
  "/>
<polygon clip-path="url(#clip02)" points="
279.909,157.251 279.909,369.674 307.284,369.674 307.284,157.251 279.909,157.251 279.909,157.251 
  " fill="#00002d" fill-opacity="1"/>
<polyline clip-path="url(#clip02)" style="stroke:#00002d; stroke-width:0.8; stroke-opacity:1; fill:none" points="
  279.909,157.251 279.909,369.674 307.284,369.674 307.284,157.251 279.909,157.251 
  "/>
<polygon clip-path="url(#clip02)" points="
382.567,208.494 382.567,369.674 409.943,369.674 409.943,208.494 382.567,208.494 382.567,208.494 
  " fill="#00002d" fill-opacity="1"/>
<polyline clip-path="url(#clip02)" style="stroke:#00002d; stroke-width:0.8; stroke-opacity:1; fill:none" points="
  382.567,208.494 382.567,369.674 409.943,369.674 409.943,208.494 382.567,208.494 
  "/>
<polygon clip-path="url(#clip02)" points="
485.225,228.51 485.225,369.674 512.601,369.674 512.601,228.51 485.225,228.51 485.225,228.51 
  " fill="#00002d" fill-opacity="1"/>
<polyline clip-path="url(#clip02)" style="stroke:#00002d; stroke-width:0.8; stroke-opacity:1; fill:none" points="
  485.225,228.51 485.225,369.674 512.601,369.674 512.601,228.51 485.225,228.51 
  "/>
<polygon clip-path="url(#clip02)" points="
88.2806,154.166 88.2806,151.652 88.2806,369.674 88.2806,369.674 
  " fill="#00002d" fill-opacity="1"/>
<polygon clip-path="url(#clip02)" points="
190.939,152.4 190.939,149.897 190.939,369.674 190.939,369.674 
  " fill="#00002d" fill-opacity="1"/>
<polygon clip-path="url(#clip02)" points="
293.597,158.146 293.597,156.38 293.597,369.674 293.597,369.674 
  " fill="#00002d" fill-opacity="1"/>
<polygon clip-path="url(#clip02)" points="
396.255,209.925 396.255,207.065 396.255,369.674 396.255,369.674 
  " fill="#00002d" fill-opacity="1"/>
<polygon clip-path="url(#clip02)" points="
498.913,229.95 498.913,227.065 498.913,369.674 498.913,369.674 
  " fill="#00002d" fill-opacity="1"/>
<polyline clip-path="url(#clip02)" style="stroke:#00002d; stroke-width:0.8; stroke-opacity:1; fill:none" points="
  88.2806,154.166 88.2806,151.652 
  "/>
<polyline clip-path="url(#clip02)" style="stroke:#00002d; stroke-width:0.8; stroke-opacity:1; fill:none" points="
  190.939,152.4 190.939,149.897 
  "/>
<polyline clip-path="url(#clip02)" style="stroke:#00002d; stroke-width:0.8; stroke-opacity:1; fill:none" points="
  293.597,158.146 293.597,156.38 
  "/>
<polyline clip-path="url(#clip02)" style="stroke:#00002d; stroke-width:0.8; stroke-opacity:1; fill:none" points="
  396.255,209.925 396.255,207.065 
  "/>
<polyline clip-path="url(#clip02)" style="stroke:#00002d; stroke-width:0.8; stroke-opacity:1; fill:none" points="
  498.913,229.95 498.913,227.065 
  "/>
<line clip-path="url(#clip02)" x1="92.2806" y1="154.166" x2="84.2806" y2="154.166" style="stroke:#00002d; stroke-opacity:1"/>
<line clip-path="url(#clip02)" x1="91.4806" y1="154.166" x2="85.0806" y2="154.166" style="stroke:#00002d; stroke-opacity:1"/>
<line clip-path="url(#clip02)" x1="92.2806" y1="151.652" x2="84.2806" y2="151.652" style="stroke:#00002d; stroke-opacity:1"/>
<line clip-path="url(#clip02)" x1="91.4806" y1="151.652" x2="85.0806" y2="151.652" style="stroke:#00002d; stroke-opacity:1"/>
<line clip-path="url(#clip02)" x1="194.939" y1="152.4" x2="186.939" y2="152.4" style="stroke:#00002d; stroke-opacity:1"/>
<line clip-path="url(#clip02)" x1="194.139" y1="152.4" x2="187.739" y2="152.4" style="stroke:#00002d; stroke-opacity:1"/>
<line clip-path="url(#clip02)" x1="194.939" y1="149.897" x2="186.939" y2="149.897" style="stroke:#00002d; stroke-opacity:1"/>
<line clip-path="url(#clip02)" x1="194.139" y1="149.897" x2="187.739" y2="149.897" style="stroke:#00002d; stroke-opacity:1"/>
<line clip-path="url(#clip02)" x1="297.597" y1="158.146" x2="289.597" y2="158.146" style="stroke:#00002d; stroke-opacity:1"/>
<line clip-path="url(#clip02)" x1="296.797" y1="158.146" x2="290.397" y2="158.146" style="stroke:#00002d; stroke-opacity:1"/>
<line clip-path="url(#clip02)" x1="297.597" y1="156.38" x2="289.597" y2="156.38" style="stroke:#00002d; stroke-opacity:1"/>
<line clip-path="url(#clip02)" x1="296.797" y1="156.38" x2="290.397" y2="156.38" style="stroke:#00002d; stroke-opacity:1"/>
<line clip-path="url(#clip02)" x1="400.255" y1="209.925" x2="392.255" y2="209.925" style="stroke:#00002d; stroke-opacity:1"/>
<line clip-path="url(#clip02)" x1="399.455" y1="209.925" x2="393.055" y2="209.925" style="stroke:#00002d; stroke-opacity:1"/>
<line clip-path="url(#clip02)" x1="400.255" y1="207.065" x2="392.255" y2="207.065" style="stroke:#00002d; stroke-opacity:1"/>
<line clip-path="url(#clip02)" x1="399.455" y1="207.065" x2="393.055" y2="207.065" style="stroke:#00002d; stroke-opacity:1"/>
<line clip-path="url(#clip02)" x1="502.913" y1="229.95" x2="494.913" y2="229.95" style="stroke:#00002d; stroke-opacity:1"/>
<line clip-path="url(#clip02)" x1="502.113" y1="229.95" x2="495.713" y2="229.95" style="stroke:#00002d; stroke-opacity:1"/>
<line clip-path="url(#clip02)" x1="502.913" y1="227.065" x2="494.913" y2="227.065" style="stroke:#00002d; stroke-opacity:1"/>
<line clip-path="url(#clip02)" x1="502.113" y1="227.065" x2="495.713" y2="227.065" style="stroke:#00002d; stroke-opacity:1"/>
<polygon clip-path="url(#clip02)" points="
101.968,141.704 101.968,369.674 129.344,369.674 129.344,141.704 101.968,141.704 101.968,141.704 
  " fill="#f3f3f3" fill-opacity="1"/>
<polyline clip-path="url(#clip02)" style="stroke:#00002d; stroke-width:0.8; stroke-opacity:1; fill:none" points="
  101.968,141.704 101.968,369.674 129.344,369.674 129.344,141.704 101.968,141.704 
  "/>
<polygon clip-path="url(#clip02)" points="
204.626,140.565 204.626,369.674 232.002,369.674 232.002,140.565 204.626,140.565 204.626,140.565 
  " fill="#f3f3f3" fill-opacity="1"/>
<polyline clip-path="url(#clip02)" style="stroke:#00002d; stroke-width:0.8; stroke-opacity:1; fill:none" points="
  204.626,140.565 204.626,369.674 232.002,369.674 232.002,140.565 204.626,140.565 
  "/>
<polygon clip-path="url(#clip02)" points="
307.284,149.779 307.284,369.674 334.66,369.674 334.66,149.779 307.284,149.779 307.284,149.779 
  " fill="#f3f3f3" fill-opacity="1"/>
<polyline clip-path="url(#clip02)" style="stroke:#00002d; stroke-width:0.8; stroke-opacity:1; fill:none" points="
  307.284,149.779 307.284,369.674 334.66,369.674 334.66,149.779 307.284,149.779 
  "/>
<polygon clip-path="url(#clip02)" points="
409.943,200.506 409.943,369.674 437.318,369.674 437.318,200.506 409.943,200.506 409.943,200.506 
  " fill="#f3f3f3" fill-opacity="1"/>
<polyline clip-path="url(#clip02)" style="stroke:#00002d; stroke-width:0.8; stroke-opacity:1; fill:none" points="
  409.943,200.506 409.943,369.674 437.318,369.674 437.318,200.506 409.943,200.506 
  "/>
<polygon clip-path="url(#clip02)" points="
512.601,221.401 512.601,369.674 539.976,369.674 539.976,221.401 512.601,221.401 512.601,221.401 
  " fill="#f3f3f3" fill-opacity="1"/>
<polyline clip-path="url(#clip02)" style="stroke:#00002d; stroke-width:0.8; stroke-opacity:1; fill:none" points="
  512.601,221.401 512.601,369.674 539.976,369.674 539.976,221.401 512.601,221.401 
  "/>
<polygon clip-path="url(#clip02)" points="
115.656,143.152 115.656,140.171 115.656,369.674 115.656,369.674 
  " fill="#f3f3f3" fill-opacity="1"/>
<polygon clip-path="url(#clip02)" points="
218.314,141.948 218.314,139.242 218.314,369.674 218.314,369.674 
  " fill="#f3f3f3" fill-opacity="1"/>
<polygon clip-path="url(#clip02)" points="
320.972,150.846 320.972,148.762 320.972,369.674 320.972,369.674 
  " fill="#f3f3f3" fill-opacity="1"/>
<polygon clip-path="url(#clip02)" points="
423.63,202.209 423.63,198.832 423.63,369.674 423.63,369.674 
  " fill="#f3f3f3" fill-opacity="1"/>
<polygon clip-path="url(#clip02)" points="
526.288,222.97 526.288,219.709 526.288,369.674 526.288,369.674 
  " fill="#f3f3f3" fill-opacity="1"/>
<polyline clip-path="url(#clip02)" style="stroke:#00002d; stroke-width:0.8; stroke-opacity:1; fill:none" points="
  115.656,143.152 115.656,140.171 
  "/>
<polyline clip-path="url(#clip02)" style="stroke:#00002d; stroke-width:0.8; stroke-opacity:1; fill:none" points="
  218.314,141.948 218.314,139.242 
  "/>
<polyline clip-path="url(#clip02)" style="stroke:#00002d; stroke-width:0.8; stroke-opacity:1; fill:none" points="
  320.972,150.846 320.972,148.762 
  "/>
<polyline clip-path="url(#clip02)" style="stroke:#00002d; stroke-width:0.8; stroke-opacity:1; fill:none" points="
  423.63,202.209 423.63,198.832 
  "/>
<polyline clip-path="url(#clip02)" style="stroke:#00002d; stroke-width:0.8; stroke-opacity:1; fill:none" points="
  526.288,222.97 526.288,219.709 
  "/>
<line clip-path="url(#clip02)" x1="119.656" y1="143.152" x2="111.656" y2="143.152" style="stroke:#00002d; stroke-opacity:1"/>
<line clip-path="url(#clip02)" x1="118.856" y1="143.152" x2="112.456" y2="143.152" style="stroke:#f3f3f3; stroke-opacity:1"/>
<line clip-path="url(#clip02)" x1="119.656" y1="140.171" x2="111.656" y2="140.171" style="stroke:#00002d; stroke-opacity:1"/>
<line clip-path="url(#clip02)" x1="118.856" y1="140.171" x2="112.456" y2="140.171" style="stroke:#f3f3f3; stroke-opacity:1"/>
<line clip-path="url(#clip02)" x1="222.314" y1="141.948" x2="214.314" y2="141.948" style="stroke:#00002d; stroke-opacity:1"/>
<line clip-path="url(#clip02)" x1="221.514" y1="141.948" x2="215.114" y2="141.948" style="stroke:#f3f3f3; stroke-opacity:1"/>
<line clip-path="url(#clip02)" x1="222.314" y1="139.242" x2="214.314" y2="139.242" style="stroke:#00002d; stroke-opacity:1"/>
<line clip-path="url(#clip02)" x1="221.514" y1="139.242" x2="215.114" y2="139.242" style="stroke:#f3f3f3; stroke-opacity:1"/>
<line clip-path="url(#clip02)" x1="324.972" y1="150.846" x2="316.972" y2="150.846" style="stroke:#00002d; stroke-opacity:1"/>
<line clip-path="url(#clip02)" x1="324.172" y1="150.846" x2="317.772" y2="150.846" style="stroke:#f3f3f3; stroke-opacity:1"/>
<line clip-path="url(#clip02)" x1="324.972" y1="148.762" x2="316.972" y2="148.762" style="stroke:#00002d; stroke-opacity:1"/>
<line clip-path="url(#clip02)" x1="324.172" y1="148.762" x2="317.772" y2="148.762" style="stroke:#f3f3f3; stroke-opacity:1"/>
<line clip-path="url(#clip02)" x1="427.63" y1="202.209" x2="419.63" y2="202.209" style="stroke:#00002d; stroke-opacity:1"/>
<line clip-path="url(#clip02)" x1="426.83" y1="202.209" x2="420.43" y2="202.209" style="stroke:#f3f3f3; stroke-opacity:1"/>
<line clip-path="url(#clip02)" x1="427.63" y1="198.832" x2="419.63" y2="198.832" style="stroke:#00002d; stroke-opacity:1"/>
<line clip-path="url(#clip02)" x1="426.83" y1="198.832" x2="420.43" y2="198.832" style="stroke:#f3f3f3; stroke-opacity:1"/>
<line clip-path="url(#clip02)" x1="530.288" y1="222.97" x2="522.288" y2="222.97" style="stroke:#00002d; stroke-opacity:1"/>
<line clip-path="url(#clip02)" x1="529.488" y1="222.97" x2="523.088" y2="222.97" style="stroke:#f3f3f3; stroke-opacity:1"/>
<line clip-path="url(#clip02)" x1="530.288" y1="219.709" x2="522.288" y2="219.709" style="stroke:#00002d; stroke-opacity:1"/>
<line clip-path="url(#clip02)" x1="529.488" y1="219.709" x2="523.088" y2="219.709" style="stroke:#f3f3f3; stroke-opacity:1"/>
<polygon clip-path="url(#clip02)" points="
129.344,187.266 129.344,369.674 156.719,369.674 156.719,187.266 129.344,187.266 129.344,187.266 
  " fill="#7f7f7f" fill-opacity="1"/>
<polyline clip-path="url(#clip02)" style="stroke:#00002d; stroke-width:0.8; stroke-opacity:1; fill:none" points="
  129.344,187.266 129.344,369.674 156.719,369.674 156.719,187.266 129.344,187.266 
  "/>
<polygon clip-path="url(#clip02)" points="
232.002,183.925 232.002,369.674 259.377,369.674 259.377,183.925 232.002,183.925 232.002,183.925 
  " fill="#7f7f7f" fill-opacity="1"/>
<polyline clip-path="url(#clip02)" style="stroke:#00002d; stroke-width:0.8; stroke-opacity:1; fill:none" points="
  232.002,183.925 232.002,369.674 259.377,369.674 259.377,183.925 232.002,183.925 
  "/>
<polygon clip-path="url(#clip02)" points="
334.66,178.822 334.66,369.674 362.035,369.674 362.035,178.822 334.66,178.822 334.66,178.822 
  " fill="#7f7f7f" fill-opacity="1"/>
<polyline clip-path="url(#clip02)" style="stroke:#00002d; stroke-width:0.8; stroke-opacity:1; fill:none" points="
  334.66,178.822 334.66,369.674 362.035,369.674 362.035,178.822 334.66,178.822 
  "/>
<polygon clip-path="url(#clip02)" points="
437.318,233.4 437.318,369.674 464.694,369.674 464.694,233.4 437.318,233.4 437.318,233.4 
  " fill="#7f7f7f" fill-opacity="1"/>
<polyline clip-path="url(#clip02)" style="stroke:#00002d; stroke-width:0.8; stroke-opacity:1; fill:none" points="
  437.318,233.4 437.318,369.674 464.694,369.674 464.694,233.4 437.318,233.4 
  "/>
<polygon clip-path="url(#clip02)" points="
539.976,250.109 539.976,369.674 567.352,369.674 567.352,250.109 539.976,250.109 539.976,250.109 
  " fill="#7f7f7f" fill-opacity="1"/>
<polyline clip-path="url(#clip02)" style="stroke:#00002d; stroke-width:0.8; stroke-opacity:1; fill:none" points="
  539.976,250.109 539.976,369.674 567.352,369.674 567.352,250.109 539.976,250.109 
  "/>
<polygon clip-path="url(#clip02)" points="
143.032,189.635 143.032,184.922 143.032,369.674 143.032,369.674 
  " fill="#7f7f7f" fill-opacity="1"/>
<polygon clip-path="url(#clip02)" points="
245.69,186.012 245.69,181.935 245.69,369.674 245.69,369.674 
  " fill="#7f7f7f" fill-opacity="1"/>
<polygon clip-path="url(#clip02)" points="
348.348,180.587 348.348,177.238 348.348,369.674 348.348,369.674 
  " fill="#7f7f7f" fill-opacity="1"/>
<polygon clip-path="url(#clip02)" points="
451.006,236.062 451.006,230.688 451.006,369.674 451.006,369.674 
  " fill="#7f7f7f" fill-opacity="1"/>
<polygon clip-path="url(#clip02)" points="
553.664,252.895 553.664,247.414 553.664,369.674 553.664,369.674 
  " fill="#7f7f7f" fill-opacity="1"/>
<polyline clip-path="url(#clip02)" style="stroke:#00002d; stroke-width:0.8; stroke-opacity:1; fill:none" points="
  143.032,189.635 143.032,184.922 
  "/>
<polyline clip-path="url(#clip02)" style="stroke:#00002d; stroke-width:0.8; stroke-opacity:1; fill:none" points="
  245.69,186.012 245.69,181.935 
  "/>
<polyline clip-path="url(#clip02)" style="stroke:#00002d; stroke-width:0.8; stroke-opacity:1; fill:none" points="
  348.348,180.587 348.348,177.238 
  "/>
<polyline clip-path="url(#clip02)" style="stroke:#00002d; stroke-width:0.8; stroke-opacity:1; fill:none" points="
  451.006,236.062 451.006,230.688 
  "/>
<polyline clip-path="url(#clip02)" style="stroke:#00002d; stroke-width:0.8; stroke-opacity:1; fill:none" points="
  553.664,252.895 553.664,247.414 
  "/>
<line clip-path="url(#clip02)" x1="147.032" y1="189.635" x2="139.032" y2="189.635" style="stroke:#00002d; stroke-opacity:1"/>
<line clip-path="url(#clip02)" x1="146.232" y1="189.635" x2="139.832" y2="189.635" style="stroke:#7f7f7f; stroke-opacity:1"/>
<line clip-path="url(#clip02)" x1="147.032" y1="184.922" x2="139.032" y2="184.922" style="stroke:#00002d; stroke-opacity:1"/>
<line clip-path="url(#clip02)" x1="146.232" y1="184.922" x2="139.832" y2="184.922" style="stroke:#7f7f7f; stroke-opacity:1"/>
<line clip-path="url(#clip02)" x1="249.69" y1="186.012" x2="241.69" y2="186.012" style="stroke:#00002d; stroke-opacity:1"/>
<line clip-path="url(#clip02)" x1="248.89" y1="186.012" x2="242.49" y2="186.012" style="stroke:#7f7f7f; stroke-opacity:1"/>
<line clip-path="url(#clip02)" x1="249.69" y1="181.935" x2="241.69" y2="181.935" style="stroke:#00002d; stroke-opacity:1"/>
<line clip-path="url(#clip02)" x1="248.89" y1="181.935" x2="242.49" y2="181.935" style="stroke:#7f7f7f; stroke-opacity:1"/>
<line clip-path="url(#clip02)" x1="352.348" y1="180.587" x2="344.348" y2="180.587" style="stroke:#00002d; stroke-opacity:1"/>
<line clip-path="url(#clip02)" x1="351.548" y1="180.587" x2="345.148" y2="180.587" style="stroke:#7f7f7f; stroke-opacity:1"/>
<line clip-path="url(#clip02)" x1="352.348" y1="177.238" x2="344.348" y2="177.238" style="stroke:#00002d; stroke-opacity:1"/>
<line clip-path="url(#clip02)" x1="351.548" y1="177.238" x2="345.148" y2="177.238" style="stroke:#7f7f7f; stroke-opacity:1"/>
<line clip-path="url(#clip02)" x1="455.006" y1="236.062" x2="447.006" y2="236.062" style="stroke:#00002d; stroke-opacity:1"/>
<line clip-path="url(#clip02)" x1="454.206" y1="236.062" x2="447.806" y2="236.062" style="stroke:#7f7f7f; stroke-opacity:1"/>
<line clip-path="url(#clip02)" x1="455.006" y1="230.688" x2="447.006" y2="230.688" style="stroke:#00002d; stroke-opacity:1"/>
<line clip-path="url(#clip02)" x1="454.206" y1="230.688" x2="447.806" y2="230.688" style="stroke:#7f7f7f; stroke-opacity:1"/>
<line clip-path="url(#clip02)" x1="557.664" y1="252.895" x2="549.664" y2="252.895" style="stroke:#00002d; stroke-opacity:1"/>
<line clip-path="url(#clip02)" x1="556.864" y1="252.895" x2="550.464" y2="252.895" style="stroke:#7f7f7f; stroke-opacity:1"/>
<line clip-path="url(#clip02)" x1="557.664" y1="247.414" x2="549.664" y2="247.414" style="stroke:#00002d; stroke-opacity:1"/>
<line clip-path="url(#clip02)" x1="556.864" y1="247.414" x2="550.464" y2="247.414" style="stroke:#7f7f7f; stroke-opacity:1"/>
<polygon clip-path="url(#clip00)" points="
476.57,104.741 578.063,104.741 578.063,44.2615 476.57,44.2615 
  " fill="#ffffff" fill-opacity="1"/>
<polyline clip-path="url(#clip00)" style="stroke:#00002d; stroke-width:0.8; stroke-opacity:1; fill:none" points="
  476.57,104.741 578.063,104.741 578.063,44.2615 476.57,44.2615 476.57,104.741 
  "/>
<polygon clip-path="url(#clip00)" points="
482.57,65.4295 518.57,65.4295 518.57,53.3335 482.57,53.3335 482.57,65.4295 
  " fill="#00002d" fill-opacity="1"/>
<polyline clip-path="url(#clip00)" style="stroke:#00002d; stroke-width:0.8; stroke-opacity:1; fill:none" points="
  482.57,65.4295 518.57,65.4295 518.57,53.3335 482.57,53.3335 482.57,65.4295 
  "/>
<g clip-path="url(#clip00)">
<text style="fill:#00002d; fill-opacity:1; font-family:Arial,Helvetica Neue,Helvetica,sans-serif; font-size:12; text-anchor:start;" transform="rotate(0, 524.57, 63.8815)" x="524.57" y="63.8815">Bio</text>
</g>
<polygon clip-path="url(#clip00)" points="
482.57,80.5495 518.57,80.5495 518.57,68.4535 482.57,68.4535 482.57,80.5495 
  " fill="#f3f3f3" fill-opacity="1"/>
<polyline clip-path="url(#clip00)" style="stroke:#00002d; stroke-width:0.8; stroke-opacity:1; fill:none" points="
  482.57,80.5495 518.57,80.5495 518.57,68.4535 482.57,68.4535 482.57,80.5495 
  "/>
<g clip-path="url(#clip00)">
<text style="fill:#00002d; fill-opacity:1; font-family:Arial,Helvetica Neue,Helvetica,sans-serif; font-size:12; text-anchor:start;" transform="rotate(0, 524.57, 79.0015)" x="524.57" y="79.0015">BioOnly</text>
</g>
<polygon clip-path="url(#clip00)" points="
482.57,95.6695 518.57,95.6695 518.57,83.5735 482.57,83.5735 482.57,95.6695 
  " fill="#7f7f7f" fill-opacity="1"/>
<polyline clip-path="url(#clip00)" style="stroke:#00002d; stroke-width:0.8; stroke-opacity:1; fill:none" points="
  482.57,95.6695 518.57,95.6695 518.57,83.5735 482.57,83.5735 482.57,95.6695 
  "/>
<g clip-path="url(#clip00)">
<text style="fill:#00002d; fill-opacity:1; font-family:Arial,Helvetica Neue,Helvetica,sans-serif; font-size:12; text-anchor:start;" transform="rotate(0, 524.57, 94.1215)" x="524.57" y="94.1215">Comp</text>
</g>
</svg>
